M48
; DRILL file {KiCad 9.0.7} date 2026-04-17T18:02:36-0700
; FORMAT={-:-/ absolute / metric / decimal}
; #@! TF.CreationDate,2026-04-17T18:02:36-07:00
; #@! TF.GenerationSoftware,Kicad,Pcbnew,9.0.7
; #@! TF.FileFunction,Plated,1,2,PTH
FMAT,2
METRIC
; #@! TA.AperFunction,Plated,PTH,ComponentDrill
T1C0.200
; #@! TA.AperFunction,Plated,PTH,ComponentDrill
T2C0.600
; #@! TA.AperFunction,Plated,PTH,ComponentDrill
T3C0.700
; #@! TA.AperFunction,Plated,PTH,ComponentDrill
T4C0.750
; #@! TA.AperFunction,Plated,PTH,ComponentDrill
T5C0.800
; #@! TA.AperFunction,Plated,PTH,ComponentDrill
T6C0.920
; #@! TA.AperFunction,Plated,PTH,ComponentDrill
T7C1.100
; #@! TA.AperFunction,Plated,PTH,ComponentDrill
T8C2.300
%
G90
G05
T1
X129.15Y-115.455
X129.15Y-116.855
X129.85Y-114.755
X129.85Y-116.155
X129.85Y-117.555
X130.55Y-115.455
X130.55Y-116.855
X131.25Y-114.755
X131.25Y-116.155
X131.25Y-117.555
X131.95Y-115.455
X131.95Y-116.855
T3
X209.1Y-56.65
X209.6Y-58.15
X211.1Y-56.65
X212.1Y-58.15
X213.1Y-56.65
X214.1Y-58.15
X215.1Y-56.65
X216.6Y-58.15
X217.1Y-56.65
T4
X187.885Y-84.75
X189.155Y-84.75
X190.425Y-84.75
T5
X129.1Y-52.19
X129.1Y-54.73
X129.1Y-57.27
X129.1Y-59.81
X129.1Y-62.35
X129.1Y-64.89
X129.1Y-67.43
X129.1Y-69.97
X129.1Y-72.51
X129.1Y-75.05
X129.1Y-77.59
X129.1Y-80.13
X129.1Y-82.67
X129.1Y-85.21
X144.34Y-52.19
X144.34Y-54.73
X144.34Y-57.27
X144.34Y-59.81
X144.34Y-62.35
X144.34Y-64.89
X144.34Y-67.43
X144.34Y-69.97
X144.34Y-72.51
X144.34Y-75.05
X144.34Y-77.59
X144.34Y-80.13
X144.34Y-82.67
X144.34Y-85.21
X149.88Y-67.26
X149.88Y-69.8
X149.88Y-72.34
X149.88Y-74.88
X149.88Y-77.42
X149.88Y-79.96
X149.88Y-82.5
X149.88Y-85.04
X157.5Y-67.26
X157.5Y-69.8
X157.5Y-72.34
X157.5Y-74.88
X157.5Y-77.42
X157.5Y-79.96
X157.5Y-82.5
X157.5Y-85.04
X162.38Y-69.76
X162.38Y-72.3
X162.38Y-74.84
X162.38Y-77.38
X162.38Y-79.92
X162.38Y-82.46
X162.38Y-85.0
X170.0Y-69.76
X170.0Y-72.3
X170.0Y-74.84
X170.0Y-77.38
X170.0Y-79.92
X170.0Y-82.46
X170.0Y-85.0
X174.88Y-77.5
X174.88Y-80.04
X174.88Y-82.58
X174.88Y-85.12
X182.5Y-77.5
X182.5Y-80.04
X182.5Y-82.58
X182.5Y-85.12
X196.175Y-91.35
X196.175Y-96.25
X222.185Y-93.917
X227.065Y-93.917
T6
X236.705Y-60.09
X236.705Y-63.29
X239.205Y-60.09
X239.205Y-63.29
T7
X241.89Y-90.125
X252.05Y-90.125
T8
X231.935Y-62.8
X243.975Y-62.8
T2
G00X206.7Y-56.85
M15
G01X206.7Y-57.95
M16
G05
G00X206.7Y-65.5
M15
G01X206.7Y-66.3
M16
G05
G00X219.5Y-56.85
M15
G01X219.5Y-57.95
M16
G05
G00X219.5Y-65.5
M15
G01X219.5Y-66.3
M16
G05
M30
