%TF.GenerationSoftware,KiCad,Pcbnew,9.0.7*%
%TF.CreationDate,2026-04-17T18:02:25-07:00*%
%TF.ProjectId,Footprint Cheat Sheet,466f6f74-7072-4696-9e74-204368656174,rev?*%
%TF.SameCoordinates,Original*%
%TF.FileFunction,Copper,L1,Top*%
%TF.FilePolarity,Positive*%
%FSLAX46Y46*%
G04 Gerber Fmt 4.6, Leading zero omitted, Abs format (unit mm)*
G04 Created by KiCad (PCBNEW 9.0.7) date 2026-04-17 18:02:25*
%MOMM*%
%LPD*%
G01*
G04 APERTURE LIST*
G04 Aperture macros list*
%AMRoundRect*
0 Rectangle with rounded corners*
0 $1 Rounding radius*
0 $2 $3 $4 $5 $6 $7 $8 $9 X,Y pos of 4 corners*
0 Add a 4 corners polygon primitive as box body*
4,1,4,$2,$3,$4,$5,$6,$7,$8,$9,$2,$3,0*
0 Add four circle primitives for the rounded corners*
1,1,$1+$1,$2,$3*
1,1,$1+$1,$4,$5*
1,1,$1+$1,$6,$7*
1,1,$1+$1,$8,$9*
0 Add four rect primitives between the rounded corners*
20,1,$1+$1,$2,$3,$4,$5,0*
20,1,$1+$1,$4,$5,$6,$7,0*
20,1,$1+$1,$6,$7,$8,$9,0*
20,1,$1+$1,$8,$9,$2,$3,0*%
%AMFreePoly0*
4,1,9,3.862500,-0.866500,0.737500,-0.866500,0.737500,-0.450000,-0.737500,-0.450000,-0.737500,0.450000,0.737500,0.450000,0.737500,0.866500,3.862500,0.866500,3.862500,-0.866500,3.862500,-0.866500,$1*%
G04 Aperture macros list end*
%TA.AperFunction,SMDPad,CuDef*%
%ADD10RoundRect,0.250000X-0.750000X-0.950000X0.750000X-0.950000X0.750000X0.950000X-0.750000X0.950000X0*%
%TD*%
%TA.AperFunction,SMDPad,CuDef*%
%ADD11RoundRect,0.150000X-0.825000X-0.150000X0.825000X-0.150000X0.825000X0.150000X-0.825000X0.150000X0*%
%TD*%
%TA.AperFunction,SMDPad,CuDef*%
%ADD12RoundRect,0.100000X-0.637500X-0.100000X0.637500X-0.100000X0.637500X0.100000X-0.637500X0.100000X0*%
%TD*%
%TA.AperFunction,SMDPad,CuDef*%
%ADD13RoundRect,0.250000X-1.150000X-0.250000X1.150000X-0.250000X1.150000X0.250000X-1.150000X0.250000X0*%
%TD*%
%TA.AperFunction,ComponentPad*%
%ADD14C,1.500000*%
%TD*%
%TA.AperFunction,SMDPad,CuDef*%
%ADD15RoundRect,0.150000X-0.512500X-0.150000X0.512500X-0.150000X0.512500X0.150000X-0.512500X0.150000X0*%
%TD*%
%TA.AperFunction,SMDPad,CuDef*%
%ADD16RoundRect,0.050000X-0.387500X-0.050000X0.387500X-0.050000X0.387500X0.050000X-0.387500X0.050000X0*%
%TD*%
%TA.AperFunction,SMDPad,CuDef*%
%ADD17RoundRect,0.050000X-0.050000X-0.387500X0.050000X-0.387500X0.050000X0.387500X-0.050000X0.387500X0*%
%TD*%
%TA.AperFunction,HeatsinkPad*%
%ADD18R,3.200000X3.200000*%
%TD*%
%TA.AperFunction,ComponentPad*%
%ADD19R,1.050000X1.500000*%
%TD*%
%TA.AperFunction,ComponentPad*%
%ADD20O,1.050000X1.500000*%
%TD*%
%TA.AperFunction,SMDPad,CuDef*%
%ADD21RoundRect,0.250000X-0.400000X-1.075000X0.400000X-1.075000X0.400000X1.075000X-0.400000X1.075000X0*%
%TD*%
%TA.AperFunction,ComponentPad*%
%ADD22RoundRect,0.250000X-0.550000X-0.550000X0.550000X-0.550000X0.550000X0.550000X-0.550000X0.550000X0*%
%TD*%
%TA.AperFunction,ComponentPad*%
%ADD23C,1.600000*%
%TD*%
%TA.AperFunction,SMDPad,CuDef*%
%ADD24R,0.380000X1.000000*%
%TD*%
%TA.AperFunction,SMDPad,CuDef*%
%ADD25R,0.700000X1.150000*%
%TD*%
%TA.AperFunction,ComponentPad*%
%ADD26RoundRect,0.250000X-0.350000X-0.350000X0.350000X-0.350000X0.350000X0.350000X-0.350000X0.350000X0*%
%TD*%
%TA.AperFunction,ComponentPad*%
%ADD27C,1.200000*%
%TD*%
%TA.AperFunction,ComponentPad*%
%ADD28O,1.200000X2.400000*%
%TD*%
%TA.AperFunction,ComponentPad*%
%ADD29O,1.200000X2.100000*%
%TD*%
%TA.AperFunction,SMDPad,CuDef*%
%ADD30RoundRect,0.100000X-0.130000X-0.100000X0.130000X-0.100000X0.130000X0.100000X-0.130000X0.100000X0*%
%TD*%
%TA.AperFunction,ComponentPad*%
%ADD31RoundRect,0.249999X-0.850001X-0.850001X0.850001X-0.850001X0.850001X0.850001X-0.850001X0.850001X0*%
%TD*%
%TA.AperFunction,ComponentPad*%
%ADD32C,2.200000*%
%TD*%
%TA.AperFunction,SMDPad,CuDef*%
%ADD33RoundRect,0.250000X-0.350000X-0.450000X0.350000X-0.450000X0.350000X0.450000X-0.350000X0.450000X0*%
%TD*%
%TA.AperFunction,SMDPad,CuDef*%
%ADD34R,1.500000X0.900000*%
%TD*%
%TA.AperFunction,SMDPad,CuDef*%
%ADD35R,0.900000X1.500000*%
%TD*%
%TA.AperFunction,SMDPad,CuDef*%
%ADD36R,0.900000X0.900000*%
%TD*%
%TA.AperFunction,HeatsinkPad*%
%ADD37C,0.600000*%
%TD*%
%TA.AperFunction,HeatsinkPad*%
%ADD38R,3.800000X3.800000*%
%TD*%
%TA.AperFunction,SMDPad,CuDef*%
%ADD39R,0.900000X1.000000*%
%TD*%
%TA.AperFunction,SMDPad,CuDef*%
%ADD40RoundRect,0.125000X-0.487500X-0.125000X0.487500X-0.125000X0.487500X0.125000X-0.487500X0.125000X0*%
%TD*%
%TA.AperFunction,SMDPad,CuDef*%
%ADD41RoundRect,0.135000X-0.135000X-0.185000X0.135000X-0.185000X0.135000X0.185000X-0.135000X0.185000X0*%
%TD*%
%TA.AperFunction,SMDPad,CuDef*%
%ADD42RoundRect,0.250000X-0.400000X-0.625000X0.400000X-0.625000X0.400000X0.625000X-0.400000X0.625000X0*%
%TD*%
%TA.AperFunction,ComponentPad*%
%ADD43R,1.400000X1.400000*%
%TD*%
%TA.AperFunction,ComponentPad*%
%ADD44C,1.400000*%
%TD*%
%TA.AperFunction,ComponentPad*%
%ADD45C,3.000000*%
%TD*%
%TA.AperFunction,SMDPad,CuDef*%
%ADD46RoundRect,0.250000X-0.362500X-1.425000X0.362500X-1.425000X0.362500X1.425000X-0.362500X1.425000X0*%
%TD*%
%TA.AperFunction,SMDPad,CuDef*%
%ADD47R,0.300000X0.300000*%
%TD*%
%TA.AperFunction,SMDPad,CuDef*%
%ADD48R,0.900000X0.300000*%
%TD*%
%TA.AperFunction,SMDPad,CuDef*%
%ADD49R,0.300000X0.900000*%
%TD*%
%TA.AperFunction,SMDPad,CuDef*%
%ADD50R,1.800000X1.800000*%
%TD*%
%TA.AperFunction,SMDPad,CuDef*%
%ADD51RoundRect,0.250000X-1.300000X-0.250000X1.300000X-0.250000X1.300000X0.250000X-1.300000X0.250000X0*%
%TD*%
%TA.AperFunction,SMDPad,CuDef*%
%ADD52RoundRect,0.250000X-0.362500X-1.075000X0.362500X-1.075000X0.362500X1.075000X-0.362500X1.075000X0*%
%TD*%
%TA.AperFunction,SMDPad,CuDef*%
%ADD53RoundRect,0.225000X-0.425000X-0.225000X0.425000X-0.225000X0.425000X0.225000X-0.425000X0.225000X0*%
%TD*%
%TA.AperFunction,SMDPad,CuDef*%
%ADD54FreePoly0,0.000000*%
%TD*%
%TA.AperFunction,SMDPad,CuDef*%
%ADD55RoundRect,0.250000X-1.000000X-0.650000X1.000000X-0.650000X1.000000X0.650000X-1.000000X0.650000X0*%
%TD*%
G04 APERTURE END LIST*
D10*
%TO.P,Y3,2,2*%
%TO.N,unconnected-(Y3-Pad2)*%
X200250000Y-56700000D03*
%TO.P,Y3,1,1*%
%TO.N,unconnected-(Y3-Pad1)*%
X196550000Y-56700000D03*
%TD*%
D11*
%TO.P,U3,8,S*%
%TO.N,unconnected-(U3-S-Pad8)*%
X141725000Y-96090000D03*
%TO.P,U3,7,CANH*%
%TO.N,unconnected-(U3-CANH-Pad7)*%
X141725000Y-97360000D03*
%TO.P,U3,6,CANL*%
%TO.N,unconnected-(U3-CANL-Pad6)*%
X141725000Y-98630000D03*
%TO.P,U3,5,NC*%
%TO.N,unconnected-(U3-NC-Pad5)*%
X141725000Y-99900000D03*
%TO.P,U3,4,RXD*%
%TO.N,unconnected-(U3-RXD-Pad4)*%
X136775000Y-99900000D03*
%TO.P,U3,3,VCC*%
%TO.N,unconnected-(U3-VCC-Pad3)*%
X136775000Y-98630000D03*
%TO.P,U3,2,GND*%
%TO.N,unconnected-(U3-GND-Pad2)*%
X136775000Y-97360000D03*
%TO.P,U3,1,TXD*%
%TO.N,unconnected-(U3-TXD-Pad1)*%
X136775000Y-96090000D03*
%TD*%
D12*
%TO.P,U7,14*%
%TO.N,N/C*%
X153675000Y-95975000D03*
%TO.P,U7,13*%
X153675000Y-96625000D03*
%TO.P,U7,12*%
X153675000Y-97275000D03*
%TO.P,U7,11*%
X153675000Y-97925000D03*
%TO.P,U7,10*%
X153675000Y-98575000D03*
%TO.P,U7,9*%
X153675000Y-99225000D03*
%TO.P,U7,8*%
X153675000Y-99875000D03*
%TO.P,U7,7*%
X147950000Y-99875000D03*
%TO.P,U7,6*%
X147950000Y-99225000D03*
%TO.P,U7,5*%
X147950000Y-98575000D03*
%TO.P,U7,4*%
X147950000Y-97925000D03*
%TO.P,U7,3*%
X147950000Y-97275000D03*
%TO.P,U7,2*%
%TO.N,unconnected-(U7-Pad2)*%
X147950000Y-96625000D03*
%TO.P,U7,1*%
%TO.N,unconnected-(U7-Pad1)*%
X147950000Y-95975000D03*
%TD*%
D13*
%TO.P,SW5,1,1*%
%TO.N,unconnected-(SW5-Pad1)*%
X214400000Y-109600000D03*
X220200000Y-109600000D03*
%TO.P,SW5,2,2*%
%TO.N,unconnected-(SW5-Pad2)*%
X214400000Y-113600000D03*
X220200000Y-113600000D03*
%TD*%
D14*
%TO.P,Y1,1,1*%
%TO.N,unconnected-(Y1-Pad1)*%
X196175000Y-96250000D03*
%TO.P,Y1,2,2*%
%TO.N,unconnected-(Y1-Pad2)*%
X196175000Y-91350000D03*
%TD*%
D15*
%TO.P,U14,5,VOUT*%
%TO.N,unconnected-(U14-VOUT-Pad5)*%
X239525000Y-80575000D03*
%TO.P,U14,4,BP*%
%TO.N,unconnected-(U14-BP-Pad4)*%
X239525000Y-82475000D03*
%TO.P,U14,3,ON/~{OFF}*%
%TO.N,unconnected-(U14-ON{slash}~{OFF}-Pad3)*%
X237250000Y-82475000D03*
%TO.P,U14,2,GND*%
%TO.N,unconnected-(U14-GND-Pad2)*%
X237250000Y-81525000D03*
%TO.P,U14,1,VIN*%
%TO.N,unconnected-(U14-VIN-Pad1)*%
X237250000Y-80575000D03*
%TD*%
D16*
%TO.P,U1,1,IOVDD*%
%TO.N,Net-(U1-IOVDD-Pad1)*%
X149725000Y-114750000D03*
%TO.P,U1,2,GPIO0*%
%TO.N,unconnected-(U1-GPIO0-Pad2)*%
X149725000Y-115150000D03*
%TO.P,U1,3,GPIO1*%
%TO.N,unconnected-(U1-GPIO1-Pad3)*%
X149725000Y-115550000D03*
%TO.P,U1,4,GPIO2*%
%TO.N,unconnected-(U1-GPIO2-Pad4)*%
X149725000Y-115950000D03*
%TO.P,U1,5,GPIO3*%
%TO.N,unconnected-(U1-GPIO3-Pad5)*%
X149725000Y-116350000D03*
%TO.P,U1,6,GPIO4*%
%TO.N,unconnected-(U1-GPIO4-Pad6)*%
X149725000Y-116750000D03*
%TO.P,U1,7,GPIO5*%
%TO.N,unconnected-(U1-GPIO5-Pad7)*%
X149725000Y-117150000D03*
%TO.P,U1,8,GPIO6*%
%TO.N,unconnected-(U1-GPIO6-Pad8)*%
X149725000Y-117550000D03*
%TO.P,U1,9,GPIO7*%
%TO.N,unconnected-(U1-GPIO7-Pad9)*%
X149725000Y-117950000D03*
%TO.P,U1,10,IOVDD*%
%TO.N,Net-(U1-IOVDD-Pad1)*%
X149725000Y-118350000D03*
%TO.P,U1,11,GPIO8*%
%TO.N,unconnected-(U1-GPIO8-Pad11)*%
X149725000Y-118750000D03*
%TO.P,U1,12,GPIO9*%
%TO.N,unconnected-(U1-GPIO9-Pad12)*%
X149725000Y-119150000D03*
%TO.P,U1,13,GPIO10*%
%TO.N,unconnected-(U1-GPIO10-Pad13)*%
X149725000Y-119550000D03*
%TO.P,U1,14,GPIO11*%
%TO.N,unconnected-(U1-GPIO11-Pad14)*%
X149725000Y-119950000D03*
D17*
%TO.P,U1,15,GPIO12*%
%TO.N,unconnected-(U1-GPIO12-Pad15)*%
X150562500Y-120787500D03*
%TO.P,U1,16,GPIO13*%
%TO.N,unconnected-(U1-GPIO13-Pad16)*%
X150962500Y-120787500D03*
%TO.P,U1,17,GPIO14*%
%TO.N,unconnected-(U1-GPIO14-Pad17)*%
X151362500Y-120787500D03*
%TO.P,U1,18,GPIO15*%
%TO.N,unconnected-(U1-GPIO15-Pad18)*%
X151762500Y-120787500D03*
%TO.P,U1,19,TESTEN*%
%TO.N,unconnected-(U1-TESTEN-Pad19)*%
X152162500Y-120787500D03*
%TO.P,U1,20,XIN*%
%TO.N,unconnected-(U1-XIN-Pad20)*%
X152562500Y-120787500D03*
%TO.P,U1,21,XOUT*%
%TO.N,unconnected-(U1-XOUT-Pad21)*%
X152962500Y-120787500D03*
%TO.P,U1,22,IOVDD*%
%TO.N,Net-(U1-IOVDD-Pad1)*%
X153362500Y-120787500D03*
%TO.P,U1,23,DVDD*%
%TO.N,Net-(U1-DVDD-Pad23)*%
X153762500Y-120787500D03*
%TO.P,U1,24,SWCLK*%
%TO.N,unconnected-(U1-SWCLK-Pad24)*%
X154162500Y-120787500D03*
%TO.P,U1,25,SWDIO*%
%TO.N,unconnected-(U1-SWDIO-Pad25)*%
X154562500Y-120787500D03*
%TO.P,U1,26,RUN*%
%TO.N,unconnected-(U1-RUN-Pad26)*%
X154962500Y-120787500D03*
%TO.P,U1,27,GPIO16*%
%TO.N,unconnected-(U1-GPIO16-Pad27)*%
X155362500Y-120787500D03*
%TO.P,U1,28,GPIO17*%
%TO.N,unconnected-(U1-GPIO17-Pad28)*%
X155762500Y-120787500D03*
D16*
%TO.P,U1,29,GPIO18*%
%TO.N,unconnected-(U1-GPIO18-Pad29)*%
X156600000Y-119950000D03*
%TO.P,U1,30,GPIO19*%
%TO.N,unconnected-(U1-GPIO19-Pad30)*%
X156600000Y-119550000D03*
%TO.P,U1,31,GPIO20*%
%TO.N,unconnected-(U1-GPIO20-Pad31)*%
X156600000Y-119150000D03*
%TO.P,U1,32,GPIO21*%
%TO.N,unconnected-(U1-GPIO21-Pad32)*%
X156600000Y-118750000D03*
%TO.P,U1,33,IOVDD*%
%TO.N,Net-(U1-IOVDD-Pad1)*%
X156600000Y-118350000D03*
%TO.P,U1,34,GPIO22*%
%TO.N,unconnected-(U1-GPIO22-Pad34)*%
X156600000Y-117950000D03*
%TO.P,U1,35,GPIO23*%
%TO.N,unconnected-(U1-GPIO23-Pad35)*%
X156600000Y-117550000D03*
%TO.P,U1,36,GPIO24*%
%TO.N,unconnected-(U1-GPIO24-Pad36)*%
X156600000Y-117150000D03*
%TO.P,U1,37,GPIO25*%
%TO.N,unconnected-(U1-GPIO25-Pad37)*%
X156600000Y-116750000D03*
%TO.P,U1,38,GPIO26/ADC0*%
%TO.N,unconnected-(U1-GPIO26{slash}ADC0-Pad38)*%
X156600000Y-116350000D03*
%TO.P,U1,39,GPIO27/ADC1*%
%TO.N,unconnected-(U1-GPIO27{slash}ADC1-Pad39)*%
X156600000Y-115950000D03*
%TO.P,U1,40,GPIO28/ADC2*%
%TO.N,unconnected-(U1-GPIO28{slash}ADC2-Pad40)*%
X156600000Y-115550000D03*
%TO.P,U1,41,GPIO29/ADC3*%
%TO.N,unconnected-(U1-GPIO29{slash}ADC3-Pad41)*%
X156600000Y-115150000D03*
%TO.P,U1,42,IOVDD*%
%TO.N,Net-(U1-IOVDD-Pad1)*%
X156600000Y-114750000D03*
D17*
%TO.P,U1,43,ADC_AVDD*%
%TO.N,unconnected-(U1-ADC_AVDD-Pad43)*%
X155762500Y-113912500D03*
%TO.P,U1,44,VREG_VIN*%
%TO.N,unconnected-(U1-VREG_VIN-Pad44)*%
X155362500Y-113912500D03*
%TO.P,U1,45,VREG_VOUT*%
%TO.N,unconnected-(U1-VREG_VOUT-Pad45)*%
X154962500Y-113912500D03*
%TO.P,U1,46,USB_DM*%
%TO.N,unconnected-(U1-USB_DM-Pad46)*%
X154562500Y-113912500D03*
%TO.P,U1,47,USB_DP*%
%TO.N,unconnected-(U1-USB_DP-Pad47)*%
X154162500Y-113912500D03*
%TO.P,U1,48,USB_VDD*%
%TO.N,unconnected-(U1-USB_VDD-Pad48)*%
X153762500Y-113912500D03*
%TO.P,U1,49,IOVDD*%
%TO.N,Net-(U1-IOVDD-Pad1)*%
X153362500Y-113912500D03*
%TO.P,U1,50,DVDD*%
%TO.N,Net-(U1-DVDD-Pad23)*%
X152962500Y-113912500D03*
%TO.P,U1,51,QSPI_SD3*%
%TO.N,unconnected-(U1-QSPI_SD3-Pad51)*%
X152562500Y-113912500D03*
%TO.P,U1,52,QSPI_SCLK*%
%TO.N,unconnected-(U1-QSPI_SCLK-Pad52)*%
X152162500Y-113912500D03*
%TO.P,U1,53,QSPI_SD0*%
%TO.N,unconnected-(U1-QSPI_SD0-Pad53)*%
X151762500Y-113912500D03*
%TO.P,U1,54,QSPI_SD2*%
%TO.N,unconnected-(U1-QSPI_SD2-Pad54)*%
X151362500Y-113912500D03*
%TO.P,U1,55,QSPI_SD1*%
%TO.N,unconnected-(U1-QSPI_SD1-Pad55)*%
X150962500Y-113912500D03*
%TO.P,U1,56,~{QSPI_SS}*%
%TO.N,unconnected-(U1-~{QSPI_SS}-Pad56)*%
X150562500Y-113912500D03*
D18*
%TO.P,U1,57,GND*%
%TO.N,unconnected-(U1-GND-Pad57)*%
X153162500Y-117350000D03*
%TD*%
D19*
%TO.P,Q1,1,C*%
%TO.N,unconnected-(Q1-C-Pad1)*%
X187885000Y-84750000D03*
D20*
%TO.P,Q1,2,B*%
%TO.N,unconnected-(Q1-B-Pad2)*%
X189155000Y-84750000D03*
%TO.P,Q1,3,E*%
%TO.N,unconnected-(Q1-E-Pad3)*%
X190425000Y-84750000D03*
%TD*%
D21*
%TO.P,R6,1*%
%TO.N,unconnected-(R6-Pad1)*%
X173375000Y-56700000D03*
%TO.P,R6,2*%
%TO.N,unconnected-(R6-Pad2)*%
X176475000Y-56700000D03*
%TD*%
D22*
%TO.P,U13,1,A0/M0*%
%TO.N,unconnected-(U13-A0{slash}M0-Pad1)*%
X129100000Y-52190000D03*
D23*
%TO.P,U13,2,A1/M1*%
%TO.N,unconnected-(U13-A1{slash}M1-Pad2)*%
X129100000Y-54730000D03*
%TO.P,U13,3,A2/M2*%
%TO.N,unconnected-(U13-A2{slash}M2-Pad3)*%
X129100000Y-57270000D03*
%TO.P,U13,4,A3/M3*%
%TO.N,unconnected-(U13-A3{slash}M3-Pad4)*%
X129100000Y-59810000D03*
%TO.P,U13,5,A4/M4*%
%TO.N,unconnected-(U13-A4{slash}M4-Pad5)*%
X129100000Y-62350000D03*
%TO.P,U13,6,A5/M5*%
%TO.N,unconnected-(U13-A5{slash}M5-Pad6)*%
X129100000Y-64890000D03*
%TO.P,U13,7,A6/M6*%
%TO.N,unconnected-(U13-A6{slash}M6-Pad7)*%
X129100000Y-67430000D03*
%TO.P,U13,8,A7*%
%TO.N,unconnected-(U13-A7-Pad8)*%
X129100000Y-69970000D03*
%TO.P,U13,9,A8*%
%TO.N,unconnected-(U13-A8-Pad9)*%
X129100000Y-72510000D03*
%TO.P,U13,10,A9*%
%TO.N,unconnected-(U13-A9-Pad10)*%
X129100000Y-75050000D03*
%TO.P,U13,11,AUX_IN*%
%TO.N,unconnected-(U13-AUX_IN-Pad11)*%
X129100000Y-77590000D03*
%TO.P,U13,12,VSSD*%
%TO.N,unconnected-(U13-VSSD-Pad12)*%
X129100000Y-80130000D03*
%TO.P,U13,13,VSSA*%
%TO.N,unconnected-(U13-VSSA-Pad13)*%
X129100000Y-82670000D03*
%TO.P,U13,14,SP+*%
%TO.N,unconnected-(U13-SP+-Pad14)*%
X129100000Y-85210000D03*
%TO.P,U13,15,SP-*%
%TO.N,unconnected-(U13-SP--Pad15)*%
X144340000Y-85210000D03*
%TO.P,U13,16,VCCA*%
%TO.N,unconnected-(U13-VCCA-Pad16)*%
X144340000Y-82670000D03*
%TO.P,U13,17,MIC*%
%TO.N,unconnected-(U13-MIC-Pad17)*%
X144340000Y-80130000D03*
%TO.P,U13,18,MIC_REF*%
%TO.N,unconnected-(U13-MIC_REF-Pad18)*%
X144340000Y-77590000D03*
%TO.P,U13,19,AGC*%
%TO.N,unconnected-(U13-AGC-Pad19)*%
X144340000Y-75050000D03*
%TO.P,U13,20,ANA_IN*%
%TO.N,unconnected-(U13-ANA_IN-Pad20)*%
X144340000Y-72510000D03*
%TO.P,U13,21,ANA_OUT*%
%TO.N,unconnected-(U13-ANA_OUT-Pad21)*%
X144340000Y-69970000D03*
%TO.P,U13,22,~{OVF}*%
%TO.N,unconnected-(U13-~{OVF}-Pad22)*%
X144340000Y-67430000D03*
%TO.P,U13,23,~{CE}*%
%TO.N,unconnected-(U13-~{CE}-Pad23)*%
X144340000Y-64890000D03*
%TO.P,U13,24,PD*%
%TO.N,unconnected-(U13-PD-Pad24)*%
X144340000Y-62350000D03*
%TO.P,U13,25,~{EOM}*%
%TO.N,unconnected-(U13-~{EOM}-Pad25)*%
X144340000Y-59810000D03*
%TO.P,U13,26,XCLK*%
%TO.N,unconnected-(U13-XCLK-Pad26)*%
X144340000Y-57270000D03*
%TO.P,U13,27,P/~{R}*%
%TO.N,unconnected-(U13-P{slash}~{R}-Pad27)*%
X144340000Y-54730000D03*
%TO.P,U13,28,VCCD*%
%TO.N,unconnected-(U13-VCCD-Pad28)*%
X144340000Y-52190000D03*
%TD*%
D14*
%TO.P,Y2,1,1*%
%TO.N,unconnected-(Y2-Pad1)*%
X222185000Y-93917500D03*
%TO.P,Y2,2,2*%
%TO.N,unconnected-(Y2-Pad2)*%
X227065000Y-93917500D03*
%TD*%
D24*
%TO.P,P1,A1,GND*%
%TO.N,Net-(P1-GND-PadA1)*%
X210855000Y-77475000D03*
%TO.P,P1,A2*%
%TO.N,N/C*%
X211355000Y-77475000D03*
%TO.P,P1,A3*%
X211855000Y-77475000D03*
%TO.P,P1,A4,VBUS*%
%TO.N,Net-(P1-VBUS-PadA4)*%
X212355000Y-77475000D03*
%TO.P,P1,A5,CC*%
%TO.N,unconnected-(P1-CC-PadA5)*%
X212855000Y-77475000D03*
%TO.P,P1,A6,D+*%
%TO.N,unconnected-(P1-D+-PadA6)*%
X213355000Y-77475000D03*
%TO.P,P1,A7,D-*%
%TO.N,unconnected-(P1-D--PadA7)*%
X213855000Y-77475000D03*
%TO.P,P1,A8*%
%TO.N,N/C*%
X214355000Y-77475000D03*
%TO.P,P1,A9,VBUS*%
%TO.N,Net-(P1-VBUS-PadA4)*%
X214855000Y-77475000D03*
%TO.P,P1,A10*%
%TO.N,N/C*%
X215355000Y-77475000D03*
%TO.P,P1,A11*%
X215855000Y-77475000D03*
%TO.P,P1,A12,GND*%
%TO.N,Net-(P1-GND-PadA1)*%
X216355000Y-77475000D03*
D25*
%TO.P,P1,S1,SHIELD*%
%TO.N,unconnected-(P1-SHIELD-PadS1)*%
X210185000Y-78315000D03*
%TD*%
D26*
%TO.P,J1,1,VBUS*%
%TO.N,unconnected-(J1-VBUS-Pad1)*%
X209600000Y-58150000D03*
D27*
%TO.P,J1,2,D-*%
%TO.N,unconnected-(J1-D--Pad2)*%
X212100000Y-58150000D03*
%TO.P,J1,3,D+*%
%TO.N,unconnected-(J1-D+-Pad3)*%
X214100000Y-58150000D03*
%TO.P,J1,4,GND*%
%TO.N,unconnected-(J1-GND-Pad4)*%
X216600000Y-58150000D03*
%TO.P,J1,5,Shield*%
%TO.N,unconnected-(J1-Shield-Pad5)*%
X217100000Y-56650000D03*
%TO.P,J1,6*%
%TO.N,N/C*%
X215100000Y-56650000D03*
%TO.P,J1,7*%
X213100000Y-56650000D03*
%TO.P,J1,8*%
X211100000Y-56650000D03*
%TO.P,J1,9*%
X209100000Y-56650000D03*
D28*
%TO.P,J1,10*%
X206700000Y-57400000D03*
D29*
X206700000Y-65900000D03*
D28*
X219500000Y-57400000D03*
D29*
X219500000Y-65900000D03*
%TD*%
D30*
%TO.P,R2,1*%
%TO.N,unconnected-(R2-Pad1)*%
X154385000Y-56700000D03*
%TO.P,R2,2*%
%TO.N,unconnected-(R2-Pad2)*%
X155025000Y-56700000D03*
%TD*%
D31*
%TO.P,D3,1,K*%
%TO.N,unconnected-(D3-K-Pad1)*%
X241890000Y-90125000D03*
D32*
%TO.P,D3,2,A*%
%TO.N,unconnected-(D3-A-Pad2)*%
X252050000Y-90125000D03*
%TD*%
D11*
%TO.P,U6,1,VAA*%
%TO.N,unconnected-(U6-VAA-Pad1)*%
X180175000Y-91485000D03*
%TO.P,U6,2,GND*%
%TO.N,unconnected-(U6-GND-Pad2)*%
X180175000Y-92755000D03*
%TO.P,U6,3,IN-*%
%TO.N,unconnected-(U6-IN--Pad3)*%
X180175000Y-94025000D03*
%TO.P,U6,4,COMP*%
%TO.N,unconnected-(U6-COMP-Pad4)*%
X180175000Y-95295000D03*
%TO.P,U6,5,CSD*%
%TO.N,unconnected-(U6-CSD-Pad5)*%
X180175000Y-96565000D03*
%TO.P,U6,6,VSS*%
%TO.N,unconnected-(U6-VSS-Pad6)*%
X180175000Y-97835000D03*
%TO.P,U6,7,VREF*%
%TO.N,unconnected-(U6-VREF-Pad7)*%
X180175000Y-99105000D03*
%TO.P,U6,8,OCSET*%
%TO.N,unconnected-(U6-OCSET-Pad8)*%
X180175000Y-100375000D03*
%TO.P,U6,9,DT*%
%TO.N,unconnected-(U6-DT-Pad9)*%
X185125000Y-100375000D03*
%TO.P,U6,10,COM*%
%TO.N,unconnected-(U6-COM-Pad10)*%
X185125000Y-99105000D03*
%TO.P,U6,11,LO*%
%TO.N,unconnected-(U6-LO-Pad11)*%
X185125000Y-97835000D03*
%TO.P,U6,12,VCC*%
%TO.N,unconnected-(U6-VCC-Pad12)*%
X185125000Y-96565000D03*
%TO.P,U6,13,VS*%
%TO.N,unconnected-(U6-VS-Pad13)*%
X185125000Y-95295000D03*
%TO.P,U6,14,HO*%
%TO.N,unconnected-(U6-HO-Pad14)*%
X185125000Y-94025000D03*
%TO.P,U6,15,VB*%
%TO.N,unconnected-(U6-VB-Pad15)*%
X185125000Y-92755000D03*
%TO.P,U6,16,CSH*%
%TO.N,unconnected-(U6-CSH-Pad16)*%
X185125000Y-91485000D03*
%TD*%
D33*
%TO.P,R4,1*%
%TO.N,unconnected-(R4-Pad1)*%
X162875000Y-56700000D03*
%TO.P,R4,2*%
%TO.N,unconnected-(R4-Pad2)*%
X164875000Y-56700000D03*
%TD*%
D34*
%TO.P,U2,1,GND*%
%TO.N,Net-(U2-GND-Pad1)*%
X123300000Y-108590000D03*
%TO.P,U2,2,VDD*%
%TO.N,unconnected-(U2-VDD-Pad2)*%
X123300000Y-109860000D03*
%TO.P,U2,3,EN*%
%TO.N,unconnected-(U2-EN-Pad3)*%
X123300000Y-111130000D03*
%TO.P,U2,4,SENSOR_VP*%
%TO.N,unconnected-(U2-SENSOR_VP-Pad4)*%
X123300000Y-112400000D03*
%TO.P,U2,5,SENSOR_VN*%
%TO.N,unconnected-(U2-SENSOR_VN-Pad5)*%
X123300000Y-113670000D03*
%TO.P,U2,6,IO34*%
%TO.N,unconnected-(U2-IO34-Pad6)*%
X123300000Y-114940000D03*
%TO.P,U2,7,IO35*%
%TO.N,unconnected-(U2-IO35-Pad7)*%
X123300000Y-116210000D03*
%TO.P,U2,8,IO32*%
%TO.N,unconnected-(U2-IO32-Pad8)*%
X123300000Y-117480000D03*
%TO.P,U2,9,IO33*%
%TO.N,unconnected-(U2-IO33-Pad9)*%
X123300000Y-118750000D03*
%TO.P,U2,10,IO25*%
%TO.N,unconnected-(U2-IO25-Pad10)*%
X123300000Y-120020000D03*
%TO.P,U2,11,IO26*%
%TO.N,unconnected-(U2-IO26-Pad11)*%
X123300000Y-121290000D03*
%TO.P,U2,12,IO27*%
%TO.N,unconnected-(U2-IO27-Pad12)*%
X123300000Y-122560000D03*
%TO.P,U2,13,IO14*%
%TO.N,unconnected-(U2-IO14-Pad13)*%
X123300000Y-123830000D03*
%TO.P,U2,14,IO12*%
%TO.N,unconnected-(U2-IO12-Pad14)*%
X123300000Y-125100000D03*
D35*
%TO.P,U2,15,GND*%
%TO.N,Net-(U2-GND-Pad1)*%
X126335000Y-126195000D03*
%TO.P,U2,16,IO13*%
%TO.N,unconnected-(U2-IO13-Pad16)*%
X127605000Y-126195000D03*
%TO.P,U2,17,SHD/SD2*%
%TO.N,unconnected-(U2-SHD{slash}SD2-Pad17)*%
X128875000Y-126195000D03*
%TO.P,U2,18,SWP/SD3*%
%TO.N,unconnected-(U2-SWP{slash}SD3-Pad18)*%
X130145000Y-126195000D03*
%TO.P,U2,19,SCS/CMD*%
%TO.N,unconnected-(U2-SCS{slash}CMD-Pad19)*%
X131415000Y-126195000D03*
%TO.P,U2,20,SCK/CLK*%
%TO.N,unconnected-(U2-SCK{slash}CLK-Pad20)*%
X132685000Y-126195000D03*
%TO.P,U2,21,SDO/SD0*%
%TO.N,unconnected-(U2-SDO{slash}SD0-Pad21)*%
X133955000Y-126195000D03*
%TO.P,U2,22,SDI/SD1*%
%TO.N,unconnected-(U2-SDI{slash}SD1-Pad22)*%
X135225000Y-126195000D03*
%TO.P,U2,23,IO15*%
%TO.N,unconnected-(U2-IO15-Pad23)*%
X136495000Y-126195000D03*
%TO.P,U2,24,IO2*%
%TO.N,unconnected-(U2-IO2-Pad24)*%
X137765000Y-126195000D03*
D34*
%TO.P,U2,25,IO0*%
%TO.N,unconnected-(U2-IO0-Pad25)*%
X140800000Y-125100000D03*
%TO.P,U2,26,IO4*%
%TO.N,unconnected-(U2-IO4-Pad26)*%
X140800000Y-123830000D03*
%TO.P,U2,27,IO16*%
%TO.N,unconnected-(U2-IO16-Pad27)*%
X140800000Y-122560000D03*
%TO.P,U2,28,IO17*%
%TO.N,unconnected-(U2-IO17-Pad28)*%
X140800000Y-121290000D03*
%TO.P,U2,29,IO5*%
%TO.N,unconnected-(U2-IO5-Pad29)*%
X140800000Y-120020000D03*
%TO.P,U2,30,IO18*%
%TO.N,unconnected-(U2-IO18-Pad30)*%
X140800000Y-118750000D03*
%TO.P,U2,31,IO19*%
%TO.N,unconnected-(U2-IO19-Pad31)*%
X140800000Y-117480000D03*
%TO.P,U2,32,NC*%
%TO.N,unconnected-(U2-NC-Pad32)*%
X140800000Y-116210000D03*
%TO.P,U2,33,IO21*%
%TO.N,unconnected-(U2-IO21-Pad33)*%
X140800000Y-114940000D03*
%TO.P,U2,34,RXD0/IO3*%
%TO.N,unconnected-(U2-RXD0{slash}IO3-Pad34)*%
X140800000Y-113670000D03*
%TO.P,U2,35,TXD0/IO1*%
%TO.N,unconnected-(U2-TXD0{slash}IO1-Pad35)*%
X140800000Y-112400000D03*
%TO.P,U2,36,IO22*%
%TO.N,unconnected-(U2-IO22-Pad36)*%
X140800000Y-111130000D03*
%TO.P,U2,37,IO23*%
%TO.N,unconnected-(U2-IO23-Pad37)*%
X140800000Y-109860000D03*
%TO.P,U2,38,GND*%
%TO.N,Net-(U2-GND-Pad1)*%
X140800000Y-108590000D03*
D36*
%TO.P,U2,39,GND*%
X129150000Y-114755000D03*
D37*
X129150000Y-115455000D03*
D36*
X129150000Y-116155000D03*
D37*
X129150000Y-116855000D03*
D36*
X129150000Y-117555000D03*
D37*
X129850000Y-114755000D03*
X129850000Y-116155000D03*
X129850000Y-117555000D03*
D36*
X130550000Y-114755000D03*
D37*
X130550000Y-115455000D03*
D36*
X130550000Y-116155000D03*
D38*
X130550000Y-116155000D03*
D37*
X130550000Y-116855000D03*
D36*
X130550000Y-117555000D03*
D37*
X131250000Y-114755000D03*
X131250000Y-116155000D03*
X131250000Y-117555000D03*
D36*
X131950000Y-114755000D03*
D37*
X131950000Y-115455000D03*
D36*
X131950000Y-116155000D03*
D37*
X131950000Y-116855000D03*
D36*
X131950000Y-117555000D03*
%TD*%
D39*
%TO.P,SW1,1,1*%
%TO.N,unconnected-(SW1-Pad1)*%
X181075000Y-110525000D03*
X185175000Y-110525000D03*
%TO.P,SW1,2,2*%
%TO.N,unconnected-(SW1-Pad2)*%
X181075000Y-112125000D03*
X185175000Y-112125000D03*
%TD*%
D40*
%TO.P,D1,3,K*%
%TO.N,unconnected-(D1-K-Pad3)*%
X230125000Y-81875000D03*
%TO.P,D1,2,NC*%
%TO.N,unconnected-(D1-NC-Pad2)*%
X228250000Y-82525000D03*
%TO.P,D1,1,A*%
%TO.N,unconnected-(D1-A-Pad1)*%
X228250000Y-81225000D03*
%TD*%
D41*
%TO.P,R1,1*%
%TO.N,unconnected-(R1-Pad1)*%
X158975000Y-56600000D03*
%TO.P,R1,2*%
%TO.N,unconnected-(R1-Pad2)*%
X159995000Y-56600000D03*
%TD*%
D22*
%TO.P,U12,1,CLOCK*%
%TO.N,unconnected-(U12-CLOCK-Pad1)*%
X149880000Y-67260000D03*
D23*
%TO.P,U12,2,CLOCK_INHIBIT*%
%TO.N,unconnected-(U12-CLOCK_INHIBIT-Pad2)*%
X149880000Y-69800000D03*
%TO.P,U12,3,RIPPLE_BLANKING_IN*%
%TO.N,unconnected-(U12-RIPPLE_BLANKING_IN-Pad3)*%
X149880000Y-72340000D03*
%TO.P,U12,4,RIPPLE_BLANKING_OUT*%
%TO.N,unconnected-(U12-RIPPLE_BLANKING_OUT-Pad4)*%
X149880000Y-74880000D03*
%TO.P,U12,5,CARRY_OUT*%
%TO.N,unconnected-(U12-CARRY_OUT-Pad5)*%
X149880000Y-77420000D03*
%TO.P,U12,6,f*%
%TO.N,unconnected-(U12-f-Pad6)*%
X149880000Y-79960000D03*
%TO.P,U12,7,g*%
%TO.N,unconnected-(U12-g-Pad7)*%
X149880000Y-82500000D03*
%TO.P,U12,8,V_{SS}*%
%TO.N,unconnected-(U12-V_{SS}-Pad8)*%
X149880000Y-85040000D03*
%TO.P,U12,9,d*%
%TO.N,unconnected-(U12-d-Pad9)*%
X157500000Y-85040000D03*
%TO.P,U12,10,a*%
%TO.N,unconnected-(U12-a-Pad10)*%
X157500000Y-82500000D03*
%TO.P,U12,11,e*%
%TO.N,unconnected-(U12-e-Pad11)*%
X157500000Y-79960000D03*
%TO.P,U12,12,b*%
%TO.N,unconnected-(U12-b-Pad12)*%
X157500000Y-77420000D03*
%TO.P,U12,13,c*%
%TO.N,unconnected-(U12-c-Pad13)*%
X157500000Y-74880000D03*
%TO.P,U12,14,LAMP_TEST*%
%TO.N,unconnected-(U12-LAMP_TEST-Pad14)*%
X157500000Y-72340000D03*
%TO.P,U12,15,RESET*%
%TO.N,unconnected-(U12-RESET-Pad15)*%
X157500000Y-69800000D03*
%TO.P,U12,16,V_{DD}*%
%TO.N,unconnected-(U12-V_{DD}-Pad16)*%
X157500000Y-67260000D03*
%TD*%
D13*
%TO.P,SW4,1,1*%
%TO.N,unconnected-(SW4-Pad1)*%
X190300000Y-109450000D03*
X196100000Y-109450000D03*
%TO.P,SW4,2,2*%
%TO.N,unconnected-(SW4-Pad2)*%
X190300000Y-113450000D03*
X196100000Y-113450000D03*
%TD*%
D42*
%TO.P,R5,1*%
%TO.N,unconnected-(R5-Pad1)*%
X167650000Y-56700000D03*
%TO.P,R5,2*%
%TO.N,unconnected-(R5-Pad2)*%
X170750000Y-56700000D03*
%TD*%
D43*
%TO.P,J2,1,VBUS*%
%TO.N,unconnected-(J2-VBUS-Pad1)*%
X239205000Y-60090000D03*
D44*
%TO.P,J2,2,D-*%
%TO.N,unconnected-(J2-D--Pad2)*%
X236705000Y-60090000D03*
%TO.P,J2,3,D+*%
%TO.N,unconnected-(J2-D+-Pad3)*%
X236705000Y-63290000D03*
%TO.P,J2,4,ID*%
%TO.N,unconnected-(J2-ID-Pad4)*%
X239205000Y-63290000D03*
D45*
%TO.P,J2,5,GND*%
%TO.N,unconnected-(J2-GND-Pad5)*%
X231935000Y-62800000D03*
X243975000Y-62800000D03*
%TD*%
D46*
%TO.P,R8,1*%
%TO.N,unconnected-(R8-Pad1)*%
X186700000Y-56700000D03*
%TO.P,R8,2*%
%TO.N,unconnected-(R8-Pad2)*%
X192625000Y-56700000D03*
%TD*%
D30*
%TO.P,R3,2*%
%TO.N,unconnected-(R3-Pad2)*%
X150375000Y-56750000D03*
%TO.P,R3,1*%
%TO.N,unconnected-(R3-Pad1)*%
X149735000Y-56750000D03*
%TD*%
D13*
%TO.P,SW3,1,1*%
%TO.N,unconnected-(SW3-Pad1)*%
X202500000Y-109525000D03*
X208300000Y-109525000D03*
%TO.P,SW3,2,2*%
%TO.N,unconnected-(SW3-Pad2)*%
X202500000Y-113525000D03*
X208300000Y-113525000D03*
%TD*%
D11*
%TO.P,U4,1,~{CP}*%
%TO.N,unconnected-(U4-~{CP}-Pad1)*%
X159425000Y-92380000D03*
%TO.P,U4,2,MR*%
%TO.N,unconnected-(U4-MR-Pad2)*%
X159425000Y-93650000D03*
%TO.P,U4,3,Q6*%
%TO.N,unconnected-(U4-Q6-Pad3)*%
X159425000Y-94920000D03*
%TO.P,U4,4,Q5*%
%TO.N,unconnected-(U4-Q5-Pad4)*%
X159425000Y-96190000D03*
%TO.P,U4,5,Q4*%
%TO.N,unconnected-(U4-Q4-Pad5)*%
X159425000Y-97460000D03*
%TO.P,U4,6,Q3*%
%TO.N,unconnected-(U4-Q3-Pad6)*%
X159425000Y-98730000D03*
%TO.P,U4,7,GND*%
%TO.N,unconnected-(U4-GND-Pad7)*%
X159425000Y-100000000D03*
%TO.P,U4,8*%
%TO.N,unconnected-(U4-Pad8)*%
X164375000Y-100000000D03*
%TO.P,U4,9,Q2*%
%TO.N,unconnected-(U4-Q2-Pad9)*%
X164375000Y-98730000D03*
%TO.P,U4,10*%
%TO.N,unconnected-(U4-Pad10)*%
X164375000Y-97460000D03*
%TO.P,U4,11,Q1*%
%TO.N,unconnected-(U4-Q1-Pad11)*%
X164375000Y-96190000D03*
%TO.P,U4,12,Q0*%
%TO.N,unconnected-(U4-Q0-Pad12)*%
X164375000Y-94920000D03*
%TO.P,U4,13*%
%TO.N,unconnected-(U4-Pad13)*%
X164375000Y-93650000D03*
%TO.P,U4,14,VCC*%
%TO.N,unconnected-(U4-VCC-Pad14)*%
X164375000Y-92380000D03*
%TD*%
D12*
%TO.P,U5,1,COMP*%
%TO.N,unconnected-(U5-COMP-Pad1)*%
X125200000Y-97850000D03*
%TO.P,U5,2,FB*%
%TO.N,unconnected-(U5-FB-Pad2)*%
X125200000Y-98500000D03*
%TO.P,U5,3,EN*%
%TO.N,unconnected-(U5-EN-Pad3)*%
X125200000Y-99150000D03*
%TO.P,U5,4,GND*%
%TO.N,unconnected-(U5-GND-Pad4)*%
X125200000Y-99800000D03*
%TO.P,U5,5,SW*%
%TO.N,unconnected-(U5-SW-Pad5)*%
X130925000Y-99800000D03*
%TO.P,U5,6,VIN*%
%TO.N,unconnected-(U5-VIN-Pad6)*%
X130925000Y-99150000D03*
%TO.P,U5,7,FREQ*%
%TO.N,unconnected-(U5-FREQ-Pad7)*%
X130925000Y-98500000D03*
%TO.P,U5,8,SS*%
%TO.N,unconnected-(U5-SS-Pad8)*%
X130925000Y-97850000D03*
%TD*%
D47*
%TO.P,U9,1,P0.1*%
%TO.N,unconnected-(U9-P0.1-Pad1)*%
X169250000Y-116550000D03*
D48*
%TO.P,U9,2,P0.0*%
%TO.N,unconnected-(U9-P0.0-Pad2)*%
X168950000Y-117050000D03*
%TO.P,U9,3,GND*%
%TO.N,Net-(U9-GND-Pad12)*%
X168950000Y-117550000D03*
%TO.P,U9,4,VDD*%
%TO.N,unconnected-(U9-VDD-Pad4)*%
X168950000Y-118050000D03*
%TO.P,U9,5,RSTb/C2CK*%
%TO.N,unconnected-(U9-RSTb{slash}C2CK-Pad5)*%
X168950000Y-118550000D03*
D47*
%TO.P,U9,6,P2.0/C2D*%
%TO.N,unconnected-(U9-P2.0{slash}C2D-Pad6)*%
X169250000Y-119050000D03*
D49*
%TO.P,U9,7,P1.6*%
%TO.N,unconnected-(U9-P1.6-Pad7)*%
X169750000Y-119350000D03*
%TO.P,U9,8,P1.5*%
%TO.N,unconnected-(U9-P1.5-Pad8)*%
X170250000Y-119350000D03*
%TO.P,U9,9,P1.4*%
%TO.N,unconnected-(U9-P1.4-Pad9)*%
X170750000Y-119350000D03*
%TO.P,U9,10,P1.3*%
%TO.N,unconnected-(U9-P1.3-Pad10)*%
X171250000Y-119350000D03*
D47*
%TO.P,U9,11,P1.2*%
%TO.N,unconnected-(U9-P1.2-Pad11)*%
X171750000Y-119050000D03*
D48*
%TO.P,U9,12,GND*%
%TO.N,Net-(U9-GND-Pad12)*%
X172050000Y-118550000D03*
%TO.P,U9,13,P1.1*%
%TO.N,unconnected-(U9-P1.1-Pad13)*%
X172050000Y-118050000D03*
%TO.P,U9,14,P1.0*%
%TO.N,unconnected-(U9-P1.0-Pad14)*%
X172050000Y-117550000D03*
%TO.P,U9,15,P0.7*%
%TO.N,unconnected-(U9-P0.7-Pad15)*%
X172050000Y-117050000D03*
D47*
%TO.P,U9,16,P0.6*%
%TO.N,unconnected-(U9-P0.6-Pad16)*%
X171750000Y-116550000D03*
D49*
%TO.P,U9,17,P0.5*%
%TO.N,unconnected-(U9-P0.5-Pad17)*%
X171250000Y-116250000D03*
%TO.P,U9,18,P0.4*%
%TO.N,unconnected-(U9-P0.4-Pad18)*%
X170750000Y-116250000D03*
%TO.P,U9,19,P0.3*%
%TO.N,unconnected-(U9-P0.3-Pad19)*%
X170250000Y-116250000D03*
%TO.P,U9,20,P0.2*%
%TO.N,unconnected-(U9-P0.2-Pad20)*%
X169750000Y-116250000D03*
D50*
%TO.P,U9,21,GND*%
%TO.N,Net-(U9-GND-Pad12)*%
X170500000Y-117800000D03*
%TD*%
D51*
%TO.P,SW2,1,1*%
%TO.N,unconnected-(SW2-Pad1)*%
X226475000Y-109325000D03*
X235375000Y-109325000D03*
%TO.P,SW2,2,2*%
%TO.N,unconnected-(SW2-Pad2)*%
X226475000Y-113325000D03*
X235375000Y-113325000D03*
%TD*%
D52*
%TO.P,R7,1*%
%TO.N,unconnected-(R7-Pad1)*%
X179200000Y-56700000D03*
%TO.P,R7,2*%
%TO.N,unconnected-(R7-Pad2)*%
X183825000Y-56700000D03*
%TD*%
D22*
%TO.P,U10,1,GND*%
%TO.N,unconnected-(U10-GND-Pad1)*%
X174880000Y-77500000D03*
D23*
%TO.P,U10,2,CMRR*%
%TO.N,unconnected-(U10-CMRR-Pad2)*%
X174880000Y-80040000D03*
%TO.P,U10,3,-*%
%TO.N,unconnected-(U10---Pad3)*%
X174880000Y-82580000D03*
%TO.P,U10,4,V-*%
%TO.N,unconnected-(U10-V--Pad4)*%
X174880000Y-85120000D03*
%TO.P,U10,5,V+*%
%TO.N,unconnected-(U10-V+-Pad5)*%
X182500000Y-85120000D03*
%TO.P,U10,6,+*%
%TO.N,unconnected-(U10-+-Pad6)*%
X182500000Y-82580000D03*
%TO.P,U10,7,COMP*%
%TO.N,unconnected-(U10-COMP-Pad7)*%
X182500000Y-80040000D03*
%TO.P,U10,8*%
%TO.N,unconnected-(U10-Pad8)*%
X182500000Y-77500000D03*
%TD*%
D12*
%TO.P,U8,1,IS-*%
%TO.N,Net-(U8-IS--Pad1)*%
X169225000Y-94525000D03*
%TO.P,U8,2,IS-*%
X169225000Y-95175000D03*
%TO.P,U8,3,IS-*%
X169225000Y-95825000D03*
%TO.P,U8,4,SH-*%
%TO.N,unconnected-(U8-SH--Pad4)*%
X169225000Y-96475000D03*
%TO.P,U8,5,IN-*%
%TO.N,unconnected-(U8-IN--Pad5)*%
X169225000Y-97125000D03*
%TO.P,U8,6,GND*%
%TO.N,Net-(U8-GND-Pad15)*%
X169225000Y-97775000D03*
%TO.P,U8,7,DNC1*%
%TO.N,unconnected-(U8-DNC1-Pad7)*%
X169225000Y-98425000D03*
%TO.P,U8,8,NC*%
%TO.N,unconnected-(U8-NC-Pad8)*%
X169225000Y-99075000D03*
%TO.P,U8,9,VS*%
%TO.N,unconnected-(U8-VS-Pad9)*%
X169225000Y-99725000D03*
%TO.P,U8,10,REF2*%
%TO.N,unconnected-(U8-REF2-Pad10)*%
X169225000Y-100375000D03*
%TO.P,U8,11,REF1*%
%TO.N,unconnected-(U8-REF1-Pad11)*%
X174950000Y-100375000D03*
%TO.P,U8,12,NC*%
%TO.N,unconnected-(U8-NC-Pad12)*%
X174950000Y-99725000D03*
%TO.P,U8,13,OUT*%
%TO.N,unconnected-(U8-OUT-Pad13)*%
X174950000Y-99075000D03*
%TO.P,U8,14,DNC2*%
%TO.N,unconnected-(U8-DNC2-Pad14)*%
X174950000Y-98425000D03*
%TO.P,U8,15,GND*%
%TO.N,Net-(U8-GND-Pad15)*%
X174950000Y-97775000D03*
%TO.P,U8,16,IN+*%
%TO.N,unconnected-(U8-IN+-Pad16)*%
X174950000Y-97125000D03*
%TO.P,U8,17,SH+*%
%TO.N,unconnected-(U8-SH+-Pad17)*%
X174950000Y-96475000D03*
%TO.P,U8,18,IS+*%
%TO.N,Net-(U8-IS+-Pad18)*%
X174950000Y-95825000D03*
%TO.P,U8,19,IS+*%
X174950000Y-95175000D03*
%TO.P,U8,20,IS+*%
X174950000Y-94525000D03*
%TD*%
D22*
%TO.P,U11,1,BYPASS*%
%TO.N,unconnected-(U11-BYPASS-Pad1)*%
X162380000Y-69760000D03*
D23*
%TO.P,U11,2,+*%
%TO.N,unconnected-(U11-+-Pad2)*%
X162380000Y-72300000D03*
%TO.P,U11,3,GND*%
%TO.N,Net-(U11-GND-Pad10)*%
X162380000Y-74840000D03*
%TO.P,U11,4,GND*%
X162380000Y-77380000D03*
%TO.P,U11,5,GND*%
X162380000Y-79920000D03*
%TO.P,U11,6,-*%
%TO.N,unconnected-(U11---Pad6)*%
X162380000Y-82460000D03*
%TO.P,U11,7,GND*%
%TO.N,unconnected-(U11-GND-Pad7)*%
X162380000Y-85000000D03*
%TO.P,U11,8*%
%TO.N,unconnected-(U11-Pad8)*%
X170000000Y-85000000D03*
%TO.P,U11,9,NC*%
%TO.N,unconnected-(U11-NC-Pad9)*%
X170000000Y-82460000D03*
%TO.P,U11,10,GND*%
%TO.N,Net-(U11-GND-Pad10)*%
X170000000Y-79920000D03*
%TO.P,U11,11,GND*%
X170000000Y-77380000D03*
%TO.P,U11,12,GND*%
X170000000Y-74840000D03*
%TO.P,U11,13,NC*%
%TO.N,unconnected-(U11-NC-Pad13)*%
X170000000Y-72300000D03*
%TO.P,U11,14,VS*%
%TO.N,unconnected-(U11-VS-Pad14)*%
X170000000Y-69760000D03*
%TD*%
D53*
%TO.P,U15,1,ADJ*%
%TO.N,unconnected-(U15-ADJ-Pad1)*%
X248050000Y-79050000D03*
D54*
%TO.P,U15,2,VO*%
%TO.N,unconnected-(U15-VO-Pad2)*%
X248137500Y-80550000D03*
D53*
%TO.P,U15,3,VI*%
%TO.N,unconnected-(U15-VI-Pad3)*%
X248050000Y-82050000D03*
%TD*%
D55*
%TO.P,D2,1,K*%
%TO.N,unconnected-(D2-K-Pad1)*%
X244750000Y-98675000D03*
%TO.P,D2,2,A*%
%TO.N,unconnected-(D2-A-Pad2)*%
X248750000Y-98675000D03*
%TD*%
M02*
