%TF.GenerationSoftware,KiCad,Pcbnew,9.0.7*%
%TF.CreationDate,2026-04-17T18:02:25-07:00*%
%TF.ProjectId,Footprint Cheat Sheet,466f6f74-7072-4696-9e74-204368656174,rev?*%
%TF.SameCoordinates,Original*%
%TF.FileFunction,Legend,Top*%
%TF.FilePolarity,Positive*%
%FSLAX46Y46*%
G04 Gerber Fmt 4.6, Leading zero omitted, Abs format (unit mm)*
G04 Created by KiCad (PCBNEW 9.0.7) date 2026-04-17 18:02:25*
%MOMM*%
%LPD*%
G01*
G04 APERTURE LIST*
%ADD10C,0.100000*%
%ADD11C,0.200000*%
%ADD12C,0.150000*%
%ADD13C,0.120000*%
G04 APERTURE END LIST*
D10*
X120275000Y-48650000D02*
X257325000Y-48650000D01*
X257325000Y-130825000D01*
X120275000Y-130825000D01*
X120275000Y-48650000D01*
X241953884Y-129272419D02*
X241953884Y-128272419D01*
X241953884Y-128272419D02*
X242287217Y-128986704D01*
X242287217Y-128986704D02*
X242620550Y-128272419D01*
X242620550Y-128272419D02*
X242620550Y-129272419D01*
X243525312Y-129272419D02*
X243525312Y-128748609D01*
X243525312Y-128748609D02*
X243477693Y-128653371D01*
X243477693Y-128653371D02*
X243382455Y-128605752D01*
X243382455Y-128605752D02*
X243191979Y-128605752D01*
X243191979Y-128605752D02*
X243096741Y-128653371D01*
X243525312Y-129224800D02*
X243430074Y-129272419D01*
X243430074Y-129272419D02*
X243191979Y-129272419D01*
X243191979Y-129272419D02*
X243096741Y-129224800D01*
X243096741Y-129224800D02*
X243049122Y-129129561D01*
X243049122Y-129129561D02*
X243049122Y-129034323D01*
X243049122Y-129034323D02*
X243096741Y-128939085D01*
X243096741Y-128939085D02*
X243191979Y-128891466D01*
X243191979Y-128891466D02*
X243430074Y-128891466D01*
X243430074Y-128891466D02*
X243525312Y-128843847D01*
X244430074Y-129272419D02*
X244430074Y-128272419D01*
X244430074Y-129224800D02*
X244334836Y-129272419D01*
X244334836Y-129272419D02*
X244144360Y-129272419D01*
X244144360Y-129272419D02*
X244049122Y-129224800D01*
X244049122Y-129224800D02*
X244001503Y-129177180D01*
X244001503Y-129177180D02*
X243953884Y-129081942D01*
X243953884Y-129081942D02*
X243953884Y-128796228D01*
X243953884Y-128796228D02*
X244001503Y-128700990D01*
X244001503Y-128700990D02*
X244049122Y-128653371D01*
X244049122Y-128653371D02*
X244144360Y-128605752D01*
X244144360Y-128605752D02*
X244334836Y-128605752D01*
X244334836Y-128605752D02*
X244430074Y-128653371D01*
X245287217Y-129224800D02*
X245191979Y-129272419D01*
X245191979Y-129272419D02*
X245001503Y-129272419D01*
X245001503Y-129272419D02*
X244906265Y-129224800D01*
X244906265Y-129224800D02*
X244858646Y-129129561D01*
X244858646Y-129129561D02*
X244858646Y-128748609D01*
X244858646Y-128748609D02*
X244906265Y-128653371D01*
X244906265Y-128653371D02*
X245001503Y-128605752D01*
X245001503Y-128605752D02*
X245191979Y-128605752D01*
X245191979Y-128605752D02*
X245287217Y-128653371D01*
X245287217Y-128653371D02*
X245334836Y-128748609D01*
X245334836Y-128748609D02*
X245334836Y-128843847D01*
X245334836Y-128843847D02*
X244858646Y-128939085D01*
X246525313Y-129272419D02*
X246525313Y-128272419D01*
X246525313Y-128653371D02*
X246620551Y-128605752D01*
X246620551Y-128605752D02*
X246811027Y-128605752D01*
X246811027Y-128605752D02*
X246906265Y-128653371D01*
X246906265Y-128653371D02*
X246953884Y-128700990D01*
X246953884Y-128700990D02*
X247001503Y-128796228D01*
X247001503Y-128796228D02*
X247001503Y-129081942D01*
X247001503Y-129081942D02*
X246953884Y-129177180D01*
X246953884Y-129177180D02*
X246906265Y-129224800D01*
X246906265Y-129224800D02*
X246811027Y-129272419D01*
X246811027Y-129272419D02*
X246620551Y-129272419D01*
X246620551Y-129272419D02*
X246525313Y-129224800D01*
X247334837Y-128605752D02*
X247572932Y-129272419D01*
X247811027Y-128605752D02*
X247572932Y-129272419D01*
X247572932Y-129272419D02*
X247477694Y-129510514D01*
X247477694Y-129510514D02*
X247430075Y-129558133D01*
X247430075Y-129558133D02*
X247334837Y-129605752D01*
X248191980Y-129177180D02*
X248239599Y-129224800D01*
X248239599Y-129224800D02*
X248191980Y-129272419D01*
X248191980Y-129272419D02*
X248144361Y-129224800D01*
X248144361Y-129224800D02*
X248191980Y-129177180D01*
X248191980Y-129177180D02*
X248191980Y-129272419D01*
X248191980Y-128653371D02*
X248239599Y-128700990D01*
X248239599Y-128700990D02*
X248191980Y-128748609D01*
X248191980Y-128748609D02*
X248144361Y-128700990D01*
X248144361Y-128700990D02*
X248191980Y-128653371D01*
X248191980Y-128653371D02*
X248191980Y-128748609D01*
X249382456Y-128986704D02*
X249858646Y-128986704D01*
X249287218Y-129272419D02*
X249620551Y-128272419D01*
X249620551Y-128272419D02*
X249953884Y-129272419D01*
X250715789Y-129272419D02*
X250715789Y-128748609D01*
X250715789Y-128748609D02*
X250668170Y-128653371D01*
X250668170Y-128653371D02*
X250572932Y-128605752D01*
X250572932Y-128605752D02*
X250382456Y-128605752D01*
X250382456Y-128605752D02*
X250287218Y-128653371D01*
X250715789Y-129224800D02*
X250620551Y-129272419D01*
X250620551Y-129272419D02*
X250382456Y-129272419D01*
X250382456Y-129272419D02*
X250287218Y-129224800D01*
X250287218Y-129224800D02*
X250239599Y-129129561D01*
X250239599Y-129129561D02*
X250239599Y-129034323D01*
X250239599Y-129034323D02*
X250287218Y-128939085D01*
X250287218Y-128939085D02*
X250382456Y-128891466D01*
X250382456Y-128891466D02*
X250620551Y-128891466D01*
X250620551Y-128891466D02*
X250715789Y-128843847D01*
X251620551Y-129272419D02*
X251620551Y-128272419D01*
X251620551Y-129224800D02*
X251525313Y-129272419D01*
X251525313Y-129272419D02*
X251334837Y-129272419D01*
X251334837Y-129272419D02*
X251239599Y-129224800D01*
X251239599Y-129224800D02*
X251191980Y-129177180D01*
X251191980Y-129177180D02*
X251144361Y-129081942D01*
X251144361Y-129081942D02*
X251144361Y-128796228D01*
X251144361Y-128796228D02*
X251191980Y-128700990D01*
X251191980Y-128700990D02*
X251239599Y-128653371D01*
X251239599Y-128653371D02*
X251334837Y-128605752D01*
X251334837Y-128605752D02*
X251525313Y-128605752D01*
X251525313Y-128605752D02*
X251620551Y-128653371D01*
X252096742Y-129272419D02*
X252096742Y-128605752D01*
X252096742Y-128272419D02*
X252049123Y-128320038D01*
X252049123Y-128320038D02*
X252096742Y-128367657D01*
X252096742Y-128367657D02*
X252144361Y-128320038D01*
X252144361Y-128320038D02*
X252096742Y-128272419D01*
X252096742Y-128272419D02*
X252096742Y-128367657D01*
X252430075Y-128605752D02*
X252811027Y-128605752D01*
X252572932Y-128272419D02*
X252572932Y-129129561D01*
X252572932Y-129129561D02*
X252620551Y-129224800D01*
X252620551Y-129224800D02*
X252715789Y-129272419D01*
X252715789Y-129272419D02*
X252811027Y-129272419D01*
X253049123Y-128605752D02*
X253287218Y-129272419D01*
X253525313Y-128605752D02*
X253287218Y-129272419D01*
X253287218Y-129272419D02*
X253191980Y-129510514D01*
X253191980Y-129510514D02*
X253144361Y-129558133D01*
X253144361Y-129558133D02*
X253049123Y-129605752D01*
X254334837Y-129272419D02*
X254334837Y-128748609D01*
X254334837Y-128748609D02*
X254287218Y-128653371D01*
X254287218Y-128653371D02*
X254191980Y-128605752D01*
X254191980Y-128605752D02*
X254001504Y-128605752D01*
X254001504Y-128605752D02*
X253906266Y-128653371D01*
X254334837Y-129224800D02*
X254239599Y-129272419D01*
X254239599Y-129272419D02*
X254001504Y-129272419D01*
X254001504Y-129272419D02*
X253906266Y-129224800D01*
X253906266Y-129224800D02*
X253858647Y-129129561D01*
X253858647Y-129129561D02*
X253858647Y-129034323D01*
X253858647Y-129034323D02*
X253906266Y-128939085D01*
X253906266Y-128939085D02*
X254001504Y-128891466D01*
X254001504Y-128891466D02*
X254239599Y-128891466D01*
X254239599Y-128891466D02*
X254334837Y-128843847D01*
D11*
X189475625Y-123729361D02*
X189380387Y-123824600D01*
X189380387Y-123824600D02*
X189094673Y-123919838D01*
X189094673Y-123919838D02*
X188904197Y-123919838D01*
X188904197Y-123919838D02*
X188618482Y-123824600D01*
X188618482Y-123824600D02*
X188428006Y-123634123D01*
X188428006Y-123634123D02*
X188332768Y-123443647D01*
X188332768Y-123443647D02*
X188237530Y-123062695D01*
X188237530Y-123062695D02*
X188237530Y-122776980D01*
X188237530Y-122776980D02*
X188332768Y-122396028D01*
X188332768Y-122396028D02*
X188428006Y-122205552D01*
X188428006Y-122205552D02*
X188618482Y-122015076D01*
X188618482Y-122015076D02*
X188904197Y-121919838D01*
X188904197Y-121919838D02*
X189094673Y-121919838D01*
X189094673Y-121919838D02*
X189380387Y-122015076D01*
X189380387Y-122015076D02*
X189475625Y-122110314D01*
X190618482Y-123919838D02*
X190428006Y-123824600D01*
X190428006Y-123824600D02*
X190332768Y-123729361D01*
X190332768Y-123729361D02*
X190237530Y-123538885D01*
X190237530Y-123538885D02*
X190237530Y-122967457D01*
X190237530Y-122967457D02*
X190332768Y-122776980D01*
X190332768Y-122776980D02*
X190428006Y-122681742D01*
X190428006Y-122681742D02*
X190618482Y-122586504D01*
X190618482Y-122586504D02*
X190904197Y-122586504D01*
X190904197Y-122586504D02*
X191094673Y-122681742D01*
X191094673Y-122681742D02*
X191189911Y-122776980D01*
X191189911Y-122776980D02*
X191285149Y-122967457D01*
X191285149Y-122967457D02*
X191285149Y-123538885D01*
X191285149Y-123538885D02*
X191189911Y-123729361D01*
X191189911Y-123729361D02*
X191094673Y-123824600D01*
X191094673Y-123824600D02*
X190904197Y-123919838D01*
X190904197Y-123919838D02*
X190618482Y-123919838D01*
X192142292Y-123919838D02*
X192142292Y-122586504D01*
X192142292Y-122776980D02*
X192237530Y-122681742D01*
X192237530Y-122681742D02*
X192428006Y-122586504D01*
X192428006Y-122586504D02*
X192713721Y-122586504D01*
X192713721Y-122586504D02*
X192904197Y-122681742D01*
X192904197Y-122681742D02*
X192999435Y-122872219D01*
X192999435Y-122872219D02*
X192999435Y-123919838D01*
X192999435Y-122872219D02*
X193094673Y-122681742D01*
X193094673Y-122681742D02*
X193285149Y-122586504D01*
X193285149Y-122586504D02*
X193570863Y-122586504D01*
X193570863Y-122586504D02*
X193761340Y-122681742D01*
X193761340Y-122681742D02*
X193856578Y-122872219D01*
X193856578Y-122872219D02*
X193856578Y-123919838D01*
X194808959Y-123919838D02*
X194808959Y-122586504D01*
X194808959Y-122776980D02*
X194904197Y-122681742D01*
X194904197Y-122681742D02*
X195094673Y-122586504D01*
X195094673Y-122586504D02*
X195380388Y-122586504D01*
X195380388Y-122586504D02*
X195570864Y-122681742D01*
X195570864Y-122681742D02*
X195666102Y-122872219D01*
X195666102Y-122872219D02*
X195666102Y-123919838D01*
X195666102Y-122872219D02*
X195761340Y-122681742D01*
X195761340Y-122681742D02*
X195951816Y-122586504D01*
X195951816Y-122586504D02*
X196237530Y-122586504D01*
X196237530Y-122586504D02*
X196428007Y-122681742D01*
X196428007Y-122681742D02*
X196523245Y-122872219D01*
X196523245Y-122872219D02*
X196523245Y-123919838D01*
X197761340Y-123919838D02*
X197570864Y-123824600D01*
X197570864Y-123824600D02*
X197475626Y-123729361D01*
X197475626Y-123729361D02*
X197380388Y-123538885D01*
X197380388Y-123538885D02*
X197380388Y-122967457D01*
X197380388Y-122967457D02*
X197475626Y-122776980D01*
X197475626Y-122776980D02*
X197570864Y-122681742D01*
X197570864Y-122681742D02*
X197761340Y-122586504D01*
X197761340Y-122586504D02*
X198047055Y-122586504D01*
X198047055Y-122586504D02*
X198237531Y-122681742D01*
X198237531Y-122681742D02*
X198332769Y-122776980D01*
X198332769Y-122776980D02*
X198428007Y-122967457D01*
X198428007Y-122967457D02*
X198428007Y-123538885D01*
X198428007Y-123538885D02*
X198332769Y-123729361D01*
X198332769Y-123729361D02*
X198237531Y-123824600D01*
X198237531Y-123824600D02*
X198047055Y-123919838D01*
X198047055Y-123919838D02*
X197761340Y-123919838D01*
X199285150Y-122586504D02*
X199285150Y-123919838D01*
X199285150Y-122776980D02*
X199380388Y-122681742D01*
X199380388Y-122681742D02*
X199570864Y-122586504D01*
X199570864Y-122586504D02*
X199856579Y-122586504D01*
X199856579Y-122586504D02*
X200047055Y-122681742D01*
X200047055Y-122681742D02*
X200142293Y-122872219D01*
X200142293Y-122872219D02*
X200142293Y-123919838D01*
X202618484Y-123919838D02*
X202618484Y-121919838D01*
X202618484Y-121919838D02*
X203380389Y-121919838D01*
X203380389Y-121919838D02*
X203570865Y-122015076D01*
X203570865Y-122015076D02*
X203666103Y-122110314D01*
X203666103Y-122110314D02*
X203761341Y-122300790D01*
X203761341Y-122300790D02*
X203761341Y-122586504D01*
X203761341Y-122586504D02*
X203666103Y-122776980D01*
X203666103Y-122776980D02*
X203570865Y-122872219D01*
X203570865Y-122872219D02*
X203380389Y-122967457D01*
X203380389Y-122967457D02*
X202618484Y-122967457D01*
X205761341Y-123729361D02*
X205666103Y-123824600D01*
X205666103Y-123824600D02*
X205380389Y-123919838D01*
X205380389Y-123919838D02*
X205189913Y-123919838D01*
X205189913Y-123919838D02*
X204904198Y-123824600D01*
X204904198Y-123824600D02*
X204713722Y-123634123D01*
X204713722Y-123634123D02*
X204618484Y-123443647D01*
X204618484Y-123443647D02*
X204523246Y-123062695D01*
X204523246Y-123062695D02*
X204523246Y-122776980D01*
X204523246Y-122776980D02*
X204618484Y-122396028D01*
X204618484Y-122396028D02*
X204713722Y-122205552D01*
X204713722Y-122205552D02*
X204904198Y-122015076D01*
X204904198Y-122015076D02*
X205189913Y-121919838D01*
X205189913Y-121919838D02*
X205380389Y-121919838D01*
X205380389Y-121919838D02*
X205666103Y-122015076D01*
X205666103Y-122015076D02*
X205761341Y-122110314D01*
X207285151Y-122872219D02*
X207570865Y-122967457D01*
X207570865Y-122967457D02*
X207666103Y-123062695D01*
X207666103Y-123062695D02*
X207761341Y-123253171D01*
X207761341Y-123253171D02*
X207761341Y-123538885D01*
X207761341Y-123538885D02*
X207666103Y-123729361D01*
X207666103Y-123729361D02*
X207570865Y-123824600D01*
X207570865Y-123824600D02*
X207380389Y-123919838D01*
X207380389Y-123919838D02*
X206618484Y-123919838D01*
X206618484Y-123919838D02*
X206618484Y-121919838D01*
X206618484Y-121919838D02*
X207285151Y-121919838D01*
X207285151Y-121919838D02*
X207475627Y-122015076D01*
X207475627Y-122015076D02*
X207570865Y-122110314D01*
X207570865Y-122110314D02*
X207666103Y-122300790D01*
X207666103Y-122300790D02*
X207666103Y-122491266D01*
X207666103Y-122491266D02*
X207570865Y-122681742D01*
X207570865Y-122681742D02*
X207475627Y-122776980D01*
X207475627Y-122776980D02*
X207285151Y-122872219D01*
X207285151Y-122872219D02*
X206618484Y-122872219D01*
X210808961Y-122872219D02*
X210142294Y-122872219D01*
X210142294Y-123919838D02*
X210142294Y-121919838D01*
X210142294Y-121919838D02*
X211094675Y-121919838D01*
X212142294Y-123919838D02*
X211951818Y-123824600D01*
X211951818Y-123824600D02*
X211856580Y-123729361D01*
X211856580Y-123729361D02*
X211761342Y-123538885D01*
X211761342Y-123538885D02*
X211761342Y-122967457D01*
X211761342Y-122967457D02*
X211856580Y-122776980D01*
X211856580Y-122776980D02*
X211951818Y-122681742D01*
X211951818Y-122681742D02*
X212142294Y-122586504D01*
X212142294Y-122586504D02*
X212428009Y-122586504D01*
X212428009Y-122586504D02*
X212618485Y-122681742D01*
X212618485Y-122681742D02*
X212713723Y-122776980D01*
X212713723Y-122776980D02*
X212808961Y-122967457D01*
X212808961Y-122967457D02*
X212808961Y-123538885D01*
X212808961Y-123538885D02*
X212713723Y-123729361D01*
X212713723Y-123729361D02*
X212618485Y-123824600D01*
X212618485Y-123824600D02*
X212428009Y-123919838D01*
X212428009Y-123919838D02*
X212142294Y-123919838D01*
X213951818Y-123919838D02*
X213761342Y-123824600D01*
X213761342Y-123824600D02*
X213666104Y-123729361D01*
X213666104Y-123729361D02*
X213570866Y-123538885D01*
X213570866Y-123538885D02*
X213570866Y-122967457D01*
X213570866Y-122967457D02*
X213666104Y-122776980D01*
X213666104Y-122776980D02*
X213761342Y-122681742D01*
X213761342Y-122681742D02*
X213951818Y-122586504D01*
X213951818Y-122586504D02*
X214237533Y-122586504D01*
X214237533Y-122586504D02*
X214428009Y-122681742D01*
X214428009Y-122681742D02*
X214523247Y-122776980D01*
X214523247Y-122776980D02*
X214618485Y-122967457D01*
X214618485Y-122967457D02*
X214618485Y-123538885D01*
X214618485Y-123538885D02*
X214523247Y-123729361D01*
X214523247Y-123729361D02*
X214428009Y-123824600D01*
X214428009Y-123824600D02*
X214237533Y-123919838D01*
X214237533Y-123919838D02*
X213951818Y-123919838D01*
X215189914Y-122586504D02*
X215951818Y-122586504D01*
X215475628Y-121919838D02*
X215475628Y-123634123D01*
X215475628Y-123634123D02*
X215570866Y-123824600D01*
X215570866Y-123824600D02*
X215761342Y-123919838D01*
X215761342Y-123919838D02*
X215951818Y-123919838D01*
X216618485Y-122586504D02*
X216618485Y-124586504D01*
X216618485Y-122681742D02*
X216808961Y-122586504D01*
X216808961Y-122586504D02*
X217189914Y-122586504D01*
X217189914Y-122586504D02*
X217380390Y-122681742D01*
X217380390Y-122681742D02*
X217475628Y-122776980D01*
X217475628Y-122776980D02*
X217570866Y-122967457D01*
X217570866Y-122967457D02*
X217570866Y-123538885D01*
X217570866Y-123538885D02*
X217475628Y-123729361D01*
X217475628Y-123729361D02*
X217380390Y-123824600D01*
X217380390Y-123824600D02*
X217189914Y-123919838D01*
X217189914Y-123919838D02*
X216808961Y-123919838D01*
X216808961Y-123919838D02*
X216618485Y-123824600D01*
X218428009Y-123919838D02*
X218428009Y-122586504D01*
X218428009Y-122967457D02*
X218523247Y-122776980D01*
X218523247Y-122776980D02*
X218618485Y-122681742D01*
X218618485Y-122681742D02*
X218808961Y-122586504D01*
X218808961Y-122586504D02*
X218999438Y-122586504D01*
X219666104Y-123919838D02*
X219666104Y-122586504D01*
X219666104Y-121919838D02*
X219570866Y-122015076D01*
X219570866Y-122015076D02*
X219666104Y-122110314D01*
X219666104Y-122110314D02*
X219761342Y-122015076D01*
X219761342Y-122015076D02*
X219666104Y-121919838D01*
X219666104Y-121919838D02*
X219666104Y-122110314D01*
X220618485Y-122586504D02*
X220618485Y-123919838D01*
X220618485Y-122776980D02*
X220713723Y-122681742D01*
X220713723Y-122681742D02*
X220904199Y-122586504D01*
X220904199Y-122586504D02*
X221189914Y-122586504D01*
X221189914Y-122586504D02*
X221380390Y-122681742D01*
X221380390Y-122681742D02*
X221475628Y-122872219D01*
X221475628Y-122872219D02*
X221475628Y-123919838D01*
X222142295Y-122586504D02*
X222904199Y-122586504D01*
X222428009Y-121919838D02*
X222428009Y-123634123D01*
X222428009Y-123634123D02*
X222523247Y-123824600D01*
X222523247Y-123824600D02*
X222713723Y-123919838D01*
X222713723Y-123919838D02*
X222904199Y-123919838D01*
X223475628Y-123824600D02*
X223666104Y-123919838D01*
X223666104Y-123919838D02*
X224047056Y-123919838D01*
X224047056Y-123919838D02*
X224237533Y-123824600D01*
X224237533Y-123824600D02*
X224332771Y-123634123D01*
X224332771Y-123634123D02*
X224332771Y-123538885D01*
X224332771Y-123538885D02*
X224237533Y-123348409D01*
X224237533Y-123348409D02*
X224047056Y-123253171D01*
X224047056Y-123253171D02*
X223761342Y-123253171D01*
X223761342Y-123253171D02*
X223570866Y-123157933D01*
X223570866Y-123157933D02*
X223475628Y-122967457D01*
X223475628Y-122967457D02*
X223475628Y-122872219D01*
X223475628Y-122872219D02*
X223570866Y-122681742D01*
X223570866Y-122681742D02*
X223761342Y-122586504D01*
X223761342Y-122586504D02*
X224047056Y-122586504D01*
X224047056Y-122586504D02*
X224237533Y-122681742D01*
X227856581Y-123729361D02*
X227761343Y-123824600D01*
X227761343Y-123824600D02*
X227475629Y-123919838D01*
X227475629Y-123919838D02*
X227285153Y-123919838D01*
X227285153Y-123919838D02*
X226999438Y-123824600D01*
X226999438Y-123824600D02*
X226808962Y-123634123D01*
X226808962Y-123634123D02*
X226713724Y-123443647D01*
X226713724Y-123443647D02*
X226618486Y-123062695D01*
X226618486Y-123062695D02*
X226618486Y-122776980D01*
X226618486Y-122776980D02*
X226713724Y-122396028D01*
X226713724Y-122396028D02*
X226808962Y-122205552D01*
X226808962Y-122205552D02*
X226999438Y-122015076D01*
X226999438Y-122015076D02*
X227285153Y-121919838D01*
X227285153Y-121919838D02*
X227475629Y-121919838D01*
X227475629Y-121919838D02*
X227761343Y-122015076D01*
X227761343Y-122015076D02*
X227856581Y-122110314D01*
X228713724Y-123919838D02*
X228713724Y-121919838D01*
X229570867Y-123919838D02*
X229570867Y-122872219D01*
X229570867Y-122872219D02*
X229475629Y-122681742D01*
X229475629Y-122681742D02*
X229285153Y-122586504D01*
X229285153Y-122586504D02*
X228999438Y-122586504D01*
X228999438Y-122586504D02*
X228808962Y-122681742D01*
X228808962Y-122681742D02*
X228713724Y-122776980D01*
X231285153Y-123824600D02*
X231094677Y-123919838D01*
X231094677Y-123919838D02*
X230713724Y-123919838D01*
X230713724Y-123919838D02*
X230523248Y-123824600D01*
X230523248Y-123824600D02*
X230428010Y-123634123D01*
X230428010Y-123634123D02*
X230428010Y-122872219D01*
X230428010Y-122872219D02*
X230523248Y-122681742D01*
X230523248Y-122681742D02*
X230713724Y-122586504D01*
X230713724Y-122586504D02*
X231094677Y-122586504D01*
X231094677Y-122586504D02*
X231285153Y-122681742D01*
X231285153Y-122681742D02*
X231380391Y-122872219D01*
X231380391Y-122872219D02*
X231380391Y-123062695D01*
X231380391Y-123062695D02*
X230428010Y-123253171D01*
X233094677Y-123919838D02*
X233094677Y-122872219D01*
X233094677Y-122872219D02*
X232999439Y-122681742D01*
X232999439Y-122681742D02*
X232808963Y-122586504D01*
X232808963Y-122586504D02*
X232428010Y-122586504D01*
X232428010Y-122586504D02*
X232237534Y-122681742D01*
X233094677Y-123824600D02*
X232904201Y-123919838D01*
X232904201Y-123919838D02*
X232428010Y-123919838D01*
X232428010Y-123919838D02*
X232237534Y-123824600D01*
X232237534Y-123824600D02*
X232142296Y-123634123D01*
X232142296Y-123634123D02*
X232142296Y-123443647D01*
X232142296Y-123443647D02*
X232237534Y-123253171D01*
X232237534Y-123253171D02*
X232428010Y-123157933D01*
X232428010Y-123157933D02*
X232904201Y-123157933D01*
X232904201Y-123157933D02*
X233094677Y-123062695D01*
X233761344Y-122586504D02*
X234523248Y-122586504D01*
X234047058Y-121919838D02*
X234047058Y-123634123D01*
X234047058Y-123634123D02*
X234142296Y-123824600D01*
X234142296Y-123824600D02*
X234332772Y-123919838D01*
X234332772Y-123919838D02*
X234523248Y-123919838D01*
X236618487Y-123824600D02*
X236904201Y-123919838D01*
X236904201Y-123919838D02*
X237380392Y-123919838D01*
X237380392Y-123919838D02*
X237570868Y-123824600D01*
X237570868Y-123824600D02*
X237666106Y-123729361D01*
X237666106Y-123729361D02*
X237761344Y-123538885D01*
X237761344Y-123538885D02*
X237761344Y-123348409D01*
X237761344Y-123348409D02*
X237666106Y-123157933D01*
X237666106Y-123157933D02*
X237570868Y-123062695D01*
X237570868Y-123062695D02*
X237380392Y-122967457D01*
X237380392Y-122967457D02*
X236999439Y-122872219D01*
X236999439Y-122872219D02*
X236808963Y-122776980D01*
X236808963Y-122776980D02*
X236713725Y-122681742D01*
X236713725Y-122681742D02*
X236618487Y-122491266D01*
X236618487Y-122491266D02*
X236618487Y-122300790D01*
X236618487Y-122300790D02*
X236713725Y-122110314D01*
X236713725Y-122110314D02*
X236808963Y-122015076D01*
X236808963Y-122015076D02*
X236999439Y-121919838D01*
X236999439Y-121919838D02*
X237475630Y-121919838D01*
X237475630Y-121919838D02*
X237761344Y-122015076D01*
X238618487Y-123919838D02*
X238618487Y-121919838D01*
X239475630Y-123919838D02*
X239475630Y-122872219D01*
X239475630Y-122872219D02*
X239380392Y-122681742D01*
X239380392Y-122681742D02*
X239189916Y-122586504D01*
X239189916Y-122586504D02*
X238904201Y-122586504D01*
X238904201Y-122586504D02*
X238713725Y-122681742D01*
X238713725Y-122681742D02*
X238618487Y-122776980D01*
X241189916Y-123824600D02*
X240999440Y-123919838D01*
X240999440Y-123919838D02*
X240618487Y-123919838D01*
X240618487Y-123919838D02*
X240428011Y-123824600D01*
X240428011Y-123824600D02*
X240332773Y-123634123D01*
X240332773Y-123634123D02*
X240332773Y-122872219D01*
X240332773Y-122872219D02*
X240428011Y-122681742D01*
X240428011Y-122681742D02*
X240618487Y-122586504D01*
X240618487Y-122586504D02*
X240999440Y-122586504D01*
X240999440Y-122586504D02*
X241189916Y-122681742D01*
X241189916Y-122681742D02*
X241285154Y-122872219D01*
X241285154Y-122872219D02*
X241285154Y-123062695D01*
X241285154Y-123062695D02*
X240332773Y-123253171D01*
X242904202Y-123824600D02*
X242713726Y-123919838D01*
X242713726Y-123919838D02*
X242332773Y-123919838D01*
X242332773Y-123919838D02*
X242142297Y-123824600D01*
X242142297Y-123824600D02*
X242047059Y-123634123D01*
X242047059Y-123634123D02*
X242047059Y-122872219D01*
X242047059Y-122872219D02*
X242142297Y-122681742D01*
X242142297Y-122681742D02*
X242332773Y-122586504D01*
X242332773Y-122586504D02*
X242713726Y-122586504D01*
X242713726Y-122586504D02*
X242904202Y-122681742D01*
X242904202Y-122681742D02*
X242999440Y-122872219D01*
X242999440Y-122872219D02*
X242999440Y-123062695D01*
X242999440Y-123062695D02*
X242047059Y-123253171D01*
X243570869Y-122586504D02*
X244332773Y-122586504D01*
X243856583Y-121919838D02*
X243856583Y-123634123D01*
X243856583Y-123634123D02*
X243951821Y-123824600D01*
X243951821Y-123824600D02*
X244142297Y-123919838D01*
X244142297Y-123919838D02*
X244332773Y-123919838D01*
D12*
X195280952Y-58954819D02*
X194804762Y-58954819D01*
X194804762Y-58954819D02*
X194757143Y-59431009D01*
X194757143Y-59431009D02*
X194804762Y-59383390D01*
X194804762Y-59383390D02*
X194900000Y-59335771D01*
X194900000Y-59335771D02*
X195138095Y-59335771D01*
X195138095Y-59335771D02*
X195233333Y-59383390D01*
X195233333Y-59383390D02*
X195280952Y-59431009D01*
X195280952Y-59431009D02*
X195328571Y-59526247D01*
X195328571Y-59526247D02*
X195328571Y-59764342D01*
X195328571Y-59764342D02*
X195280952Y-59859580D01*
X195280952Y-59859580D02*
X195233333Y-59907200D01*
X195233333Y-59907200D02*
X195138095Y-59954819D01*
X195138095Y-59954819D02*
X194900000Y-59954819D01*
X194900000Y-59954819D02*
X194804762Y-59907200D01*
X194804762Y-59907200D02*
X194757143Y-59859580D01*
X195947619Y-58954819D02*
X196042857Y-58954819D01*
X196042857Y-58954819D02*
X196138095Y-59002438D01*
X196138095Y-59002438D02*
X196185714Y-59050057D01*
X196185714Y-59050057D02*
X196233333Y-59145295D01*
X196233333Y-59145295D02*
X196280952Y-59335771D01*
X196280952Y-59335771D02*
X196280952Y-59573866D01*
X196280952Y-59573866D02*
X196233333Y-59764342D01*
X196233333Y-59764342D02*
X196185714Y-59859580D01*
X196185714Y-59859580D02*
X196138095Y-59907200D01*
X196138095Y-59907200D02*
X196042857Y-59954819D01*
X196042857Y-59954819D02*
X195947619Y-59954819D01*
X195947619Y-59954819D02*
X195852381Y-59907200D01*
X195852381Y-59907200D02*
X195804762Y-59859580D01*
X195804762Y-59859580D02*
X195757143Y-59764342D01*
X195757143Y-59764342D02*
X195709524Y-59573866D01*
X195709524Y-59573866D02*
X195709524Y-59335771D01*
X195709524Y-59335771D02*
X195757143Y-59145295D01*
X195757143Y-59145295D02*
X195804762Y-59050057D01*
X195804762Y-59050057D02*
X195852381Y-59002438D01*
X195852381Y-59002438D02*
X195947619Y-58954819D01*
X196614286Y-58954819D02*
X197233333Y-58954819D01*
X197233333Y-58954819D02*
X196900000Y-59335771D01*
X196900000Y-59335771D02*
X197042857Y-59335771D01*
X197042857Y-59335771D02*
X197138095Y-59383390D01*
X197138095Y-59383390D02*
X197185714Y-59431009D01*
X197185714Y-59431009D02*
X197233333Y-59526247D01*
X197233333Y-59526247D02*
X197233333Y-59764342D01*
X197233333Y-59764342D02*
X197185714Y-59859580D01*
X197185714Y-59859580D02*
X197138095Y-59907200D01*
X197138095Y-59907200D02*
X197042857Y-59954819D01*
X197042857Y-59954819D02*
X196757143Y-59954819D01*
X196757143Y-59954819D02*
X196661905Y-59907200D01*
X196661905Y-59907200D02*
X196614286Y-59859580D01*
X197614286Y-59050057D02*
X197661905Y-59002438D01*
X197661905Y-59002438D02*
X197757143Y-58954819D01*
X197757143Y-58954819D02*
X197995238Y-58954819D01*
X197995238Y-58954819D02*
X198090476Y-59002438D01*
X198090476Y-59002438D02*
X198138095Y-59050057D01*
X198138095Y-59050057D02*
X198185714Y-59145295D01*
X198185714Y-59145295D02*
X198185714Y-59240533D01*
X198185714Y-59240533D02*
X198138095Y-59383390D01*
X198138095Y-59383390D02*
X197566667Y-59954819D01*
X197566667Y-59954819D02*
X198185714Y-59954819D01*
X199328572Y-59907200D02*
X199471429Y-59954819D01*
X199471429Y-59954819D02*
X199709524Y-59954819D01*
X199709524Y-59954819D02*
X199804762Y-59907200D01*
X199804762Y-59907200D02*
X199852381Y-59859580D01*
X199852381Y-59859580D02*
X199900000Y-59764342D01*
X199900000Y-59764342D02*
X199900000Y-59669104D01*
X199900000Y-59669104D02*
X199852381Y-59573866D01*
X199852381Y-59573866D02*
X199804762Y-59526247D01*
X199804762Y-59526247D02*
X199709524Y-59478628D01*
X199709524Y-59478628D02*
X199519048Y-59431009D01*
X199519048Y-59431009D02*
X199423810Y-59383390D01*
X199423810Y-59383390D02*
X199376191Y-59335771D01*
X199376191Y-59335771D02*
X199328572Y-59240533D01*
X199328572Y-59240533D02*
X199328572Y-59145295D01*
X199328572Y-59145295D02*
X199376191Y-59050057D01*
X199376191Y-59050057D02*
X199423810Y-59002438D01*
X199423810Y-59002438D02*
X199519048Y-58954819D01*
X199519048Y-58954819D02*
X199757143Y-58954819D01*
X199757143Y-58954819D02*
X199900000Y-59002438D01*
X200328572Y-59954819D02*
X200328572Y-58954819D01*
X200328572Y-58954819D02*
X200661905Y-59669104D01*
X200661905Y-59669104D02*
X200995238Y-58954819D01*
X200995238Y-58954819D02*
X200995238Y-59954819D01*
X201471429Y-59954819D02*
X201471429Y-58954819D01*
X201471429Y-58954819D02*
X201709524Y-58954819D01*
X201709524Y-58954819D02*
X201852381Y-59002438D01*
X201852381Y-59002438D02*
X201947619Y-59097676D01*
X201947619Y-59097676D02*
X201995238Y-59192914D01*
X201995238Y-59192914D02*
X202042857Y-59383390D01*
X202042857Y-59383390D02*
X202042857Y-59526247D01*
X202042857Y-59526247D02*
X201995238Y-59716723D01*
X201995238Y-59716723D02*
X201947619Y-59811961D01*
X201947619Y-59811961D02*
X201852381Y-59907200D01*
X201852381Y-59907200D02*
X201709524Y-59954819D01*
X201709524Y-59954819D02*
X201471429Y-59954819D01*
X134107143Y-102357200D02*
X134250000Y-102404819D01*
X134250000Y-102404819D02*
X134488095Y-102404819D01*
X134488095Y-102404819D02*
X134583333Y-102357200D01*
X134583333Y-102357200D02*
X134630952Y-102309580D01*
X134630952Y-102309580D02*
X134678571Y-102214342D01*
X134678571Y-102214342D02*
X134678571Y-102119104D01*
X134678571Y-102119104D02*
X134630952Y-102023866D01*
X134630952Y-102023866D02*
X134583333Y-101976247D01*
X134583333Y-101976247D02*
X134488095Y-101928628D01*
X134488095Y-101928628D02*
X134297619Y-101881009D01*
X134297619Y-101881009D02*
X134202381Y-101833390D01*
X134202381Y-101833390D02*
X134154762Y-101785771D01*
X134154762Y-101785771D02*
X134107143Y-101690533D01*
X134107143Y-101690533D02*
X134107143Y-101595295D01*
X134107143Y-101595295D02*
X134154762Y-101500057D01*
X134154762Y-101500057D02*
X134202381Y-101452438D01*
X134202381Y-101452438D02*
X134297619Y-101404819D01*
X134297619Y-101404819D02*
X134535714Y-101404819D01*
X134535714Y-101404819D02*
X134678571Y-101452438D01*
X135107143Y-102404819D02*
X135107143Y-101404819D01*
X135107143Y-101404819D02*
X135678571Y-102404819D01*
X135678571Y-102404819D02*
X135678571Y-101404819D01*
X136583333Y-101404819D02*
X136392857Y-101404819D01*
X136392857Y-101404819D02*
X136297619Y-101452438D01*
X136297619Y-101452438D02*
X136250000Y-101500057D01*
X136250000Y-101500057D02*
X136154762Y-101642914D01*
X136154762Y-101642914D02*
X136107143Y-101833390D01*
X136107143Y-101833390D02*
X136107143Y-102214342D01*
X136107143Y-102214342D02*
X136154762Y-102309580D01*
X136154762Y-102309580D02*
X136202381Y-102357200D01*
X136202381Y-102357200D02*
X136297619Y-102404819D01*
X136297619Y-102404819D02*
X136488095Y-102404819D01*
X136488095Y-102404819D02*
X136583333Y-102357200D01*
X136583333Y-102357200D02*
X136630952Y-102309580D01*
X136630952Y-102309580D02*
X136678571Y-102214342D01*
X136678571Y-102214342D02*
X136678571Y-101976247D01*
X136678571Y-101976247D02*
X136630952Y-101881009D01*
X136630952Y-101881009D02*
X136583333Y-101833390D01*
X136583333Y-101833390D02*
X136488095Y-101785771D01*
X136488095Y-101785771D02*
X136297619Y-101785771D01*
X136297619Y-101785771D02*
X136202381Y-101833390D01*
X136202381Y-101833390D02*
X136154762Y-101881009D01*
X136154762Y-101881009D02*
X136107143Y-101976247D01*
X137583333Y-101404819D02*
X137107143Y-101404819D01*
X137107143Y-101404819D02*
X137059524Y-101881009D01*
X137059524Y-101881009D02*
X137107143Y-101833390D01*
X137107143Y-101833390D02*
X137202381Y-101785771D01*
X137202381Y-101785771D02*
X137440476Y-101785771D01*
X137440476Y-101785771D02*
X137535714Y-101833390D01*
X137535714Y-101833390D02*
X137583333Y-101881009D01*
X137583333Y-101881009D02*
X137630952Y-101976247D01*
X137630952Y-101976247D02*
X137630952Y-102214342D01*
X137630952Y-102214342D02*
X137583333Y-102309580D01*
X137583333Y-102309580D02*
X137535714Y-102357200D01*
X137535714Y-102357200D02*
X137440476Y-102404819D01*
X137440476Y-102404819D02*
X137202381Y-102404819D01*
X137202381Y-102404819D02*
X137107143Y-102357200D01*
X137107143Y-102357200D02*
X137059524Y-102309580D01*
X138059524Y-102404819D02*
X138059524Y-101404819D01*
X138059524Y-101881009D02*
X138630952Y-101881009D01*
X138630952Y-102404819D02*
X138630952Y-101404819D01*
X138964286Y-101404819D02*
X139297619Y-102404819D01*
X139297619Y-102404819D02*
X139630952Y-101404819D01*
X139964286Y-102404819D02*
X139964286Y-101404819D01*
X139964286Y-101404819D02*
X140202381Y-101404819D01*
X140202381Y-101404819D02*
X140345238Y-101452438D01*
X140345238Y-101452438D02*
X140440476Y-101547676D01*
X140440476Y-101547676D02*
X140488095Y-101642914D01*
X140488095Y-101642914D02*
X140535714Y-101833390D01*
X140535714Y-101833390D02*
X140535714Y-101976247D01*
X140535714Y-101976247D02*
X140488095Y-102166723D01*
X140488095Y-102166723D02*
X140440476Y-102261961D01*
X140440476Y-102261961D02*
X140345238Y-102357200D01*
X140345238Y-102357200D02*
X140202381Y-102404819D01*
X140202381Y-102404819D02*
X139964286Y-102404819D01*
X140916667Y-101500057D02*
X140964286Y-101452438D01*
X140964286Y-101452438D02*
X141059524Y-101404819D01*
X141059524Y-101404819D02*
X141297619Y-101404819D01*
X141297619Y-101404819D02*
X141392857Y-101452438D01*
X141392857Y-101452438D02*
X141440476Y-101500057D01*
X141440476Y-101500057D02*
X141488095Y-101595295D01*
X141488095Y-101595295D02*
X141488095Y-101690533D01*
X141488095Y-101690533D02*
X141440476Y-101833390D01*
X141440476Y-101833390D02*
X140869048Y-102404819D01*
X140869048Y-102404819D02*
X141488095Y-102404819D01*
X142392857Y-101404819D02*
X141916667Y-101404819D01*
X141916667Y-101404819D02*
X141869048Y-101881009D01*
X141869048Y-101881009D02*
X141916667Y-101833390D01*
X141916667Y-101833390D02*
X142011905Y-101785771D01*
X142011905Y-101785771D02*
X142250000Y-101785771D01*
X142250000Y-101785771D02*
X142345238Y-101833390D01*
X142345238Y-101833390D02*
X142392857Y-101881009D01*
X142392857Y-101881009D02*
X142440476Y-101976247D01*
X142440476Y-101976247D02*
X142440476Y-102214342D01*
X142440476Y-102214342D02*
X142392857Y-102309580D01*
X142392857Y-102309580D02*
X142345238Y-102357200D01*
X142345238Y-102357200D02*
X142250000Y-102404819D01*
X142250000Y-102404819D02*
X142011905Y-102404819D01*
X142011905Y-102404819D02*
X141916667Y-102357200D01*
X141916667Y-102357200D02*
X141869048Y-102309580D01*
X143345238Y-101404819D02*
X142869048Y-101404819D01*
X142869048Y-101404819D02*
X142821429Y-101881009D01*
X142821429Y-101881009D02*
X142869048Y-101833390D01*
X142869048Y-101833390D02*
X142964286Y-101785771D01*
X142964286Y-101785771D02*
X143202381Y-101785771D01*
X143202381Y-101785771D02*
X143297619Y-101833390D01*
X143297619Y-101833390D02*
X143345238Y-101881009D01*
X143345238Y-101881009D02*
X143392857Y-101976247D01*
X143392857Y-101976247D02*
X143392857Y-102214342D01*
X143392857Y-102214342D02*
X143345238Y-102309580D01*
X143345238Y-102309580D02*
X143297619Y-102357200D01*
X143297619Y-102357200D02*
X143202381Y-102404819D01*
X143202381Y-102404819D02*
X142964286Y-102404819D01*
X142964286Y-102404819D02*
X142869048Y-102357200D01*
X142869048Y-102357200D02*
X142821429Y-102309580D01*
X143821429Y-102404819D02*
X143821429Y-101404819D01*
X143821429Y-101404819D02*
X144059524Y-101404819D01*
X144059524Y-101404819D02*
X144202381Y-101452438D01*
X144202381Y-101452438D02*
X144297619Y-101547676D01*
X144297619Y-101547676D02*
X144345238Y-101642914D01*
X144345238Y-101642914D02*
X144392857Y-101833390D01*
X144392857Y-101833390D02*
X144392857Y-101976247D01*
X144392857Y-101976247D02*
X144345238Y-102166723D01*
X144345238Y-102166723D02*
X144297619Y-102261961D01*
X144297619Y-102261961D02*
X144202381Y-102357200D01*
X144202381Y-102357200D02*
X144059524Y-102404819D01*
X144059524Y-102404819D02*
X143821429Y-102404819D01*
X145669643Y-101179819D02*
X146336309Y-101179819D01*
X146336309Y-101179819D02*
X145907738Y-102179819D01*
X147145833Y-101513152D02*
X147145833Y-102179819D01*
X146907738Y-101132200D02*
X146669643Y-101846485D01*
X146669643Y-101846485D02*
X147288690Y-101846485D01*
X147622024Y-101894104D02*
X148098214Y-101894104D01*
X147526786Y-102179819D02*
X147860119Y-101179819D01*
X147860119Y-101179819D02*
X148193452Y-102179819D01*
X148526786Y-102179819D02*
X148526786Y-101179819D01*
X148526786Y-101656009D02*
X149098214Y-101656009D01*
X149098214Y-102179819D02*
X149098214Y-101179819D01*
X150145833Y-102084580D02*
X150098214Y-102132200D01*
X150098214Y-102132200D02*
X149955357Y-102179819D01*
X149955357Y-102179819D02*
X149860119Y-102179819D01*
X149860119Y-102179819D02*
X149717262Y-102132200D01*
X149717262Y-102132200D02*
X149622024Y-102036961D01*
X149622024Y-102036961D02*
X149574405Y-101941723D01*
X149574405Y-101941723D02*
X149526786Y-101751247D01*
X149526786Y-101751247D02*
X149526786Y-101608390D01*
X149526786Y-101608390D02*
X149574405Y-101417914D01*
X149574405Y-101417914D02*
X149622024Y-101322676D01*
X149622024Y-101322676D02*
X149717262Y-101227438D01*
X149717262Y-101227438D02*
X149860119Y-101179819D01*
X149860119Y-101179819D02*
X149955357Y-101179819D01*
X149955357Y-101179819D02*
X150098214Y-101227438D01*
X150098214Y-101227438D02*
X150145833Y-101275057D01*
X150431548Y-101179819D02*
X150764881Y-102179819D01*
X150764881Y-102179819D02*
X151098214Y-101179819D01*
X151955357Y-102179819D02*
X151383929Y-102179819D01*
X151669643Y-102179819D02*
X151669643Y-101179819D01*
X151669643Y-101179819D02*
X151574405Y-101322676D01*
X151574405Y-101322676D02*
X151479167Y-101417914D01*
X151479167Y-101417914D02*
X151383929Y-101465533D01*
X152288691Y-101179819D02*
X152955357Y-101179819D01*
X152955357Y-101179819D02*
X152526786Y-102179819D01*
X153288691Y-101894104D02*
X153764881Y-101894104D01*
X153193453Y-102179819D02*
X153526786Y-101179819D01*
X153526786Y-101179819D02*
X153860119Y-102179819D01*
X154193453Y-102179819D02*
X154193453Y-101179819D01*
X154193453Y-101179819D02*
X154574405Y-101179819D01*
X154574405Y-101179819D02*
X154669643Y-101227438D01*
X154669643Y-101227438D02*
X154717262Y-101275057D01*
X154717262Y-101275057D02*
X154764881Y-101370295D01*
X154764881Y-101370295D02*
X154764881Y-101513152D01*
X154764881Y-101513152D02*
X154717262Y-101608390D01*
X154717262Y-101608390D02*
X154669643Y-101656009D01*
X154669643Y-101656009D02*
X154574405Y-101703628D01*
X154574405Y-101703628D02*
X154193453Y-101703628D01*
X155098215Y-101179819D02*
X155336310Y-102179819D01*
X155336310Y-102179819D02*
X155526786Y-101465533D01*
X155526786Y-101465533D02*
X155717262Y-102179819D01*
X155717262Y-102179819D02*
X155955358Y-101179819D01*
X197228571Y-102579819D02*
X197228571Y-101579819D01*
X197228571Y-102056009D02*
X197799999Y-102056009D01*
X197799999Y-102579819D02*
X197799999Y-101579819D01*
X198847618Y-102484580D02*
X198799999Y-102532200D01*
X198799999Y-102532200D02*
X198657142Y-102579819D01*
X198657142Y-102579819D02*
X198561904Y-102579819D01*
X198561904Y-102579819D02*
X198419047Y-102532200D01*
X198419047Y-102532200D02*
X198323809Y-102436961D01*
X198323809Y-102436961D02*
X198276190Y-102341723D01*
X198276190Y-102341723D02*
X198228571Y-102151247D01*
X198228571Y-102151247D02*
X198228571Y-102008390D01*
X198228571Y-102008390D02*
X198276190Y-101817914D01*
X198276190Y-101817914D02*
X198323809Y-101722676D01*
X198323809Y-101722676D02*
X198419047Y-101627438D01*
X198419047Y-101627438D02*
X198561904Y-101579819D01*
X198561904Y-101579819D02*
X198657142Y-101579819D01*
X198657142Y-101579819D02*
X198799999Y-101627438D01*
X198799999Y-101627438D02*
X198847618Y-101675057D01*
X199276190Y-102198866D02*
X200038095Y-102198866D01*
X200942856Y-101913152D02*
X200942856Y-102579819D01*
X200704761Y-101532200D02*
X200466666Y-102246485D01*
X200466666Y-102246485D02*
X201085713Y-102246485D01*
X201514285Y-102579819D02*
X201704761Y-102579819D01*
X201704761Y-102579819D02*
X201799999Y-102532200D01*
X201799999Y-102532200D02*
X201847618Y-102484580D01*
X201847618Y-102484580D02*
X201942856Y-102341723D01*
X201942856Y-102341723D02*
X201990475Y-102151247D01*
X201990475Y-102151247D02*
X201990475Y-101770295D01*
X201990475Y-101770295D02*
X201942856Y-101675057D01*
X201942856Y-101675057D02*
X201895237Y-101627438D01*
X201895237Y-101627438D02*
X201799999Y-101579819D01*
X201799999Y-101579819D02*
X201609523Y-101579819D01*
X201609523Y-101579819D02*
X201514285Y-101627438D01*
X201514285Y-101627438D02*
X201466666Y-101675057D01*
X201466666Y-101675057D02*
X201419047Y-101770295D01*
X201419047Y-101770295D02*
X201419047Y-102008390D01*
X201419047Y-102008390D02*
X201466666Y-102103628D01*
X201466666Y-102103628D02*
X201514285Y-102151247D01*
X201514285Y-102151247D02*
X201609523Y-102198866D01*
X201609523Y-102198866D02*
X201799999Y-102198866D01*
X201799999Y-102198866D02*
X201895237Y-102151247D01*
X201895237Y-102151247D02*
X201942856Y-102103628D01*
X201942856Y-102103628D02*
X201990475Y-102008390D01*
X203180952Y-102579819D02*
X203180952Y-101579819D01*
X203180952Y-102056009D02*
X203752380Y-102056009D01*
X203752380Y-102579819D02*
X203752380Y-101579819D01*
X204371428Y-102579819D02*
X204276190Y-102532200D01*
X204276190Y-102532200D02*
X204228571Y-102484580D01*
X204228571Y-102484580D02*
X204180952Y-102389342D01*
X204180952Y-102389342D02*
X204180952Y-102103628D01*
X204180952Y-102103628D02*
X204228571Y-102008390D01*
X204228571Y-102008390D02*
X204276190Y-101960771D01*
X204276190Y-101960771D02*
X204371428Y-101913152D01*
X204371428Y-101913152D02*
X204514285Y-101913152D01*
X204514285Y-101913152D02*
X204609523Y-101960771D01*
X204609523Y-101960771D02*
X204657142Y-102008390D01*
X204657142Y-102008390D02*
X204704761Y-102103628D01*
X204704761Y-102103628D02*
X204704761Y-102389342D01*
X204704761Y-102389342D02*
X204657142Y-102484580D01*
X204657142Y-102484580D02*
X204609523Y-102532200D01*
X204609523Y-102532200D02*
X204514285Y-102579819D01*
X204514285Y-102579819D02*
X204371428Y-102579819D01*
X205133333Y-102579819D02*
X205133333Y-101913152D01*
X205133333Y-102103628D02*
X205180952Y-102008390D01*
X205180952Y-102008390D02*
X205228571Y-101960771D01*
X205228571Y-101960771D02*
X205323809Y-101913152D01*
X205323809Y-101913152D02*
X205419047Y-101913152D01*
X205752381Y-102579819D02*
X205752381Y-101913152D01*
X205752381Y-101579819D02*
X205704762Y-101627438D01*
X205704762Y-101627438D02*
X205752381Y-101675057D01*
X205752381Y-101675057D02*
X205800000Y-101627438D01*
X205800000Y-101627438D02*
X205752381Y-101579819D01*
X205752381Y-101579819D02*
X205752381Y-101675057D01*
X206133333Y-101913152D02*
X206657142Y-101913152D01*
X206657142Y-101913152D02*
X206133333Y-102579819D01*
X206133333Y-102579819D02*
X206657142Y-102579819D01*
X207180952Y-102579819D02*
X207085714Y-102532200D01*
X207085714Y-102532200D02*
X207038095Y-102484580D01*
X207038095Y-102484580D02*
X206990476Y-102389342D01*
X206990476Y-102389342D02*
X206990476Y-102103628D01*
X206990476Y-102103628D02*
X207038095Y-102008390D01*
X207038095Y-102008390D02*
X207085714Y-101960771D01*
X207085714Y-101960771D02*
X207180952Y-101913152D01*
X207180952Y-101913152D02*
X207323809Y-101913152D01*
X207323809Y-101913152D02*
X207419047Y-101960771D01*
X207419047Y-101960771D02*
X207466666Y-102008390D01*
X207466666Y-102008390D02*
X207514285Y-102103628D01*
X207514285Y-102103628D02*
X207514285Y-102389342D01*
X207514285Y-102389342D02*
X207466666Y-102484580D01*
X207466666Y-102484580D02*
X207419047Y-102532200D01*
X207419047Y-102532200D02*
X207323809Y-102579819D01*
X207323809Y-102579819D02*
X207180952Y-102579819D01*
X207942857Y-101913152D02*
X207942857Y-102579819D01*
X207942857Y-102008390D02*
X207990476Y-101960771D01*
X207990476Y-101960771D02*
X208085714Y-101913152D01*
X208085714Y-101913152D02*
X208228571Y-101913152D01*
X208228571Y-101913152D02*
X208323809Y-101960771D01*
X208323809Y-101960771D02*
X208371428Y-102056009D01*
X208371428Y-102056009D02*
X208371428Y-102579819D01*
X208704762Y-101913152D02*
X209085714Y-101913152D01*
X208847619Y-101579819D02*
X208847619Y-102436961D01*
X208847619Y-102436961D02*
X208895238Y-102532200D01*
X208895238Y-102532200D02*
X208990476Y-102579819D01*
X208990476Y-102579819D02*
X209085714Y-102579819D01*
X209847619Y-102579819D02*
X209847619Y-102056009D01*
X209847619Y-102056009D02*
X209800000Y-101960771D01*
X209800000Y-101960771D02*
X209704762Y-101913152D01*
X209704762Y-101913152D02*
X209514286Y-101913152D01*
X209514286Y-101913152D02*
X209419048Y-101960771D01*
X209847619Y-102532200D02*
X209752381Y-102579819D01*
X209752381Y-102579819D02*
X209514286Y-102579819D01*
X209514286Y-102579819D02*
X209419048Y-102532200D01*
X209419048Y-102532200D02*
X209371429Y-102436961D01*
X209371429Y-102436961D02*
X209371429Y-102341723D01*
X209371429Y-102341723D02*
X209419048Y-102246485D01*
X209419048Y-102246485D02*
X209514286Y-102198866D01*
X209514286Y-102198866D02*
X209752381Y-102198866D01*
X209752381Y-102198866D02*
X209847619Y-102151247D01*
X210466667Y-102579819D02*
X210371429Y-102532200D01*
X210371429Y-102532200D02*
X210323810Y-102436961D01*
X210323810Y-102436961D02*
X210323810Y-101579819D01*
X234482738Y-84904819D02*
X234006548Y-84904819D01*
X234006548Y-84904819D02*
X234006548Y-83904819D01*
X234816072Y-84904819D02*
X234816072Y-83904819D01*
X234816072Y-83904819D02*
X235197024Y-83904819D01*
X235197024Y-83904819D02*
X235292262Y-83952438D01*
X235292262Y-83952438D02*
X235339881Y-84000057D01*
X235339881Y-84000057D02*
X235387500Y-84095295D01*
X235387500Y-84095295D02*
X235387500Y-84238152D01*
X235387500Y-84238152D02*
X235339881Y-84333390D01*
X235339881Y-84333390D02*
X235292262Y-84381009D01*
X235292262Y-84381009D02*
X235197024Y-84428628D01*
X235197024Y-84428628D02*
X234816072Y-84428628D01*
X235768453Y-84000057D02*
X235816072Y-83952438D01*
X235816072Y-83952438D02*
X235911310Y-83904819D01*
X235911310Y-83904819D02*
X236149405Y-83904819D01*
X236149405Y-83904819D02*
X236244643Y-83952438D01*
X236244643Y-83952438D02*
X236292262Y-84000057D01*
X236292262Y-84000057D02*
X236339881Y-84095295D01*
X236339881Y-84095295D02*
X236339881Y-84190533D01*
X236339881Y-84190533D02*
X236292262Y-84333390D01*
X236292262Y-84333390D02*
X235720834Y-84904819D01*
X235720834Y-84904819D02*
X236339881Y-84904819D01*
X236816072Y-84904819D02*
X237006548Y-84904819D01*
X237006548Y-84904819D02*
X237101786Y-84857200D01*
X237101786Y-84857200D02*
X237149405Y-84809580D01*
X237149405Y-84809580D02*
X237244643Y-84666723D01*
X237244643Y-84666723D02*
X237292262Y-84476247D01*
X237292262Y-84476247D02*
X237292262Y-84095295D01*
X237292262Y-84095295D02*
X237244643Y-84000057D01*
X237244643Y-84000057D02*
X237197024Y-83952438D01*
X237197024Y-83952438D02*
X237101786Y-83904819D01*
X237101786Y-83904819D02*
X236911310Y-83904819D01*
X236911310Y-83904819D02*
X236816072Y-83952438D01*
X236816072Y-83952438D02*
X236768453Y-84000057D01*
X236768453Y-84000057D02*
X236720834Y-84095295D01*
X236720834Y-84095295D02*
X236720834Y-84333390D01*
X236720834Y-84333390D02*
X236768453Y-84428628D01*
X236768453Y-84428628D02*
X236816072Y-84476247D01*
X236816072Y-84476247D02*
X236911310Y-84523866D01*
X236911310Y-84523866D02*
X237101786Y-84523866D01*
X237101786Y-84523866D02*
X237197024Y-84476247D01*
X237197024Y-84476247D02*
X237244643Y-84428628D01*
X237244643Y-84428628D02*
X237292262Y-84333390D01*
X237863691Y-84333390D02*
X237768453Y-84285771D01*
X237768453Y-84285771D02*
X237720834Y-84238152D01*
X237720834Y-84238152D02*
X237673215Y-84142914D01*
X237673215Y-84142914D02*
X237673215Y-84095295D01*
X237673215Y-84095295D02*
X237720834Y-84000057D01*
X237720834Y-84000057D02*
X237768453Y-83952438D01*
X237768453Y-83952438D02*
X237863691Y-83904819D01*
X237863691Y-83904819D02*
X238054167Y-83904819D01*
X238054167Y-83904819D02*
X238149405Y-83952438D01*
X238149405Y-83952438D02*
X238197024Y-84000057D01*
X238197024Y-84000057D02*
X238244643Y-84095295D01*
X238244643Y-84095295D02*
X238244643Y-84142914D01*
X238244643Y-84142914D02*
X238197024Y-84238152D01*
X238197024Y-84238152D02*
X238149405Y-84285771D01*
X238149405Y-84285771D02*
X238054167Y-84333390D01*
X238054167Y-84333390D02*
X237863691Y-84333390D01*
X237863691Y-84333390D02*
X237768453Y-84381009D01*
X237768453Y-84381009D02*
X237720834Y-84428628D01*
X237720834Y-84428628D02*
X237673215Y-84523866D01*
X237673215Y-84523866D02*
X237673215Y-84714342D01*
X237673215Y-84714342D02*
X237720834Y-84809580D01*
X237720834Y-84809580D02*
X237768453Y-84857200D01*
X237768453Y-84857200D02*
X237863691Y-84904819D01*
X237863691Y-84904819D02*
X238054167Y-84904819D01*
X238054167Y-84904819D02*
X238149405Y-84857200D01*
X238149405Y-84857200D02*
X238197024Y-84809580D01*
X238197024Y-84809580D02*
X238244643Y-84714342D01*
X238244643Y-84714342D02*
X238244643Y-84523866D01*
X238244643Y-84523866D02*
X238197024Y-84428628D01*
X238197024Y-84428628D02*
X238149405Y-84381009D01*
X238149405Y-84381009D02*
X238054167Y-84333390D01*
X239149405Y-83904819D02*
X238673215Y-83904819D01*
X238673215Y-83904819D02*
X238625596Y-84381009D01*
X238625596Y-84381009D02*
X238673215Y-84333390D01*
X238673215Y-84333390D02*
X238768453Y-84285771D01*
X238768453Y-84285771D02*
X239006548Y-84285771D01*
X239006548Y-84285771D02*
X239101786Y-84333390D01*
X239101786Y-84333390D02*
X239149405Y-84381009D01*
X239149405Y-84381009D02*
X239197024Y-84476247D01*
X239197024Y-84476247D02*
X239197024Y-84714342D01*
X239197024Y-84714342D02*
X239149405Y-84809580D01*
X239149405Y-84809580D02*
X239101786Y-84857200D01*
X239101786Y-84857200D02*
X239006548Y-84904819D01*
X239006548Y-84904819D02*
X238768453Y-84904819D01*
X238768453Y-84904819D02*
X238673215Y-84857200D01*
X238673215Y-84857200D02*
X238625596Y-84809580D01*
X239625596Y-84523866D02*
X240387501Y-84523866D01*
X241387500Y-84904819D02*
X240816072Y-84904819D01*
X241101786Y-84904819D02*
X241101786Y-83904819D01*
X241101786Y-83904819D02*
X241006548Y-84047676D01*
X241006548Y-84047676D02*
X240911310Y-84142914D01*
X240911310Y-84142914D02*
X240816072Y-84190533D01*
X241816072Y-84809580D02*
X241863691Y-84857200D01*
X241863691Y-84857200D02*
X241816072Y-84904819D01*
X241816072Y-84904819D02*
X241768453Y-84857200D01*
X241768453Y-84857200D02*
X241816072Y-84809580D01*
X241816072Y-84809580D02*
X241816072Y-84904819D01*
X242435119Y-84333390D02*
X242339881Y-84285771D01*
X242339881Y-84285771D02*
X242292262Y-84238152D01*
X242292262Y-84238152D02*
X242244643Y-84142914D01*
X242244643Y-84142914D02*
X242244643Y-84095295D01*
X242244643Y-84095295D02*
X242292262Y-84000057D01*
X242292262Y-84000057D02*
X242339881Y-83952438D01*
X242339881Y-83952438D02*
X242435119Y-83904819D01*
X242435119Y-83904819D02*
X242625595Y-83904819D01*
X242625595Y-83904819D02*
X242720833Y-83952438D01*
X242720833Y-83952438D02*
X242768452Y-84000057D01*
X242768452Y-84000057D02*
X242816071Y-84095295D01*
X242816071Y-84095295D02*
X242816071Y-84142914D01*
X242816071Y-84142914D02*
X242768452Y-84238152D01*
X242768452Y-84238152D02*
X242720833Y-84285771D01*
X242720833Y-84285771D02*
X242625595Y-84333390D01*
X242625595Y-84333390D02*
X242435119Y-84333390D01*
X242435119Y-84333390D02*
X242339881Y-84381009D01*
X242339881Y-84381009D02*
X242292262Y-84428628D01*
X242292262Y-84428628D02*
X242244643Y-84523866D01*
X242244643Y-84523866D02*
X242244643Y-84714342D01*
X242244643Y-84714342D02*
X242292262Y-84809580D01*
X242292262Y-84809580D02*
X242339881Y-84857200D01*
X242339881Y-84857200D02*
X242435119Y-84904819D01*
X242435119Y-84904819D02*
X242625595Y-84904819D01*
X242625595Y-84904819D02*
X242720833Y-84857200D01*
X242720833Y-84857200D02*
X242768452Y-84809580D01*
X242768452Y-84809580D02*
X242816071Y-84714342D01*
X242816071Y-84714342D02*
X242816071Y-84523866D01*
X242816071Y-84523866D02*
X242768452Y-84428628D01*
X242768452Y-84428628D02*
X242720833Y-84381009D01*
X242720833Y-84381009D02*
X242625595Y-84333390D01*
X151067261Y-123729819D02*
X150733928Y-123253628D01*
X150495833Y-123729819D02*
X150495833Y-122729819D01*
X150495833Y-122729819D02*
X150876785Y-122729819D01*
X150876785Y-122729819D02*
X150972023Y-122777438D01*
X150972023Y-122777438D02*
X151019642Y-122825057D01*
X151019642Y-122825057D02*
X151067261Y-122920295D01*
X151067261Y-122920295D02*
X151067261Y-123063152D01*
X151067261Y-123063152D02*
X151019642Y-123158390D01*
X151019642Y-123158390D02*
X150972023Y-123206009D01*
X150972023Y-123206009D02*
X150876785Y-123253628D01*
X150876785Y-123253628D02*
X150495833Y-123253628D01*
X151495833Y-123729819D02*
X151495833Y-122729819D01*
X151495833Y-122729819D02*
X151876785Y-122729819D01*
X151876785Y-122729819D02*
X151972023Y-122777438D01*
X151972023Y-122777438D02*
X152019642Y-122825057D01*
X152019642Y-122825057D02*
X152067261Y-122920295D01*
X152067261Y-122920295D02*
X152067261Y-123063152D01*
X152067261Y-123063152D02*
X152019642Y-123158390D01*
X152019642Y-123158390D02*
X151972023Y-123206009D01*
X151972023Y-123206009D02*
X151876785Y-123253628D01*
X151876785Y-123253628D02*
X151495833Y-123253628D01*
X152448214Y-122825057D02*
X152495833Y-122777438D01*
X152495833Y-122777438D02*
X152591071Y-122729819D01*
X152591071Y-122729819D02*
X152829166Y-122729819D01*
X152829166Y-122729819D02*
X152924404Y-122777438D01*
X152924404Y-122777438D02*
X152972023Y-122825057D01*
X152972023Y-122825057D02*
X153019642Y-122920295D01*
X153019642Y-122920295D02*
X153019642Y-123015533D01*
X153019642Y-123015533D02*
X152972023Y-123158390D01*
X152972023Y-123158390D02*
X152400595Y-123729819D01*
X152400595Y-123729819D02*
X153019642Y-123729819D01*
X153638690Y-122729819D02*
X153733928Y-122729819D01*
X153733928Y-122729819D02*
X153829166Y-122777438D01*
X153829166Y-122777438D02*
X153876785Y-122825057D01*
X153876785Y-122825057D02*
X153924404Y-122920295D01*
X153924404Y-122920295D02*
X153972023Y-123110771D01*
X153972023Y-123110771D02*
X153972023Y-123348866D01*
X153972023Y-123348866D02*
X153924404Y-123539342D01*
X153924404Y-123539342D02*
X153876785Y-123634580D01*
X153876785Y-123634580D02*
X153829166Y-123682200D01*
X153829166Y-123682200D02*
X153733928Y-123729819D01*
X153733928Y-123729819D02*
X153638690Y-123729819D01*
X153638690Y-123729819D02*
X153543452Y-123682200D01*
X153543452Y-123682200D02*
X153495833Y-123634580D01*
X153495833Y-123634580D02*
X153448214Y-123539342D01*
X153448214Y-123539342D02*
X153400595Y-123348866D01*
X153400595Y-123348866D02*
X153400595Y-123110771D01*
X153400595Y-123110771D02*
X153448214Y-122920295D01*
X153448214Y-122920295D02*
X153495833Y-122825057D01*
X153495833Y-122825057D02*
X153543452Y-122777438D01*
X153543452Y-122777438D02*
X153638690Y-122729819D01*
X154829166Y-123063152D02*
X154829166Y-123729819D01*
X154591071Y-122682200D02*
X154352976Y-123396485D01*
X154352976Y-123396485D02*
X154972023Y-123396485D01*
X155543452Y-122729819D02*
X155638690Y-122729819D01*
X155638690Y-122729819D02*
X155733928Y-122777438D01*
X155733928Y-122777438D02*
X155781547Y-122825057D01*
X155781547Y-122825057D02*
X155829166Y-122920295D01*
X155829166Y-122920295D02*
X155876785Y-123110771D01*
X155876785Y-123110771D02*
X155876785Y-123348866D01*
X155876785Y-123348866D02*
X155829166Y-123539342D01*
X155829166Y-123539342D02*
X155781547Y-123634580D01*
X155781547Y-123634580D02*
X155733928Y-123682200D01*
X155733928Y-123682200D02*
X155638690Y-123729819D01*
X155638690Y-123729819D02*
X155543452Y-123729819D01*
X155543452Y-123729819D02*
X155448214Y-123682200D01*
X155448214Y-123682200D02*
X155400595Y-123634580D01*
X155400595Y-123634580D02*
X155352976Y-123539342D01*
X155352976Y-123539342D02*
X155305357Y-123348866D01*
X155305357Y-123348866D02*
X155305357Y-123110771D01*
X155305357Y-123110771D02*
X155352976Y-122920295D01*
X155352976Y-122920295D02*
X155400595Y-122825057D01*
X155400595Y-122825057D02*
X155448214Y-122777438D01*
X155448214Y-122777438D02*
X155543452Y-122729819D01*
X187297857Y-88206009D02*
X187440714Y-88253628D01*
X187440714Y-88253628D02*
X187488333Y-88301247D01*
X187488333Y-88301247D02*
X187535952Y-88396485D01*
X187535952Y-88396485D02*
X187535952Y-88539342D01*
X187535952Y-88539342D02*
X187488333Y-88634580D01*
X187488333Y-88634580D02*
X187440714Y-88682200D01*
X187440714Y-88682200D02*
X187345476Y-88729819D01*
X187345476Y-88729819D02*
X186964524Y-88729819D01*
X186964524Y-88729819D02*
X186964524Y-87729819D01*
X186964524Y-87729819D02*
X187297857Y-87729819D01*
X187297857Y-87729819D02*
X187393095Y-87777438D01*
X187393095Y-87777438D02*
X187440714Y-87825057D01*
X187440714Y-87825057D02*
X187488333Y-87920295D01*
X187488333Y-87920295D02*
X187488333Y-88015533D01*
X187488333Y-88015533D02*
X187440714Y-88110771D01*
X187440714Y-88110771D02*
X187393095Y-88158390D01*
X187393095Y-88158390D02*
X187297857Y-88206009D01*
X187297857Y-88206009D02*
X186964524Y-88206009D01*
X188535952Y-88634580D02*
X188488333Y-88682200D01*
X188488333Y-88682200D02*
X188345476Y-88729819D01*
X188345476Y-88729819D02*
X188250238Y-88729819D01*
X188250238Y-88729819D02*
X188107381Y-88682200D01*
X188107381Y-88682200D02*
X188012143Y-88586961D01*
X188012143Y-88586961D02*
X187964524Y-88491723D01*
X187964524Y-88491723D02*
X187916905Y-88301247D01*
X187916905Y-88301247D02*
X187916905Y-88158390D01*
X187916905Y-88158390D02*
X187964524Y-87967914D01*
X187964524Y-87967914D02*
X188012143Y-87872676D01*
X188012143Y-87872676D02*
X188107381Y-87777438D01*
X188107381Y-87777438D02*
X188250238Y-87729819D01*
X188250238Y-87729819D02*
X188345476Y-87729819D01*
X188345476Y-87729819D02*
X188488333Y-87777438D01*
X188488333Y-87777438D02*
X188535952Y-87825057D01*
X188869286Y-87729819D02*
X189488333Y-87729819D01*
X189488333Y-87729819D02*
X189155000Y-88110771D01*
X189155000Y-88110771D02*
X189297857Y-88110771D01*
X189297857Y-88110771D02*
X189393095Y-88158390D01*
X189393095Y-88158390D02*
X189440714Y-88206009D01*
X189440714Y-88206009D02*
X189488333Y-88301247D01*
X189488333Y-88301247D02*
X189488333Y-88539342D01*
X189488333Y-88539342D02*
X189440714Y-88634580D01*
X189440714Y-88634580D02*
X189393095Y-88682200D01*
X189393095Y-88682200D02*
X189297857Y-88729819D01*
X189297857Y-88729819D02*
X189012143Y-88729819D01*
X189012143Y-88729819D02*
X188916905Y-88682200D01*
X188916905Y-88682200D02*
X188869286Y-88634580D01*
X189869286Y-87825057D02*
X189916905Y-87777438D01*
X189916905Y-87777438D02*
X190012143Y-87729819D01*
X190012143Y-87729819D02*
X190250238Y-87729819D01*
X190250238Y-87729819D02*
X190345476Y-87777438D01*
X190345476Y-87777438D02*
X190393095Y-87825057D01*
X190393095Y-87825057D02*
X190440714Y-87920295D01*
X190440714Y-87920295D02*
X190440714Y-88015533D01*
X190440714Y-88015533D02*
X190393095Y-88158390D01*
X190393095Y-88158390D02*
X189821667Y-88729819D01*
X189821667Y-88729819D02*
X190440714Y-88729819D01*
X191012143Y-88158390D02*
X190916905Y-88110771D01*
X190916905Y-88110771D02*
X190869286Y-88063152D01*
X190869286Y-88063152D02*
X190821667Y-87967914D01*
X190821667Y-87967914D02*
X190821667Y-87920295D01*
X190821667Y-87920295D02*
X190869286Y-87825057D01*
X190869286Y-87825057D02*
X190916905Y-87777438D01*
X190916905Y-87777438D02*
X191012143Y-87729819D01*
X191012143Y-87729819D02*
X191202619Y-87729819D01*
X191202619Y-87729819D02*
X191297857Y-87777438D01*
X191297857Y-87777438D02*
X191345476Y-87825057D01*
X191345476Y-87825057D02*
X191393095Y-87920295D01*
X191393095Y-87920295D02*
X191393095Y-87967914D01*
X191393095Y-87967914D02*
X191345476Y-88063152D01*
X191345476Y-88063152D02*
X191297857Y-88110771D01*
X191297857Y-88110771D02*
X191202619Y-88158390D01*
X191202619Y-88158390D02*
X191012143Y-88158390D01*
X191012143Y-88158390D02*
X190916905Y-88206009D01*
X190916905Y-88206009D02*
X190869286Y-88253628D01*
X190869286Y-88253628D02*
X190821667Y-88348866D01*
X190821667Y-88348866D02*
X190821667Y-88539342D01*
X190821667Y-88539342D02*
X190869286Y-88634580D01*
X190869286Y-88634580D02*
X190916905Y-88682200D01*
X190916905Y-88682200D02*
X191012143Y-88729819D01*
X191012143Y-88729819D02*
X191202619Y-88729819D01*
X191202619Y-88729819D02*
X191297857Y-88682200D01*
X191297857Y-88682200D02*
X191345476Y-88634580D01*
X191345476Y-88634580D02*
X191393095Y-88539342D01*
X191393095Y-88539342D02*
X191393095Y-88348866D01*
X191393095Y-88348866D02*
X191345476Y-88253628D01*
X191345476Y-88253628D02*
X191297857Y-88206009D01*
X191297857Y-88206009D02*
X191202619Y-88158390D01*
X173782142Y-59904819D02*
X173210714Y-59904819D01*
X173496428Y-59904819D02*
X173496428Y-58904819D01*
X173496428Y-58904819D02*
X173401190Y-59047676D01*
X173401190Y-59047676D02*
X173305952Y-59142914D01*
X173305952Y-59142914D02*
X173210714Y-59190533D01*
X174163095Y-59000057D02*
X174210714Y-58952438D01*
X174210714Y-58952438D02*
X174305952Y-58904819D01*
X174305952Y-58904819D02*
X174544047Y-58904819D01*
X174544047Y-58904819D02*
X174639285Y-58952438D01*
X174639285Y-58952438D02*
X174686904Y-59000057D01*
X174686904Y-59000057D02*
X174734523Y-59095295D01*
X174734523Y-59095295D02*
X174734523Y-59190533D01*
X174734523Y-59190533D02*
X174686904Y-59333390D01*
X174686904Y-59333390D02*
X174115476Y-59904819D01*
X174115476Y-59904819D02*
X174734523Y-59904819D01*
X175686904Y-59904819D02*
X175115476Y-59904819D01*
X175401190Y-59904819D02*
X175401190Y-58904819D01*
X175401190Y-58904819D02*
X175305952Y-59047676D01*
X175305952Y-59047676D02*
X175210714Y-59142914D01*
X175210714Y-59142914D02*
X175115476Y-59190533D01*
X176305952Y-58904819D02*
X176401190Y-58904819D01*
X176401190Y-58904819D02*
X176496428Y-58952438D01*
X176496428Y-58952438D02*
X176544047Y-59000057D01*
X176544047Y-59000057D02*
X176591666Y-59095295D01*
X176591666Y-59095295D02*
X176639285Y-59285771D01*
X176639285Y-59285771D02*
X176639285Y-59523866D01*
X176639285Y-59523866D02*
X176591666Y-59714342D01*
X176591666Y-59714342D02*
X176544047Y-59809580D01*
X176544047Y-59809580D02*
X176496428Y-59857200D01*
X176496428Y-59857200D02*
X176401190Y-59904819D01*
X176401190Y-59904819D02*
X176305952Y-59904819D01*
X176305952Y-59904819D02*
X176210714Y-59857200D01*
X176210714Y-59857200D02*
X176163095Y-59809580D01*
X176163095Y-59809580D02*
X176115476Y-59714342D01*
X176115476Y-59714342D02*
X176067857Y-59523866D01*
X176067857Y-59523866D02*
X176067857Y-59285771D01*
X176067857Y-59285771D02*
X176115476Y-59095295D01*
X176115476Y-59095295D02*
X176163095Y-59000057D01*
X176163095Y-59000057D02*
X176210714Y-58952438D01*
X176210714Y-58952438D02*
X176305952Y-58904819D01*
X132919048Y-88404819D02*
X132919048Y-87404819D01*
X133347619Y-88357200D02*
X133490476Y-88404819D01*
X133490476Y-88404819D02*
X133728571Y-88404819D01*
X133728571Y-88404819D02*
X133823809Y-88357200D01*
X133823809Y-88357200D02*
X133871428Y-88309580D01*
X133871428Y-88309580D02*
X133919047Y-88214342D01*
X133919047Y-88214342D02*
X133919047Y-88119104D01*
X133919047Y-88119104D02*
X133871428Y-88023866D01*
X133871428Y-88023866D02*
X133823809Y-87976247D01*
X133823809Y-87976247D02*
X133728571Y-87928628D01*
X133728571Y-87928628D02*
X133538095Y-87881009D01*
X133538095Y-87881009D02*
X133442857Y-87833390D01*
X133442857Y-87833390D02*
X133395238Y-87785771D01*
X133395238Y-87785771D02*
X133347619Y-87690533D01*
X133347619Y-87690533D02*
X133347619Y-87595295D01*
X133347619Y-87595295D02*
X133395238Y-87500057D01*
X133395238Y-87500057D02*
X133442857Y-87452438D01*
X133442857Y-87452438D02*
X133538095Y-87404819D01*
X133538095Y-87404819D02*
X133776190Y-87404819D01*
X133776190Y-87404819D02*
X133919047Y-87452438D01*
X134347619Y-88404819D02*
X134347619Y-87404819D01*
X134347619Y-87404819D02*
X134585714Y-87404819D01*
X134585714Y-87404819D02*
X134728571Y-87452438D01*
X134728571Y-87452438D02*
X134823809Y-87547676D01*
X134823809Y-87547676D02*
X134871428Y-87642914D01*
X134871428Y-87642914D02*
X134919047Y-87833390D01*
X134919047Y-87833390D02*
X134919047Y-87976247D01*
X134919047Y-87976247D02*
X134871428Y-88166723D01*
X134871428Y-88166723D02*
X134823809Y-88261961D01*
X134823809Y-88261961D02*
X134728571Y-88357200D01*
X134728571Y-88357200D02*
X134585714Y-88404819D01*
X134585714Y-88404819D02*
X134347619Y-88404819D01*
X135300000Y-87500057D02*
X135347619Y-87452438D01*
X135347619Y-87452438D02*
X135442857Y-87404819D01*
X135442857Y-87404819D02*
X135680952Y-87404819D01*
X135680952Y-87404819D02*
X135776190Y-87452438D01*
X135776190Y-87452438D02*
X135823809Y-87500057D01*
X135823809Y-87500057D02*
X135871428Y-87595295D01*
X135871428Y-87595295D02*
X135871428Y-87690533D01*
X135871428Y-87690533D02*
X135823809Y-87833390D01*
X135823809Y-87833390D02*
X135252381Y-88404819D01*
X135252381Y-88404819D02*
X135871428Y-88404819D01*
X136776190Y-87404819D02*
X136300000Y-87404819D01*
X136300000Y-87404819D02*
X136252381Y-87881009D01*
X136252381Y-87881009D02*
X136300000Y-87833390D01*
X136300000Y-87833390D02*
X136395238Y-87785771D01*
X136395238Y-87785771D02*
X136633333Y-87785771D01*
X136633333Y-87785771D02*
X136728571Y-87833390D01*
X136728571Y-87833390D02*
X136776190Y-87881009D01*
X136776190Y-87881009D02*
X136823809Y-87976247D01*
X136823809Y-87976247D02*
X136823809Y-88214342D01*
X136823809Y-88214342D02*
X136776190Y-88309580D01*
X136776190Y-88309580D02*
X136728571Y-88357200D01*
X136728571Y-88357200D02*
X136633333Y-88404819D01*
X136633333Y-88404819D02*
X136395238Y-88404819D01*
X136395238Y-88404819D02*
X136300000Y-88357200D01*
X136300000Y-88357200D02*
X136252381Y-88309580D01*
X137680952Y-87404819D02*
X137490476Y-87404819D01*
X137490476Y-87404819D02*
X137395238Y-87452438D01*
X137395238Y-87452438D02*
X137347619Y-87500057D01*
X137347619Y-87500057D02*
X137252381Y-87642914D01*
X137252381Y-87642914D02*
X137204762Y-87833390D01*
X137204762Y-87833390D02*
X137204762Y-88214342D01*
X137204762Y-88214342D02*
X137252381Y-88309580D01*
X137252381Y-88309580D02*
X137300000Y-88357200D01*
X137300000Y-88357200D02*
X137395238Y-88404819D01*
X137395238Y-88404819D02*
X137585714Y-88404819D01*
X137585714Y-88404819D02*
X137680952Y-88357200D01*
X137680952Y-88357200D02*
X137728571Y-88309580D01*
X137728571Y-88309580D02*
X137776190Y-88214342D01*
X137776190Y-88214342D02*
X137776190Y-87976247D01*
X137776190Y-87976247D02*
X137728571Y-87881009D01*
X137728571Y-87881009D02*
X137680952Y-87833390D01*
X137680952Y-87833390D02*
X137585714Y-87785771D01*
X137585714Y-87785771D02*
X137395238Y-87785771D01*
X137395238Y-87785771D02*
X137300000Y-87833390D01*
X137300000Y-87833390D02*
X137252381Y-87881009D01*
X137252381Y-87881009D02*
X137204762Y-87976247D01*
X138395238Y-87404819D02*
X138490476Y-87404819D01*
X138490476Y-87404819D02*
X138585714Y-87452438D01*
X138585714Y-87452438D02*
X138633333Y-87500057D01*
X138633333Y-87500057D02*
X138680952Y-87595295D01*
X138680952Y-87595295D02*
X138728571Y-87785771D01*
X138728571Y-87785771D02*
X138728571Y-88023866D01*
X138728571Y-88023866D02*
X138680952Y-88214342D01*
X138680952Y-88214342D02*
X138633333Y-88309580D01*
X138633333Y-88309580D02*
X138585714Y-88357200D01*
X138585714Y-88357200D02*
X138490476Y-88404819D01*
X138490476Y-88404819D02*
X138395238Y-88404819D01*
X138395238Y-88404819D02*
X138300000Y-88357200D01*
X138300000Y-88357200D02*
X138252381Y-88309580D01*
X138252381Y-88309580D02*
X138204762Y-88214342D01*
X138204762Y-88214342D02*
X138157143Y-88023866D01*
X138157143Y-88023866D02*
X138157143Y-87785771D01*
X138157143Y-87785771D02*
X138204762Y-87595295D01*
X138204762Y-87595295D02*
X138252381Y-87500057D01*
X138252381Y-87500057D02*
X138300000Y-87452438D01*
X138300000Y-87452438D02*
X138395238Y-87404819D01*
X139157143Y-88404819D02*
X139157143Y-87404819D01*
X139157143Y-87404819D02*
X139538095Y-87404819D01*
X139538095Y-87404819D02*
X139633333Y-87452438D01*
X139633333Y-87452438D02*
X139680952Y-87500057D01*
X139680952Y-87500057D02*
X139728571Y-87595295D01*
X139728571Y-87595295D02*
X139728571Y-87738152D01*
X139728571Y-87738152D02*
X139680952Y-87833390D01*
X139680952Y-87833390D02*
X139633333Y-87881009D01*
X139633333Y-87881009D02*
X139538095Y-87928628D01*
X139538095Y-87928628D02*
X139157143Y-87928628D01*
X219053571Y-98604819D02*
X219053571Y-97604819D01*
X219053571Y-98081009D02*
X219624999Y-98081009D01*
X219624999Y-98604819D02*
X219624999Y-97604819D01*
X220672618Y-98509580D02*
X220624999Y-98557200D01*
X220624999Y-98557200D02*
X220482142Y-98604819D01*
X220482142Y-98604819D02*
X220386904Y-98604819D01*
X220386904Y-98604819D02*
X220244047Y-98557200D01*
X220244047Y-98557200D02*
X220148809Y-98461961D01*
X220148809Y-98461961D02*
X220101190Y-98366723D01*
X220101190Y-98366723D02*
X220053571Y-98176247D01*
X220053571Y-98176247D02*
X220053571Y-98033390D01*
X220053571Y-98033390D02*
X220101190Y-97842914D01*
X220101190Y-97842914D02*
X220148809Y-97747676D01*
X220148809Y-97747676D02*
X220244047Y-97652438D01*
X220244047Y-97652438D02*
X220386904Y-97604819D01*
X220386904Y-97604819D02*
X220482142Y-97604819D01*
X220482142Y-97604819D02*
X220624999Y-97652438D01*
X220624999Y-97652438D02*
X220672618Y-97700057D01*
X221101190Y-98223866D02*
X221863095Y-98223866D01*
X222767856Y-97938152D02*
X222767856Y-98604819D01*
X222529761Y-97557200D02*
X222291666Y-98271485D01*
X222291666Y-98271485D02*
X222910713Y-98271485D01*
X223339285Y-98604819D02*
X223529761Y-98604819D01*
X223529761Y-98604819D02*
X223624999Y-98557200D01*
X223624999Y-98557200D02*
X223672618Y-98509580D01*
X223672618Y-98509580D02*
X223767856Y-98366723D01*
X223767856Y-98366723D02*
X223815475Y-98176247D01*
X223815475Y-98176247D02*
X223815475Y-97795295D01*
X223815475Y-97795295D02*
X223767856Y-97700057D01*
X223767856Y-97700057D02*
X223720237Y-97652438D01*
X223720237Y-97652438D02*
X223624999Y-97604819D01*
X223624999Y-97604819D02*
X223434523Y-97604819D01*
X223434523Y-97604819D02*
X223339285Y-97652438D01*
X223339285Y-97652438D02*
X223291666Y-97700057D01*
X223291666Y-97700057D02*
X223244047Y-97795295D01*
X223244047Y-97795295D02*
X223244047Y-98033390D01*
X223244047Y-98033390D02*
X223291666Y-98128628D01*
X223291666Y-98128628D02*
X223339285Y-98176247D01*
X223339285Y-98176247D02*
X223434523Y-98223866D01*
X223434523Y-98223866D02*
X223624999Y-98223866D01*
X223624999Y-98223866D02*
X223720237Y-98176247D01*
X223720237Y-98176247D02*
X223767856Y-98128628D01*
X223767856Y-98128628D02*
X223815475Y-98033390D01*
X224863095Y-97604819D02*
X225196428Y-98604819D01*
X225196428Y-98604819D02*
X225529761Y-97604819D01*
X226244047Y-98557200D02*
X226148809Y-98604819D01*
X226148809Y-98604819D02*
X225958333Y-98604819D01*
X225958333Y-98604819D02*
X225863095Y-98557200D01*
X225863095Y-98557200D02*
X225815476Y-98461961D01*
X225815476Y-98461961D02*
X225815476Y-98081009D01*
X225815476Y-98081009D02*
X225863095Y-97985771D01*
X225863095Y-97985771D02*
X225958333Y-97938152D01*
X225958333Y-97938152D02*
X226148809Y-97938152D01*
X226148809Y-97938152D02*
X226244047Y-97985771D01*
X226244047Y-97985771D02*
X226291666Y-98081009D01*
X226291666Y-98081009D02*
X226291666Y-98176247D01*
X226291666Y-98176247D02*
X225815476Y-98271485D01*
X226720238Y-98604819D02*
X226720238Y-97938152D01*
X226720238Y-98128628D02*
X226767857Y-98033390D01*
X226767857Y-98033390D02*
X226815476Y-97985771D01*
X226815476Y-97985771D02*
X226910714Y-97938152D01*
X226910714Y-97938152D02*
X227005952Y-97938152D01*
X227196429Y-97938152D02*
X227577381Y-97938152D01*
X227339286Y-97604819D02*
X227339286Y-98461961D01*
X227339286Y-98461961D02*
X227386905Y-98557200D01*
X227386905Y-98557200D02*
X227482143Y-98604819D01*
X227482143Y-98604819D02*
X227577381Y-98604819D01*
X227910715Y-98604819D02*
X227910715Y-97938152D01*
X227910715Y-97604819D02*
X227863096Y-97652438D01*
X227863096Y-97652438D02*
X227910715Y-97700057D01*
X227910715Y-97700057D02*
X227958334Y-97652438D01*
X227958334Y-97652438D02*
X227910715Y-97604819D01*
X227910715Y-97604819D02*
X227910715Y-97700057D01*
X228815476Y-98557200D02*
X228720238Y-98604819D01*
X228720238Y-98604819D02*
X228529762Y-98604819D01*
X228529762Y-98604819D02*
X228434524Y-98557200D01*
X228434524Y-98557200D02*
X228386905Y-98509580D01*
X228386905Y-98509580D02*
X228339286Y-98414342D01*
X228339286Y-98414342D02*
X228339286Y-98128628D01*
X228339286Y-98128628D02*
X228386905Y-98033390D01*
X228386905Y-98033390D02*
X228434524Y-97985771D01*
X228434524Y-97985771D02*
X228529762Y-97938152D01*
X228529762Y-97938152D02*
X228720238Y-97938152D01*
X228720238Y-97938152D02*
X228815476Y-97985771D01*
X229672619Y-98604819D02*
X229672619Y-98081009D01*
X229672619Y-98081009D02*
X229625000Y-97985771D01*
X229625000Y-97985771D02*
X229529762Y-97938152D01*
X229529762Y-97938152D02*
X229339286Y-97938152D01*
X229339286Y-97938152D02*
X229244048Y-97985771D01*
X229672619Y-98557200D02*
X229577381Y-98604819D01*
X229577381Y-98604819D02*
X229339286Y-98604819D01*
X229339286Y-98604819D02*
X229244048Y-98557200D01*
X229244048Y-98557200D02*
X229196429Y-98461961D01*
X229196429Y-98461961D02*
X229196429Y-98366723D01*
X229196429Y-98366723D02*
X229244048Y-98271485D01*
X229244048Y-98271485D02*
X229339286Y-98223866D01*
X229339286Y-98223866D02*
X229577381Y-98223866D01*
X229577381Y-98223866D02*
X229672619Y-98176247D01*
X230291667Y-98604819D02*
X230196429Y-98557200D01*
X230196429Y-98557200D02*
X230148810Y-98461961D01*
X230148810Y-98461961D02*
X230148810Y-97604819D01*
X212866905Y-79929819D02*
X212866905Y-78929819D01*
X212866905Y-78929819D02*
X213247857Y-78929819D01*
X213247857Y-78929819D02*
X213343095Y-78977438D01*
X213343095Y-78977438D02*
X213390714Y-79025057D01*
X213390714Y-79025057D02*
X213438333Y-79120295D01*
X213438333Y-79120295D02*
X213438333Y-79263152D01*
X213438333Y-79263152D02*
X213390714Y-79358390D01*
X213390714Y-79358390D02*
X213343095Y-79406009D01*
X213343095Y-79406009D02*
X213247857Y-79453628D01*
X213247857Y-79453628D02*
X212866905Y-79453628D01*
X214390714Y-79929819D02*
X213819286Y-79929819D01*
X214105000Y-79929819D02*
X214105000Y-78929819D01*
X214105000Y-78929819D02*
X214009762Y-79072676D01*
X214009762Y-79072676D02*
X213914524Y-79167914D01*
X213914524Y-79167914D02*
X213819286Y-79215533D01*
X206343095Y-80679819D02*
X206343095Y-81489342D01*
X206343095Y-81489342D02*
X206390714Y-81584580D01*
X206390714Y-81584580D02*
X206438333Y-81632200D01*
X206438333Y-81632200D02*
X206533571Y-81679819D01*
X206533571Y-81679819D02*
X206724047Y-81679819D01*
X206724047Y-81679819D02*
X206819285Y-81632200D01*
X206819285Y-81632200D02*
X206866904Y-81584580D01*
X206866904Y-81584580D02*
X206914523Y-81489342D01*
X206914523Y-81489342D02*
X206914523Y-80679819D01*
X207343095Y-81632200D02*
X207485952Y-81679819D01*
X207485952Y-81679819D02*
X207724047Y-81679819D01*
X207724047Y-81679819D02*
X207819285Y-81632200D01*
X207819285Y-81632200D02*
X207866904Y-81584580D01*
X207866904Y-81584580D02*
X207914523Y-81489342D01*
X207914523Y-81489342D02*
X207914523Y-81394104D01*
X207914523Y-81394104D02*
X207866904Y-81298866D01*
X207866904Y-81298866D02*
X207819285Y-81251247D01*
X207819285Y-81251247D02*
X207724047Y-81203628D01*
X207724047Y-81203628D02*
X207533571Y-81156009D01*
X207533571Y-81156009D02*
X207438333Y-81108390D01*
X207438333Y-81108390D02*
X207390714Y-81060771D01*
X207390714Y-81060771D02*
X207343095Y-80965533D01*
X207343095Y-80965533D02*
X207343095Y-80870295D01*
X207343095Y-80870295D02*
X207390714Y-80775057D01*
X207390714Y-80775057D02*
X207438333Y-80727438D01*
X207438333Y-80727438D02*
X207533571Y-80679819D01*
X207533571Y-80679819D02*
X207771666Y-80679819D01*
X207771666Y-80679819D02*
X207914523Y-80727438D01*
X208676428Y-81156009D02*
X208819285Y-81203628D01*
X208819285Y-81203628D02*
X208866904Y-81251247D01*
X208866904Y-81251247D02*
X208914523Y-81346485D01*
X208914523Y-81346485D02*
X208914523Y-81489342D01*
X208914523Y-81489342D02*
X208866904Y-81584580D01*
X208866904Y-81584580D02*
X208819285Y-81632200D01*
X208819285Y-81632200D02*
X208724047Y-81679819D01*
X208724047Y-81679819D02*
X208343095Y-81679819D01*
X208343095Y-81679819D02*
X208343095Y-80679819D01*
X208343095Y-80679819D02*
X208676428Y-80679819D01*
X208676428Y-80679819D02*
X208771666Y-80727438D01*
X208771666Y-80727438D02*
X208819285Y-80775057D01*
X208819285Y-80775057D02*
X208866904Y-80870295D01*
X208866904Y-80870295D02*
X208866904Y-80965533D01*
X208866904Y-80965533D02*
X208819285Y-81060771D01*
X208819285Y-81060771D02*
X208771666Y-81108390D01*
X208771666Y-81108390D02*
X208676428Y-81156009D01*
X208676428Y-81156009D02*
X208343095Y-81156009D01*
X209105000Y-81775057D02*
X209866904Y-81775057D01*
X210676428Y-81584580D02*
X210628809Y-81632200D01*
X210628809Y-81632200D02*
X210485952Y-81679819D01*
X210485952Y-81679819D02*
X210390714Y-81679819D01*
X210390714Y-81679819D02*
X210247857Y-81632200D01*
X210247857Y-81632200D02*
X210152619Y-81536961D01*
X210152619Y-81536961D02*
X210105000Y-81441723D01*
X210105000Y-81441723D02*
X210057381Y-81251247D01*
X210057381Y-81251247D02*
X210057381Y-81108390D01*
X210057381Y-81108390D02*
X210105000Y-80917914D01*
X210105000Y-80917914D02*
X210152619Y-80822676D01*
X210152619Y-80822676D02*
X210247857Y-80727438D01*
X210247857Y-80727438D02*
X210390714Y-80679819D01*
X210390714Y-80679819D02*
X210485952Y-80679819D01*
X210485952Y-80679819D02*
X210628809Y-80727438D01*
X210628809Y-80727438D02*
X210676428Y-80775057D01*
X210866905Y-81775057D02*
X211628809Y-81775057D01*
X211866905Y-81679819D02*
X211866905Y-80679819D01*
X211866905Y-80679819D02*
X212247857Y-80679819D01*
X212247857Y-80679819D02*
X212343095Y-80727438D01*
X212343095Y-80727438D02*
X212390714Y-80775057D01*
X212390714Y-80775057D02*
X212438333Y-80870295D01*
X212438333Y-80870295D02*
X212438333Y-81013152D01*
X212438333Y-81013152D02*
X212390714Y-81108390D01*
X212390714Y-81108390D02*
X212343095Y-81156009D01*
X212343095Y-81156009D02*
X212247857Y-81203628D01*
X212247857Y-81203628D02*
X211866905Y-81203628D01*
X213009762Y-81679819D02*
X212914524Y-81632200D01*
X212914524Y-81632200D02*
X212866905Y-81536961D01*
X212866905Y-81536961D02*
X212866905Y-80679819D01*
X213819286Y-81013152D02*
X213819286Y-81679819D01*
X213390715Y-81013152D02*
X213390715Y-81536961D01*
X213390715Y-81536961D02*
X213438334Y-81632200D01*
X213438334Y-81632200D02*
X213533572Y-81679819D01*
X213533572Y-81679819D02*
X213676429Y-81679819D01*
X213676429Y-81679819D02*
X213771667Y-81632200D01*
X213771667Y-81632200D02*
X213819286Y-81584580D01*
X214724048Y-81013152D02*
X214724048Y-81822676D01*
X214724048Y-81822676D02*
X214676429Y-81917914D01*
X214676429Y-81917914D02*
X214628810Y-81965533D01*
X214628810Y-81965533D02*
X214533572Y-82013152D01*
X214533572Y-82013152D02*
X214390715Y-82013152D01*
X214390715Y-82013152D02*
X214295477Y-81965533D01*
X214724048Y-81632200D02*
X214628810Y-81679819D01*
X214628810Y-81679819D02*
X214438334Y-81679819D01*
X214438334Y-81679819D02*
X214343096Y-81632200D01*
X214343096Y-81632200D02*
X214295477Y-81584580D01*
X214295477Y-81584580D02*
X214247858Y-81489342D01*
X214247858Y-81489342D02*
X214247858Y-81203628D01*
X214247858Y-81203628D02*
X214295477Y-81108390D01*
X214295477Y-81108390D02*
X214343096Y-81060771D01*
X214343096Y-81060771D02*
X214438334Y-81013152D01*
X214438334Y-81013152D02*
X214628810Y-81013152D01*
X214628810Y-81013152D02*
X214724048Y-81060771D01*
X214962144Y-81775057D02*
X215724048Y-81775057D01*
X215962144Y-80679819D02*
X215962144Y-81489342D01*
X215962144Y-81489342D02*
X216009763Y-81584580D01*
X216009763Y-81584580D02*
X216057382Y-81632200D01*
X216057382Y-81632200D02*
X216152620Y-81679819D01*
X216152620Y-81679819D02*
X216343096Y-81679819D01*
X216343096Y-81679819D02*
X216438334Y-81632200D01*
X216438334Y-81632200D02*
X216485953Y-81584580D01*
X216485953Y-81584580D02*
X216533572Y-81489342D01*
X216533572Y-81489342D02*
X216533572Y-80679819D01*
X216962144Y-81632200D02*
X217105001Y-81679819D01*
X217105001Y-81679819D02*
X217343096Y-81679819D01*
X217343096Y-81679819D02*
X217438334Y-81632200D01*
X217438334Y-81632200D02*
X217485953Y-81584580D01*
X217485953Y-81584580D02*
X217533572Y-81489342D01*
X217533572Y-81489342D02*
X217533572Y-81394104D01*
X217533572Y-81394104D02*
X217485953Y-81298866D01*
X217485953Y-81298866D02*
X217438334Y-81251247D01*
X217438334Y-81251247D02*
X217343096Y-81203628D01*
X217343096Y-81203628D02*
X217152620Y-81156009D01*
X217152620Y-81156009D02*
X217057382Y-81108390D01*
X217057382Y-81108390D02*
X217009763Y-81060771D01*
X217009763Y-81060771D02*
X216962144Y-80965533D01*
X216962144Y-80965533D02*
X216962144Y-80870295D01*
X216962144Y-80870295D02*
X217009763Y-80775057D01*
X217009763Y-80775057D02*
X217057382Y-80727438D01*
X217057382Y-80727438D02*
X217152620Y-80679819D01*
X217152620Y-80679819D02*
X217390715Y-80679819D01*
X217390715Y-80679819D02*
X217533572Y-80727438D01*
X218295477Y-81156009D02*
X218438334Y-81203628D01*
X218438334Y-81203628D02*
X218485953Y-81251247D01*
X218485953Y-81251247D02*
X218533572Y-81346485D01*
X218533572Y-81346485D02*
X218533572Y-81489342D01*
X218533572Y-81489342D02*
X218485953Y-81584580D01*
X218485953Y-81584580D02*
X218438334Y-81632200D01*
X218438334Y-81632200D02*
X218343096Y-81679819D01*
X218343096Y-81679819D02*
X217962144Y-81679819D01*
X217962144Y-81679819D02*
X217962144Y-80679819D01*
X217962144Y-80679819D02*
X218295477Y-80679819D01*
X218295477Y-80679819D02*
X218390715Y-80727438D01*
X218390715Y-80727438D02*
X218438334Y-80775057D01*
X218438334Y-80775057D02*
X218485953Y-80870295D01*
X218485953Y-80870295D02*
X218485953Y-80965533D01*
X218485953Y-80965533D02*
X218438334Y-81060771D01*
X218438334Y-81060771D02*
X218390715Y-81108390D01*
X218390715Y-81108390D02*
X218295477Y-81156009D01*
X218295477Y-81156009D02*
X217962144Y-81156009D01*
X218914525Y-80775057D02*
X218962144Y-80727438D01*
X218962144Y-80727438D02*
X219057382Y-80679819D01*
X219057382Y-80679819D02*
X219295477Y-80679819D01*
X219295477Y-80679819D02*
X219390715Y-80727438D01*
X219390715Y-80727438D02*
X219438334Y-80775057D01*
X219438334Y-80775057D02*
X219485953Y-80870295D01*
X219485953Y-80870295D02*
X219485953Y-80965533D01*
X219485953Y-80965533D02*
X219438334Y-81108390D01*
X219438334Y-81108390D02*
X218866906Y-81679819D01*
X218866906Y-81679819D02*
X219485953Y-81679819D01*
X219914525Y-81584580D02*
X219962144Y-81632200D01*
X219962144Y-81632200D02*
X219914525Y-81679819D01*
X219914525Y-81679819D02*
X219866906Y-81632200D01*
X219866906Y-81632200D02*
X219914525Y-81584580D01*
X219914525Y-81584580D02*
X219914525Y-81679819D01*
X220581191Y-80679819D02*
X220676429Y-80679819D01*
X220676429Y-80679819D02*
X220771667Y-80727438D01*
X220771667Y-80727438D02*
X220819286Y-80775057D01*
X220819286Y-80775057D02*
X220866905Y-80870295D01*
X220866905Y-80870295D02*
X220914524Y-81060771D01*
X220914524Y-81060771D02*
X220914524Y-81298866D01*
X220914524Y-81298866D02*
X220866905Y-81489342D01*
X220866905Y-81489342D02*
X220819286Y-81584580D01*
X220819286Y-81584580D02*
X220771667Y-81632200D01*
X220771667Y-81632200D02*
X220676429Y-81679819D01*
X220676429Y-81679819D02*
X220581191Y-81679819D01*
X220581191Y-81679819D02*
X220485953Y-81632200D01*
X220485953Y-81632200D02*
X220438334Y-81584580D01*
X220438334Y-81584580D02*
X220390715Y-81489342D01*
X220390715Y-81489342D02*
X220343096Y-81298866D01*
X220343096Y-81298866D02*
X220343096Y-81060771D01*
X220343096Y-81060771D02*
X220390715Y-80870295D01*
X220390715Y-80870295D02*
X220438334Y-80775057D01*
X220438334Y-80775057D02*
X220485953Y-80727438D01*
X220485953Y-80727438D02*
X220581191Y-80679819D01*
X211028571Y-71229819D02*
X211028571Y-72039342D01*
X211028571Y-72039342D02*
X211076190Y-72134580D01*
X211076190Y-72134580D02*
X211123809Y-72182200D01*
X211123809Y-72182200D02*
X211219047Y-72229819D01*
X211219047Y-72229819D02*
X211409523Y-72229819D01*
X211409523Y-72229819D02*
X211504761Y-72182200D01*
X211504761Y-72182200D02*
X211552380Y-72134580D01*
X211552380Y-72134580D02*
X211599999Y-72039342D01*
X211599999Y-72039342D02*
X211599999Y-71229819D01*
X212028571Y-72182200D02*
X212171428Y-72229819D01*
X212171428Y-72229819D02*
X212409523Y-72229819D01*
X212409523Y-72229819D02*
X212504761Y-72182200D01*
X212504761Y-72182200D02*
X212552380Y-72134580D01*
X212552380Y-72134580D02*
X212599999Y-72039342D01*
X212599999Y-72039342D02*
X212599999Y-71944104D01*
X212599999Y-71944104D02*
X212552380Y-71848866D01*
X212552380Y-71848866D02*
X212504761Y-71801247D01*
X212504761Y-71801247D02*
X212409523Y-71753628D01*
X212409523Y-71753628D02*
X212219047Y-71706009D01*
X212219047Y-71706009D02*
X212123809Y-71658390D01*
X212123809Y-71658390D02*
X212076190Y-71610771D01*
X212076190Y-71610771D02*
X212028571Y-71515533D01*
X212028571Y-71515533D02*
X212028571Y-71420295D01*
X212028571Y-71420295D02*
X212076190Y-71325057D01*
X212076190Y-71325057D02*
X212123809Y-71277438D01*
X212123809Y-71277438D02*
X212219047Y-71229819D01*
X212219047Y-71229819D02*
X212457142Y-71229819D01*
X212457142Y-71229819D02*
X212599999Y-71277438D01*
X213361904Y-71706009D02*
X213504761Y-71753628D01*
X213504761Y-71753628D02*
X213552380Y-71801247D01*
X213552380Y-71801247D02*
X213599999Y-71896485D01*
X213599999Y-71896485D02*
X213599999Y-72039342D01*
X213599999Y-72039342D02*
X213552380Y-72134580D01*
X213552380Y-72134580D02*
X213504761Y-72182200D01*
X213504761Y-72182200D02*
X213409523Y-72229819D01*
X213409523Y-72229819D02*
X213028571Y-72229819D01*
X213028571Y-72229819D02*
X213028571Y-71229819D01*
X213028571Y-71229819D02*
X213361904Y-71229819D01*
X213361904Y-71229819D02*
X213457142Y-71277438D01*
X213457142Y-71277438D02*
X213504761Y-71325057D01*
X213504761Y-71325057D02*
X213552380Y-71420295D01*
X213552380Y-71420295D02*
X213552380Y-71515533D01*
X213552380Y-71515533D02*
X213504761Y-71610771D01*
X213504761Y-71610771D02*
X213457142Y-71658390D01*
X213457142Y-71658390D02*
X213361904Y-71706009D01*
X213361904Y-71706009D02*
X213028571Y-71706009D01*
X213790476Y-72325057D02*
X214552380Y-72325057D01*
X214742857Y-71944104D02*
X215219047Y-71944104D01*
X214647619Y-72229819D02*
X214980952Y-71229819D01*
X214980952Y-71229819D02*
X215314285Y-72229819D01*
X153228809Y-57674819D02*
X153324047Y-57674819D01*
X153324047Y-57674819D02*
X153419285Y-57722438D01*
X153419285Y-57722438D02*
X153466904Y-57770057D01*
X153466904Y-57770057D02*
X153514523Y-57865295D01*
X153514523Y-57865295D02*
X153562142Y-58055771D01*
X153562142Y-58055771D02*
X153562142Y-58293866D01*
X153562142Y-58293866D02*
X153514523Y-58484342D01*
X153514523Y-58484342D02*
X153466904Y-58579580D01*
X153466904Y-58579580D02*
X153419285Y-58627200D01*
X153419285Y-58627200D02*
X153324047Y-58674819D01*
X153324047Y-58674819D02*
X153228809Y-58674819D01*
X153228809Y-58674819D02*
X153133571Y-58627200D01*
X153133571Y-58627200D02*
X153085952Y-58579580D01*
X153085952Y-58579580D02*
X153038333Y-58484342D01*
X153038333Y-58484342D02*
X152990714Y-58293866D01*
X152990714Y-58293866D02*
X152990714Y-58055771D01*
X152990714Y-58055771D02*
X153038333Y-57865295D01*
X153038333Y-57865295D02*
X153085952Y-57770057D01*
X153085952Y-57770057D02*
X153133571Y-57722438D01*
X153133571Y-57722438D02*
X153228809Y-57674819D01*
X154419285Y-58008152D02*
X154419285Y-58674819D01*
X154181190Y-57627200D02*
X153943095Y-58341485D01*
X153943095Y-58341485D02*
X154562142Y-58341485D01*
X155133571Y-57674819D02*
X155228809Y-57674819D01*
X155228809Y-57674819D02*
X155324047Y-57722438D01*
X155324047Y-57722438D02*
X155371666Y-57770057D01*
X155371666Y-57770057D02*
X155419285Y-57865295D01*
X155419285Y-57865295D02*
X155466904Y-58055771D01*
X155466904Y-58055771D02*
X155466904Y-58293866D01*
X155466904Y-58293866D02*
X155419285Y-58484342D01*
X155419285Y-58484342D02*
X155371666Y-58579580D01*
X155371666Y-58579580D02*
X155324047Y-58627200D01*
X155324047Y-58627200D02*
X155228809Y-58674819D01*
X155228809Y-58674819D02*
X155133571Y-58674819D01*
X155133571Y-58674819D02*
X155038333Y-58627200D01*
X155038333Y-58627200D02*
X154990714Y-58579580D01*
X154990714Y-58579580D02*
X154943095Y-58484342D01*
X154943095Y-58484342D02*
X154895476Y-58293866D01*
X154895476Y-58293866D02*
X154895476Y-58055771D01*
X154895476Y-58055771D02*
X154943095Y-57865295D01*
X154943095Y-57865295D02*
X154990714Y-57770057D01*
X154990714Y-57770057D02*
X155038333Y-57722438D01*
X155038333Y-57722438D02*
X155133571Y-57674819D01*
X155847857Y-57770057D02*
X155895476Y-57722438D01*
X155895476Y-57722438D02*
X155990714Y-57674819D01*
X155990714Y-57674819D02*
X156228809Y-57674819D01*
X156228809Y-57674819D02*
X156324047Y-57722438D01*
X156324047Y-57722438D02*
X156371666Y-57770057D01*
X156371666Y-57770057D02*
X156419285Y-57865295D01*
X156419285Y-57865295D02*
X156419285Y-57960533D01*
X156419285Y-57960533D02*
X156371666Y-58103390D01*
X156371666Y-58103390D02*
X155800238Y-58674819D01*
X155800238Y-58674819D02*
X156419285Y-58674819D01*
X244541428Y-93529819D02*
X243970000Y-93529819D01*
X244255714Y-93529819D02*
X244255714Y-92529819D01*
X244255714Y-92529819D02*
X244160476Y-92672676D01*
X244160476Y-92672676D02*
X244065238Y-92767914D01*
X244065238Y-92767914D02*
X243970000Y-92815533D01*
X244970000Y-93529819D02*
X244970000Y-92529819D01*
X244970000Y-92529819D02*
X245541428Y-93529819D01*
X245541428Y-93529819D02*
X245541428Y-92529819D01*
X246446190Y-92863152D02*
X246446190Y-93529819D01*
X246208095Y-92482200D02*
X245970000Y-93196485D01*
X245970000Y-93196485D02*
X246589047Y-93196485D01*
X246874762Y-92529819D02*
X247541428Y-92529819D01*
X247541428Y-92529819D02*
X247112857Y-93529819D01*
X247827143Y-93529819D02*
X248350952Y-92863152D01*
X247827143Y-92863152D02*
X248350952Y-93529819D01*
X248636667Y-93529819D02*
X249160476Y-92863152D01*
X248636667Y-92863152D02*
X249160476Y-93529819D01*
X249493810Y-93244104D02*
X249970000Y-93244104D01*
X249398572Y-93529819D02*
X249731905Y-92529819D01*
X249731905Y-92529819D02*
X250065238Y-93529819D01*
X179292857Y-103054819D02*
X179292857Y-102054819D01*
X180340475Y-103054819D02*
X180007142Y-102578628D01*
X179769047Y-103054819D02*
X179769047Y-102054819D01*
X179769047Y-102054819D02*
X180149999Y-102054819D01*
X180149999Y-102054819D02*
X180245237Y-102102438D01*
X180245237Y-102102438D02*
X180292856Y-102150057D01*
X180292856Y-102150057D02*
X180340475Y-102245295D01*
X180340475Y-102245295D02*
X180340475Y-102388152D01*
X180340475Y-102388152D02*
X180292856Y-102483390D01*
X180292856Y-102483390D02*
X180245237Y-102531009D01*
X180245237Y-102531009D02*
X180149999Y-102578628D01*
X180149999Y-102578628D02*
X179769047Y-102578628D01*
X180721428Y-103007200D02*
X180864285Y-103054819D01*
X180864285Y-103054819D02*
X181102380Y-103054819D01*
X181102380Y-103054819D02*
X181197618Y-103007200D01*
X181197618Y-103007200D02*
X181245237Y-102959580D01*
X181245237Y-102959580D02*
X181292856Y-102864342D01*
X181292856Y-102864342D02*
X181292856Y-102769104D01*
X181292856Y-102769104D02*
X181245237Y-102673866D01*
X181245237Y-102673866D02*
X181197618Y-102626247D01*
X181197618Y-102626247D02*
X181102380Y-102578628D01*
X181102380Y-102578628D02*
X180911904Y-102531009D01*
X180911904Y-102531009D02*
X180816666Y-102483390D01*
X180816666Y-102483390D02*
X180769047Y-102435771D01*
X180769047Y-102435771D02*
X180721428Y-102340533D01*
X180721428Y-102340533D02*
X180721428Y-102245295D01*
X180721428Y-102245295D02*
X180769047Y-102150057D01*
X180769047Y-102150057D02*
X180816666Y-102102438D01*
X180816666Y-102102438D02*
X180911904Y-102054819D01*
X180911904Y-102054819D02*
X181149999Y-102054819D01*
X181149999Y-102054819D02*
X181292856Y-102102438D01*
X181673809Y-102150057D02*
X181721428Y-102102438D01*
X181721428Y-102102438D02*
X181816666Y-102054819D01*
X181816666Y-102054819D02*
X182054761Y-102054819D01*
X182054761Y-102054819D02*
X182149999Y-102102438D01*
X182149999Y-102102438D02*
X182197618Y-102150057D01*
X182197618Y-102150057D02*
X182245237Y-102245295D01*
X182245237Y-102245295D02*
X182245237Y-102340533D01*
X182245237Y-102340533D02*
X182197618Y-102483390D01*
X182197618Y-102483390D02*
X181626190Y-103054819D01*
X181626190Y-103054819D02*
X182245237Y-103054819D01*
X182864285Y-102054819D02*
X182959523Y-102054819D01*
X182959523Y-102054819D02*
X183054761Y-102102438D01*
X183054761Y-102102438D02*
X183102380Y-102150057D01*
X183102380Y-102150057D02*
X183149999Y-102245295D01*
X183149999Y-102245295D02*
X183197618Y-102435771D01*
X183197618Y-102435771D02*
X183197618Y-102673866D01*
X183197618Y-102673866D02*
X183149999Y-102864342D01*
X183149999Y-102864342D02*
X183102380Y-102959580D01*
X183102380Y-102959580D02*
X183054761Y-103007200D01*
X183054761Y-103007200D02*
X182959523Y-103054819D01*
X182959523Y-103054819D02*
X182864285Y-103054819D01*
X182864285Y-103054819D02*
X182769047Y-103007200D01*
X182769047Y-103007200D02*
X182721428Y-102959580D01*
X182721428Y-102959580D02*
X182673809Y-102864342D01*
X182673809Y-102864342D02*
X182626190Y-102673866D01*
X182626190Y-102673866D02*
X182626190Y-102435771D01*
X182626190Y-102435771D02*
X182673809Y-102245295D01*
X182673809Y-102245295D02*
X182721428Y-102150057D01*
X182721428Y-102150057D02*
X182769047Y-102102438D01*
X182769047Y-102102438D02*
X182864285Y-102054819D01*
X183673809Y-103054819D02*
X183864285Y-103054819D01*
X183864285Y-103054819D02*
X183959523Y-103007200D01*
X183959523Y-103007200D02*
X184007142Y-102959580D01*
X184007142Y-102959580D02*
X184102380Y-102816723D01*
X184102380Y-102816723D02*
X184149999Y-102626247D01*
X184149999Y-102626247D02*
X184149999Y-102245295D01*
X184149999Y-102245295D02*
X184102380Y-102150057D01*
X184102380Y-102150057D02*
X184054761Y-102102438D01*
X184054761Y-102102438D02*
X183959523Y-102054819D01*
X183959523Y-102054819D02*
X183769047Y-102054819D01*
X183769047Y-102054819D02*
X183673809Y-102102438D01*
X183673809Y-102102438D02*
X183626190Y-102150057D01*
X183626190Y-102150057D02*
X183578571Y-102245295D01*
X183578571Y-102245295D02*
X183578571Y-102483390D01*
X183578571Y-102483390D02*
X183626190Y-102578628D01*
X183626190Y-102578628D02*
X183673809Y-102626247D01*
X183673809Y-102626247D02*
X183769047Y-102673866D01*
X183769047Y-102673866D02*
X183959523Y-102673866D01*
X183959523Y-102673866D02*
X184054761Y-102626247D01*
X184054761Y-102626247D02*
X184102380Y-102578628D01*
X184102380Y-102578628D02*
X184149999Y-102483390D01*
X184530952Y-102150057D02*
X184578571Y-102102438D01*
X184578571Y-102102438D02*
X184673809Y-102054819D01*
X184673809Y-102054819D02*
X184911904Y-102054819D01*
X184911904Y-102054819D02*
X185007142Y-102102438D01*
X185007142Y-102102438D02*
X185054761Y-102150057D01*
X185054761Y-102150057D02*
X185102380Y-102245295D01*
X185102380Y-102245295D02*
X185102380Y-102340533D01*
X185102380Y-102340533D02*
X185054761Y-102483390D01*
X185054761Y-102483390D02*
X184483333Y-103054819D01*
X184483333Y-103054819D02*
X185102380Y-103054819D01*
X185483333Y-103007200D02*
X185626190Y-103054819D01*
X185626190Y-103054819D02*
X185864285Y-103054819D01*
X185864285Y-103054819D02*
X185959523Y-103007200D01*
X185959523Y-103007200D02*
X186007142Y-102959580D01*
X186007142Y-102959580D02*
X186054761Y-102864342D01*
X186054761Y-102864342D02*
X186054761Y-102769104D01*
X186054761Y-102769104D02*
X186007142Y-102673866D01*
X186007142Y-102673866D02*
X185959523Y-102626247D01*
X185959523Y-102626247D02*
X185864285Y-102578628D01*
X185864285Y-102578628D02*
X185673809Y-102531009D01*
X185673809Y-102531009D02*
X185578571Y-102483390D01*
X185578571Y-102483390D02*
X185530952Y-102435771D01*
X185530952Y-102435771D02*
X185483333Y-102340533D01*
X185483333Y-102340533D02*
X185483333Y-102245295D01*
X185483333Y-102245295D02*
X185530952Y-102150057D01*
X185530952Y-102150057D02*
X185578571Y-102102438D01*
X185578571Y-102102438D02*
X185673809Y-102054819D01*
X185673809Y-102054819D02*
X185911904Y-102054819D01*
X185911904Y-102054819D02*
X186054761Y-102102438D01*
X162398809Y-58274819D02*
X162494047Y-58274819D01*
X162494047Y-58274819D02*
X162589285Y-58322438D01*
X162589285Y-58322438D02*
X162636904Y-58370057D01*
X162636904Y-58370057D02*
X162684523Y-58465295D01*
X162684523Y-58465295D02*
X162732142Y-58655771D01*
X162732142Y-58655771D02*
X162732142Y-58893866D01*
X162732142Y-58893866D02*
X162684523Y-59084342D01*
X162684523Y-59084342D02*
X162636904Y-59179580D01*
X162636904Y-59179580D02*
X162589285Y-59227200D01*
X162589285Y-59227200D02*
X162494047Y-59274819D01*
X162494047Y-59274819D02*
X162398809Y-59274819D01*
X162398809Y-59274819D02*
X162303571Y-59227200D01*
X162303571Y-59227200D02*
X162255952Y-59179580D01*
X162255952Y-59179580D02*
X162208333Y-59084342D01*
X162208333Y-59084342D02*
X162160714Y-58893866D01*
X162160714Y-58893866D02*
X162160714Y-58655771D01*
X162160714Y-58655771D02*
X162208333Y-58465295D01*
X162208333Y-58465295D02*
X162255952Y-58370057D01*
X162255952Y-58370057D02*
X162303571Y-58322438D01*
X162303571Y-58322438D02*
X162398809Y-58274819D01*
X163303571Y-58703390D02*
X163208333Y-58655771D01*
X163208333Y-58655771D02*
X163160714Y-58608152D01*
X163160714Y-58608152D02*
X163113095Y-58512914D01*
X163113095Y-58512914D02*
X163113095Y-58465295D01*
X163113095Y-58465295D02*
X163160714Y-58370057D01*
X163160714Y-58370057D02*
X163208333Y-58322438D01*
X163208333Y-58322438D02*
X163303571Y-58274819D01*
X163303571Y-58274819D02*
X163494047Y-58274819D01*
X163494047Y-58274819D02*
X163589285Y-58322438D01*
X163589285Y-58322438D02*
X163636904Y-58370057D01*
X163636904Y-58370057D02*
X163684523Y-58465295D01*
X163684523Y-58465295D02*
X163684523Y-58512914D01*
X163684523Y-58512914D02*
X163636904Y-58608152D01*
X163636904Y-58608152D02*
X163589285Y-58655771D01*
X163589285Y-58655771D02*
X163494047Y-58703390D01*
X163494047Y-58703390D02*
X163303571Y-58703390D01*
X163303571Y-58703390D02*
X163208333Y-58751009D01*
X163208333Y-58751009D02*
X163160714Y-58798628D01*
X163160714Y-58798628D02*
X163113095Y-58893866D01*
X163113095Y-58893866D02*
X163113095Y-59084342D01*
X163113095Y-59084342D02*
X163160714Y-59179580D01*
X163160714Y-59179580D02*
X163208333Y-59227200D01*
X163208333Y-59227200D02*
X163303571Y-59274819D01*
X163303571Y-59274819D02*
X163494047Y-59274819D01*
X163494047Y-59274819D02*
X163589285Y-59227200D01*
X163589285Y-59227200D02*
X163636904Y-59179580D01*
X163636904Y-59179580D02*
X163684523Y-59084342D01*
X163684523Y-59084342D02*
X163684523Y-58893866D01*
X163684523Y-58893866D02*
X163636904Y-58798628D01*
X163636904Y-58798628D02*
X163589285Y-58751009D01*
X163589285Y-58751009D02*
X163494047Y-58703390D01*
X164303571Y-58274819D02*
X164398809Y-58274819D01*
X164398809Y-58274819D02*
X164494047Y-58322438D01*
X164494047Y-58322438D02*
X164541666Y-58370057D01*
X164541666Y-58370057D02*
X164589285Y-58465295D01*
X164589285Y-58465295D02*
X164636904Y-58655771D01*
X164636904Y-58655771D02*
X164636904Y-58893866D01*
X164636904Y-58893866D02*
X164589285Y-59084342D01*
X164589285Y-59084342D02*
X164541666Y-59179580D01*
X164541666Y-59179580D02*
X164494047Y-59227200D01*
X164494047Y-59227200D02*
X164398809Y-59274819D01*
X164398809Y-59274819D02*
X164303571Y-59274819D01*
X164303571Y-59274819D02*
X164208333Y-59227200D01*
X164208333Y-59227200D02*
X164160714Y-59179580D01*
X164160714Y-59179580D02*
X164113095Y-59084342D01*
X164113095Y-59084342D02*
X164065476Y-58893866D01*
X164065476Y-58893866D02*
X164065476Y-58655771D01*
X164065476Y-58655771D02*
X164113095Y-58465295D01*
X164113095Y-58465295D02*
X164160714Y-58370057D01*
X164160714Y-58370057D02*
X164208333Y-58322438D01*
X164208333Y-58322438D02*
X164303571Y-58274819D01*
X165541666Y-58274819D02*
X165065476Y-58274819D01*
X165065476Y-58274819D02*
X165017857Y-58751009D01*
X165017857Y-58751009D02*
X165065476Y-58703390D01*
X165065476Y-58703390D02*
X165160714Y-58655771D01*
X165160714Y-58655771D02*
X165398809Y-58655771D01*
X165398809Y-58655771D02*
X165494047Y-58703390D01*
X165494047Y-58703390D02*
X165541666Y-58751009D01*
X165541666Y-58751009D02*
X165589285Y-58846247D01*
X165589285Y-58846247D02*
X165589285Y-59084342D01*
X165589285Y-59084342D02*
X165541666Y-59179580D01*
X165541666Y-59179580D02*
X165494047Y-59227200D01*
X165494047Y-59227200D02*
X165398809Y-59274819D01*
X165398809Y-59274819D02*
X165160714Y-59274819D01*
X165160714Y-59274819D02*
X165065476Y-59227200D01*
X165065476Y-59227200D02*
X165017857Y-59179580D01*
X124502381Y-128881009D02*
X124835714Y-128881009D01*
X124978571Y-129404819D02*
X124502381Y-129404819D01*
X124502381Y-129404819D02*
X124502381Y-128404819D01*
X124502381Y-128404819D02*
X124978571Y-128404819D01*
X125359524Y-129357200D02*
X125502381Y-129404819D01*
X125502381Y-129404819D02*
X125740476Y-129404819D01*
X125740476Y-129404819D02*
X125835714Y-129357200D01*
X125835714Y-129357200D02*
X125883333Y-129309580D01*
X125883333Y-129309580D02*
X125930952Y-129214342D01*
X125930952Y-129214342D02*
X125930952Y-129119104D01*
X125930952Y-129119104D02*
X125883333Y-129023866D01*
X125883333Y-129023866D02*
X125835714Y-128976247D01*
X125835714Y-128976247D02*
X125740476Y-128928628D01*
X125740476Y-128928628D02*
X125550000Y-128881009D01*
X125550000Y-128881009D02*
X125454762Y-128833390D01*
X125454762Y-128833390D02*
X125407143Y-128785771D01*
X125407143Y-128785771D02*
X125359524Y-128690533D01*
X125359524Y-128690533D02*
X125359524Y-128595295D01*
X125359524Y-128595295D02*
X125407143Y-128500057D01*
X125407143Y-128500057D02*
X125454762Y-128452438D01*
X125454762Y-128452438D02*
X125550000Y-128404819D01*
X125550000Y-128404819D02*
X125788095Y-128404819D01*
X125788095Y-128404819D02*
X125930952Y-128452438D01*
X126359524Y-129404819D02*
X126359524Y-128404819D01*
X126359524Y-128404819D02*
X126740476Y-128404819D01*
X126740476Y-128404819D02*
X126835714Y-128452438D01*
X126835714Y-128452438D02*
X126883333Y-128500057D01*
X126883333Y-128500057D02*
X126930952Y-128595295D01*
X126930952Y-128595295D02*
X126930952Y-128738152D01*
X126930952Y-128738152D02*
X126883333Y-128833390D01*
X126883333Y-128833390D02*
X126835714Y-128881009D01*
X126835714Y-128881009D02*
X126740476Y-128928628D01*
X126740476Y-128928628D02*
X126359524Y-128928628D01*
X127264286Y-128404819D02*
X127883333Y-128404819D01*
X127883333Y-128404819D02*
X127550000Y-128785771D01*
X127550000Y-128785771D02*
X127692857Y-128785771D01*
X127692857Y-128785771D02*
X127788095Y-128833390D01*
X127788095Y-128833390D02*
X127835714Y-128881009D01*
X127835714Y-128881009D02*
X127883333Y-128976247D01*
X127883333Y-128976247D02*
X127883333Y-129214342D01*
X127883333Y-129214342D02*
X127835714Y-129309580D01*
X127835714Y-129309580D02*
X127788095Y-129357200D01*
X127788095Y-129357200D02*
X127692857Y-129404819D01*
X127692857Y-129404819D02*
X127407143Y-129404819D01*
X127407143Y-129404819D02*
X127311905Y-129357200D01*
X127311905Y-129357200D02*
X127264286Y-129309580D01*
X128264286Y-128500057D02*
X128311905Y-128452438D01*
X128311905Y-128452438D02*
X128407143Y-128404819D01*
X128407143Y-128404819D02*
X128645238Y-128404819D01*
X128645238Y-128404819D02*
X128740476Y-128452438D01*
X128740476Y-128452438D02*
X128788095Y-128500057D01*
X128788095Y-128500057D02*
X128835714Y-128595295D01*
X128835714Y-128595295D02*
X128835714Y-128690533D01*
X128835714Y-128690533D02*
X128788095Y-128833390D01*
X128788095Y-128833390D02*
X128216667Y-129404819D01*
X128216667Y-129404819D02*
X128835714Y-129404819D01*
X129264286Y-129023866D02*
X130026191Y-129023866D01*
X130407143Y-128404819D02*
X130645238Y-129404819D01*
X130645238Y-129404819D02*
X130835714Y-128690533D01*
X130835714Y-128690533D02*
X131026190Y-129404819D01*
X131026190Y-129404819D02*
X131264286Y-128404819D01*
X132216666Y-129404819D02*
X131883333Y-128928628D01*
X131645238Y-129404819D02*
X131645238Y-128404819D01*
X131645238Y-128404819D02*
X132026190Y-128404819D01*
X132026190Y-128404819D02*
X132121428Y-128452438D01*
X132121428Y-128452438D02*
X132169047Y-128500057D01*
X132169047Y-128500057D02*
X132216666Y-128595295D01*
X132216666Y-128595295D02*
X132216666Y-128738152D01*
X132216666Y-128738152D02*
X132169047Y-128833390D01*
X132169047Y-128833390D02*
X132121428Y-128881009D01*
X132121428Y-128881009D02*
X132026190Y-128928628D01*
X132026190Y-128928628D02*
X131645238Y-128928628D01*
X132835714Y-128404819D02*
X133026190Y-128404819D01*
X133026190Y-128404819D02*
X133121428Y-128452438D01*
X133121428Y-128452438D02*
X133216666Y-128547676D01*
X133216666Y-128547676D02*
X133264285Y-128738152D01*
X133264285Y-128738152D02*
X133264285Y-129071485D01*
X133264285Y-129071485D02*
X133216666Y-129261961D01*
X133216666Y-129261961D02*
X133121428Y-129357200D01*
X133121428Y-129357200D02*
X133026190Y-129404819D01*
X133026190Y-129404819D02*
X132835714Y-129404819D01*
X132835714Y-129404819D02*
X132740476Y-129357200D01*
X132740476Y-129357200D02*
X132645238Y-129261961D01*
X132645238Y-129261961D02*
X132597619Y-129071485D01*
X132597619Y-129071485D02*
X132597619Y-128738152D01*
X132597619Y-128738152D02*
X132645238Y-128547676D01*
X132645238Y-128547676D02*
X132740476Y-128452438D01*
X132740476Y-128452438D02*
X132835714Y-128404819D01*
X133883333Y-128404819D02*
X134073809Y-128404819D01*
X134073809Y-128404819D02*
X134169047Y-128452438D01*
X134169047Y-128452438D02*
X134264285Y-128547676D01*
X134264285Y-128547676D02*
X134311904Y-128738152D01*
X134311904Y-128738152D02*
X134311904Y-129071485D01*
X134311904Y-129071485D02*
X134264285Y-129261961D01*
X134264285Y-129261961D02*
X134169047Y-129357200D01*
X134169047Y-129357200D02*
X134073809Y-129404819D01*
X134073809Y-129404819D02*
X133883333Y-129404819D01*
X133883333Y-129404819D02*
X133788095Y-129357200D01*
X133788095Y-129357200D02*
X133692857Y-129261961D01*
X133692857Y-129261961D02*
X133645238Y-129071485D01*
X133645238Y-129071485D02*
X133645238Y-128738152D01*
X133645238Y-128738152D02*
X133692857Y-128547676D01*
X133692857Y-128547676D02*
X133788095Y-128452438D01*
X133788095Y-128452438D02*
X133883333Y-128404819D01*
X134740476Y-129404819D02*
X134740476Y-128404819D01*
X134740476Y-128404819D02*
X135073809Y-129119104D01*
X135073809Y-129119104D02*
X135407142Y-128404819D01*
X135407142Y-128404819D02*
X135407142Y-129404819D01*
X135883333Y-129023866D02*
X136645238Y-129023866D01*
X137026190Y-128404819D02*
X137645237Y-128404819D01*
X137645237Y-128404819D02*
X137311904Y-128785771D01*
X137311904Y-128785771D02*
X137454761Y-128785771D01*
X137454761Y-128785771D02*
X137549999Y-128833390D01*
X137549999Y-128833390D02*
X137597618Y-128881009D01*
X137597618Y-128881009D02*
X137645237Y-128976247D01*
X137645237Y-128976247D02*
X137645237Y-129214342D01*
X137645237Y-129214342D02*
X137597618Y-129309580D01*
X137597618Y-129309580D02*
X137549999Y-129357200D01*
X137549999Y-129357200D02*
X137454761Y-129404819D01*
X137454761Y-129404819D02*
X137169047Y-129404819D01*
X137169047Y-129404819D02*
X137073809Y-129357200D01*
X137073809Y-129357200D02*
X137026190Y-129309580D01*
X138026190Y-128500057D02*
X138073809Y-128452438D01*
X138073809Y-128452438D02*
X138169047Y-128404819D01*
X138169047Y-128404819D02*
X138407142Y-128404819D01*
X138407142Y-128404819D02*
X138502380Y-128452438D01*
X138502380Y-128452438D02*
X138549999Y-128500057D01*
X138549999Y-128500057D02*
X138597618Y-128595295D01*
X138597618Y-128595295D02*
X138597618Y-128690533D01*
X138597618Y-128690533D02*
X138549999Y-128833390D01*
X138549999Y-128833390D02*
X137978571Y-129404819D01*
X137978571Y-129404819D02*
X138597618Y-129404819D01*
X139026190Y-128404819D02*
X139026190Y-129214342D01*
X139026190Y-129214342D02*
X139073809Y-129309580D01*
X139073809Y-129309580D02*
X139121428Y-129357200D01*
X139121428Y-129357200D02*
X139216666Y-129404819D01*
X139216666Y-129404819D02*
X139407142Y-129404819D01*
X139407142Y-129404819D02*
X139502380Y-129357200D01*
X139502380Y-129357200D02*
X139549999Y-129309580D01*
X139549999Y-129309580D02*
X139597618Y-129214342D01*
X139597618Y-129214342D02*
X139597618Y-128404819D01*
X226830357Y-84281009D02*
X226973214Y-84328628D01*
X226973214Y-84328628D02*
X227020833Y-84376247D01*
X227020833Y-84376247D02*
X227068452Y-84471485D01*
X227068452Y-84471485D02*
X227068452Y-84614342D01*
X227068452Y-84614342D02*
X227020833Y-84709580D01*
X227020833Y-84709580D02*
X226973214Y-84757200D01*
X226973214Y-84757200D02*
X226877976Y-84804819D01*
X226877976Y-84804819D02*
X226497024Y-84804819D01*
X226497024Y-84804819D02*
X226497024Y-83804819D01*
X226497024Y-83804819D02*
X226830357Y-83804819D01*
X226830357Y-83804819D02*
X226925595Y-83852438D01*
X226925595Y-83852438D02*
X226973214Y-83900057D01*
X226973214Y-83900057D02*
X227020833Y-83995295D01*
X227020833Y-83995295D02*
X227020833Y-84090533D01*
X227020833Y-84090533D02*
X226973214Y-84185771D01*
X226973214Y-84185771D02*
X226925595Y-84233390D01*
X226925595Y-84233390D02*
X226830357Y-84281009D01*
X226830357Y-84281009D02*
X226497024Y-84281009D01*
X227449405Y-84519104D02*
X227925595Y-84519104D01*
X227354167Y-84804819D02*
X227687500Y-83804819D01*
X227687500Y-83804819D02*
X228020833Y-84804819D01*
X228306548Y-84757200D02*
X228449405Y-84804819D01*
X228449405Y-84804819D02*
X228687500Y-84804819D01*
X228687500Y-84804819D02*
X228782738Y-84757200D01*
X228782738Y-84757200D02*
X228830357Y-84709580D01*
X228830357Y-84709580D02*
X228877976Y-84614342D01*
X228877976Y-84614342D02*
X228877976Y-84519104D01*
X228877976Y-84519104D02*
X228830357Y-84423866D01*
X228830357Y-84423866D02*
X228782738Y-84376247D01*
X228782738Y-84376247D02*
X228687500Y-84328628D01*
X228687500Y-84328628D02*
X228497024Y-84281009D01*
X228497024Y-84281009D02*
X228401786Y-84233390D01*
X228401786Y-84233390D02*
X228354167Y-84185771D01*
X228354167Y-84185771D02*
X228306548Y-84090533D01*
X228306548Y-84090533D02*
X228306548Y-83995295D01*
X228306548Y-83995295D02*
X228354167Y-83900057D01*
X228354167Y-83900057D02*
X228401786Y-83852438D01*
X228401786Y-83852438D02*
X228497024Y-83804819D01*
X228497024Y-83804819D02*
X228735119Y-83804819D01*
X228735119Y-83804819D02*
X228877976Y-83852438D01*
X229830357Y-84804819D02*
X229258929Y-84804819D01*
X229544643Y-84804819D02*
X229544643Y-83804819D01*
X229544643Y-83804819D02*
X229449405Y-83947676D01*
X229449405Y-83947676D02*
X229354167Y-84042914D01*
X229354167Y-84042914D02*
X229258929Y-84090533D01*
X230687500Y-83804819D02*
X230497024Y-83804819D01*
X230497024Y-83804819D02*
X230401786Y-83852438D01*
X230401786Y-83852438D02*
X230354167Y-83900057D01*
X230354167Y-83900057D02*
X230258929Y-84042914D01*
X230258929Y-84042914D02*
X230211310Y-84233390D01*
X230211310Y-84233390D02*
X230211310Y-84614342D01*
X230211310Y-84614342D02*
X230258929Y-84709580D01*
X230258929Y-84709580D02*
X230306548Y-84757200D01*
X230306548Y-84757200D02*
X230401786Y-84804819D01*
X230401786Y-84804819D02*
X230592262Y-84804819D01*
X230592262Y-84804819D02*
X230687500Y-84757200D01*
X230687500Y-84757200D02*
X230735119Y-84709580D01*
X230735119Y-84709580D02*
X230782738Y-84614342D01*
X230782738Y-84614342D02*
X230782738Y-84376247D01*
X230782738Y-84376247D02*
X230735119Y-84281009D01*
X230735119Y-84281009D02*
X230687500Y-84233390D01*
X230687500Y-84233390D02*
X230592262Y-84185771D01*
X230592262Y-84185771D02*
X230401786Y-84185771D01*
X230401786Y-84185771D02*
X230306548Y-84233390D01*
X230306548Y-84233390D02*
X230258929Y-84281009D01*
X230258929Y-84281009D02*
X230211310Y-84376247D01*
X231116072Y-83804819D02*
X231354167Y-84804819D01*
X231354167Y-84804819D02*
X231544643Y-84090533D01*
X231544643Y-84090533D02*
X231735119Y-84804819D01*
X231735119Y-84804819D02*
X231973215Y-83804819D01*
X158008809Y-57694819D02*
X158104047Y-57694819D01*
X158104047Y-57694819D02*
X158199285Y-57742438D01*
X158199285Y-57742438D02*
X158246904Y-57790057D01*
X158246904Y-57790057D02*
X158294523Y-57885295D01*
X158294523Y-57885295D02*
X158342142Y-58075771D01*
X158342142Y-58075771D02*
X158342142Y-58313866D01*
X158342142Y-58313866D02*
X158294523Y-58504342D01*
X158294523Y-58504342D02*
X158246904Y-58599580D01*
X158246904Y-58599580D02*
X158199285Y-58647200D01*
X158199285Y-58647200D02*
X158104047Y-58694819D01*
X158104047Y-58694819D02*
X158008809Y-58694819D01*
X158008809Y-58694819D02*
X157913571Y-58647200D01*
X157913571Y-58647200D02*
X157865952Y-58599580D01*
X157865952Y-58599580D02*
X157818333Y-58504342D01*
X157818333Y-58504342D02*
X157770714Y-58313866D01*
X157770714Y-58313866D02*
X157770714Y-58075771D01*
X157770714Y-58075771D02*
X157818333Y-57885295D01*
X157818333Y-57885295D02*
X157865952Y-57790057D01*
X157865952Y-57790057D02*
X157913571Y-57742438D01*
X157913571Y-57742438D02*
X158008809Y-57694819D01*
X158723095Y-57790057D02*
X158770714Y-57742438D01*
X158770714Y-57742438D02*
X158865952Y-57694819D01*
X158865952Y-57694819D02*
X159104047Y-57694819D01*
X159104047Y-57694819D02*
X159199285Y-57742438D01*
X159199285Y-57742438D02*
X159246904Y-57790057D01*
X159246904Y-57790057D02*
X159294523Y-57885295D01*
X159294523Y-57885295D02*
X159294523Y-57980533D01*
X159294523Y-57980533D02*
X159246904Y-58123390D01*
X159246904Y-58123390D02*
X158675476Y-58694819D01*
X158675476Y-58694819D02*
X159294523Y-58694819D01*
X159913571Y-57694819D02*
X160008809Y-57694819D01*
X160008809Y-57694819D02*
X160104047Y-57742438D01*
X160104047Y-57742438D02*
X160151666Y-57790057D01*
X160151666Y-57790057D02*
X160199285Y-57885295D01*
X160199285Y-57885295D02*
X160246904Y-58075771D01*
X160246904Y-58075771D02*
X160246904Y-58313866D01*
X160246904Y-58313866D02*
X160199285Y-58504342D01*
X160199285Y-58504342D02*
X160151666Y-58599580D01*
X160151666Y-58599580D02*
X160104047Y-58647200D01*
X160104047Y-58647200D02*
X160008809Y-58694819D01*
X160008809Y-58694819D02*
X159913571Y-58694819D01*
X159913571Y-58694819D02*
X159818333Y-58647200D01*
X159818333Y-58647200D02*
X159770714Y-58599580D01*
X159770714Y-58599580D02*
X159723095Y-58504342D01*
X159723095Y-58504342D02*
X159675476Y-58313866D01*
X159675476Y-58313866D02*
X159675476Y-58075771D01*
X159675476Y-58075771D02*
X159723095Y-57885295D01*
X159723095Y-57885295D02*
X159770714Y-57790057D01*
X159770714Y-57790057D02*
X159818333Y-57742438D01*
X159818333Y-57742438D02*
X159913571Y-57694819D01*
X161199285Y-58694819D02*
X160627857Y-58694819D01*
X160913571Y-58694819D02*
X160913571Y-57694819D01*
X160913571Y-57694819D02*
X160818333Y-57837676D01*
X160818333Y-57837676D02*
X160723095Y-57932914D01*
X160723095Y-57932914D02*
X160627857Y-57980533D01*
X151094761Y-88609580D02*
X151047142Y-88657200D01*
X151047142Y-88657200D02*
X150904285Y-88704819D01*
X150904285Y-88704819D02*
X150809047Y-88704819D01*
X150809047Y-88704819D02*
X150666190Y-88657200D01*
X150666190Y-88657200D02*
X150570952Y-88561961D01*
X150570952Y-88561961D02*
X150523333Y-88466723D01*
X150523333Y-88466723D02*
X150475714Y-88276247D01*
X150475714Y-88276247D02*
X150475714Y-88133390D01*
X150475714Y-88133390D02*
X150523333Y-87942914D01*
X150523333Y-87942914D02*
X150570952Y-87847676D01*
X150570952Y-87847676D02*
X150666190Y-87752438D01*
X150666190Y-87752438D02*
X150809047Y-87704819D01*
X150809047Y-87704819D02*
X150904285Y-87704819D01*
X150904285Y-87704819D02*
X151047142Y-87752438D01*
X151047142Y-87752438D02*
X151094761Y-87800057D01*
X151523333Y-88704819D02*
X151523333Y-87704819D01*
X151523333Y-87704819D02*
X151761428Y-87704819D01*
X151761428Y-87704819D02*
X151904285Y-87752438D01*
X151904285Y-87752438D02*
X151999523Y-87847676D01*
X151999523Y-87847676D02*
X152047142Y-87942914D01*
X152047142Y-87942914D02*
X152094761Y-88133390D01*
X152094761Y-88133390D02*
X152094761Y-88276247D01*
X152094761Y-88276247D02*
X152047142Y-88466723D01*
X152047142Y-88466723D02*
X151999523Y-88561961D01*
X151999523Y-88561961D02*
X151904285Y-88657200D01*
X151904285Y-88657200D02*
X151761428Y-88704819D01*
X151761428Y-88704819D02*
X151523333Y-88704819D01*
X152951904Y-88038152D02*
X152951904Y-88704819D01*
X152713809Y-87657200D02*
X152475714Y-88371485D01*
X152475714Y-88371485D02*
X153094761Y-88371485D01*
X153666190Y-87704819D02*
X153761428Y-87704819D01*
X153761428Y-87704819D02*
X153856666Y-87752438D01*
X153856666Y-87752438D02*
X153904285Y-87800057D01*
X153904285Y-87800057D02*
X153951904Y-87895295D01*
X153951904Y-87895295D02*
X153999523Y-88085771D01*
X153999523Y-88085771D02*
X153999523Y-88323866D01*
X153999523Y-88323866D02*
X153951904Y-88514342D01*
X153951904Y-88514342D02*
X153904285Y-88609580D01*
X153904285Y-88609580D02*
X153856666Y-88657200D01*
X153856666Y-88657200D02*
X153761428Y-88704819D01*
X153761428Y-88704819D02*
X153666190Y-88704819D01*
X153666190Y-88704819D02*
X153570952Y-88657200D01*
X153570952Y-88657200D02*
X153523333Y-88609580D01*
X153523333Y-88609580D02*
X153475714Y-88514342D01*
X153475714Y-88514342D02*
X153428095Y-88323866D01*
X153428095Y-88323866D02*
X153428095Y-88085771D01*
X153428095Y-88085771D02*
X153475714Y-87895295D01*
X153475714Y-87895295D02*
X153523333Y-87800057D01*
X153523333Y-87800057D02*
X153570952Y-87752438D01*
X153570952Y-87752438D02*
X153666190Y-87704819D01*
X154332857Y-87704819D02*
X154951904Y-87704819D01*
X154951904Y-87704819D02*
X154618571Y-88085771D01*
X154618571Y-88085771D02*
X154761428Y-88085771D01*
X154761428Y-88085771D02*
X154856666Y-88133390D01*
X154856666Y-88133390D02*
X154904285Y-88181009D01*
X154904285Y-88181009D02*
X154951904Y-88276247D01*
X154951904Y-88276247D02*
X154951904Y-88514342D01*
X154951904Y-88514342D02*
X154904285Y-88609580D01*
X154904285Y-88609580D02*
X154856666Y-88657200D01*
X154856666Y-88657200D02*
X154761428Y-88704819D01*
X154761428Y-88704819D02*
X154475714Y-88704819D01*
X154475714Y-88704819D02*
X154380476Y-88657200D01*
X154380476Y-88657200D02*
X154332857Y-88609580D01*
X155285238Y-87704819D02*
X155904285Y-87704819D01*
X155904285Y-87704819D02*
X155570952Y-88085771D01*
X155570952Y-88085771D02*
X155713809Y-88085771D01*
X155713809Y-88085771D02*
X155809047Y-88133390D01*
X155809047Y-88133390D02*
X155856666Y-88181009D01*
X155856666Y-88181009D02*
X155904285Y-88276247D01*
X155904285Y-88276247D02*
X155904285Y-88514342D01*
X155904285Y-88514342D02*
X155856666Y-88609580D01*
X155856666Y-88609580D02*
X155809047Y-88657200D01*
X155809047Y-88657200D02*
X155713809Y-88704819D01*
X155713809Y-88704819D02*
X155428095Y-88704819D01*
X155428095Y-88704819D02*
X155332857Y-88657200D01*
X155332857Y-88657200D02*
X155285238Y-88609580D01*
X156666190Y-88181009D02*
X156809047Y-88228628D01*
X156809047Y-88228628D02*
X156856666Y-88276247D01*
X156856666Y-88276247D02*
X156904285Y-88371485D01*
X156904285Y-88371485D02*
X156904285Y-88514342D01*
X156904285Y-88514342D02*
X156856666Y-88609580D01*
X156856666Y-88609580D02*
X156809047Y-88657200D01*
X156809047Y-88657200D02*
X156713809Y-88704819D01*
X156713809Y-88704819D02*
X156332857Y-88704819D01*
X156332857Y-88704819D02*
X156332857Y-87704819D01*
X156332857Y-87704819D02*
X156666190Y-87704819D01*
X156666190Y-87704819D02*
X156761428Y-87752438D01*
X156761428Y-87752438D02*
X156809047Y-87800057D01*
X156809047Y-87800057D02*
X156856666Y-87895295D01*
X156856666Y-87895295D02*
X156856666Y-87990533D01*
X156856666Y-87990533D02*
X156809047Y-88085771D01*
X156809047Y-88085771D02*
X156761428Y-88133390D01*
X156761428Y-88133390D02*
X156666190Y-88181009D01*
X156666190Y-88181009D02*
X156332857Y-88181009D01*
X168057142Y-59454819D02*
X167485714Y-59454819D01*
X167771428Y-59454819D02*
X167771428Y-58454819D01*
X167771428Y-58454819D02*
X167676190Y-58597676D01*
X167676190Y-58597676D02*
X167580952Y-58692914D01*
X167580952Y-58692914D02*
X167485714Y-58740533D01*
X168438095Y-58550057D02*
X168485714Y-58502438D01*
X168485714Y-58502438D02*
X168580952Y-58454819D01*
X168580952Y-58454819D02*
X168819047Y-58454819D01*
X168819047Y-58454819D02*
X168914285Y-58502438D01*
X168914285Y-58502438D02*
X168961904Y-58550057D01*
X168961904Y-58550057D02*
X169009523Y-58645295D01*
X169009523Y-58645295D02*
X169009523Y-58740533D01*
X169009523Y-58740533D02*
X168961904Y-58883390D01*
X168961904Y-58883390D02*
X168390476Y-59454819D01*
X168390476Y-59454819D02*
X169009523Y-59454819D01*
X169628571Y-58454819D02*
X169723809Y-58454819D01*
X169723809Y-58454819D02*
X169819047Y-58502438D01*
X169819047Y-58502438D02*
X169866666Y-58550057D01*
X169866666Y-58550057D02*
X169914285Y-58645295D01*
X169914285Y-58645295D02*
X169961904Y-58835771D01*
X169961904Y-58835771D02*
X169961904Y-59073866D01*
X169961904Y-59073866D02*
X169914285Y-59264342D01*
X169914285Y-59264342D02*
X169866666Y-59359580D01*
X169866666Y-59359580D02*
X169819047Y-59407200D01*
X169819047Y-59407200D02*
X169723809Y-59454819D01*
X169723809Y-59454819D02*
X169628571Y-59454819D01*
X169628571Y-59454819D02*
X169533333Y-59407200D01*
X169533333Y-59407200D02*
X169485714Y-59359580D01*
X169485714Y-59359580D02*
X169438095Y-59264342D01*
X169438095Y-59264342D02*
X169390476Y-59073866D01*
X169390476Y-59073866D02*
X169390476Y-58835771D01*
X169390476Y-58835771D02*
X169438095Y-58645295D01*
X169438095Y-58645295D02*
X169485714Y-58550057D01*
X169485714Y-58550057D02*
X169533333Y-58502438D01*
X169533333Y-58502438D02*
X169628571Y-58454819D01*
X170819047Y-58454819D02*
X170628571Y-58454819D01*
X170628571Y-58454819D02*
X170533333Y-58502438D01*
X170533333Y-58502438D02*
X170485714Y-58550057D01*
X170485714Y-58550057D02*
X170390476Y-58692914D01*
X170390476Y-58692914D02*
X170342857Y-58883390D01*
X170342857Y-58883390D02*
X170342857Y-59264342D01*
X170342857Y-59264342D02*
X170390476Y-59359580D01*
X170390476Y-59359580D02*
X170438095Y-59407200D01*
X170438095Y-59407200D02*
X170533333Y-59454819D01*
X170533333Y-59454819D02*
X170723809Y-59454819D01*
X170723809Y-59454819D02*
X170819047Y-59407200D01*
X170819047Y-59407200D02*
X170866666Y-59359580D01*
X170866666Y-59359580D02*
X170914285Y-59264342D01*
X170914285Y-59264342D02*
X170914285Y-59026247D01*
X170914285Y-59026247D02*
X170866666Y-58931009D01*
X170866666Y-58931009D02*
X170819047Y-58883390D01*
X170819047Y-58883390D02*
X170723809Y-58835771D01*
X170723809Y-58835771D02*
X170533333Y-58835771D01*
X170533333Y-58835771D02*
X170438095Y-58883390D01*
X170438095Y-58883390D02*
X170390476Y-58931009D01*
X170390476Y-58931009D02*
X170342857Y-59026247D01*
X233431190Y-70329819D02*
X233431190Y-71139342D01*
X233431190Y-71139342D02*
X233478809Y-71234580D01*
X233478809Y-71234580D02*
X233526428Y-71282200D01*
X233526428Y-71282200D02*
X233621666Y-71329819D01*
X233621666Y-71329819D02*
X233812142Y-71329819D01*
X233812142Y-71329819D02*
X233907380Y-71282200D01*
X233907380Y-71282200D02*
X233954999Y-71234580D01*
X233954999Y-71234580D02*
X234002618Y-71139342D01*
X234002618Y-71139342D02*
X234002618Y-70329819D01*
X234431190Y-71282200D02*
X234574047Y-71329819D01*
X234574047Y-71329819D02*
X234812142Y-71329819D01*
X234812142Y-71329819D02*
X234907380Y-71282200D01*
X234907380Y-71282200D02*
X234954999Y-71234580D01*
X234954999Y-71234580D02*
X235002618Y-71139342D01*
X235002618Y-71139342D02*
X235002618Y-71044104D01*
X235002618Y-71044104D02*
X234954999Y-70948866D01*
X234954999Y-70948866D02*
X234907380Y-70901247D01*
X234907380Y-70901247D02*
X234812142Y-70853628D01*
X234812142Y-70853628D02*
X234621666Y-70806009D01*
X234621666Y-70806009D02*
X234526428Y-70758390D01*
X234526428Y-70758390D02*
X234478809Y-70710771D01*
X234478809Y-70710771D02*
X234431190Y-70615533D01*
X234431190Y-70615533D02*
X234431190Y-70520295D01*
X234431190Y-70520295D02*
X234478809Y-70425057D01*
X234478809Y-70425057D02*
X234526428Y-70377438D01*
X234526428Y-70377438D02*
X234621666Y-70329819D01*
X234621666Y-70329819D02*
X234859761Y-70329819D01*
X234859761Y-70329819D02*
X235002618Y-70377438D01*
X235764523Y-70806009D02*
X235907380Y-70853628D01*
X235907380Y-70853628D02*
X235954999Y-70901247D01*
X235954999Y-70901247D02*
X236002618Y-70996485D01*
X236002618Y-70996485D02*
X236002618Y-71139342D01*
X236002618Y-71139342D02*
X235954999Y-71234580D01*
X235954999Y-71234580D02*
X235907380Y-71282200D01*
X235907380Y-71282200D02*
X235812142Y-71329819D01*
X235812142Y-71329819D02*
X235431190Y-71329819D01*
X235431190Y-71329819D02*
X235431190Y-70329819D01*
X235431190Y-70329819D02*
X235764523Y-70329819D01*
X235764523Y-70329819D02*
X235859761Y-70377438D01*
X235859761Y-70377438D02*
X235907380Y-70425057D01*
X235907380Y-70425057D02*
X235954999Y-70520295D01*
X235954999Y-70520295D02*
X235954999Y-70615533D01*
X235954999Y-70615533D02*
X235907380Y-70710771D01*
X235907380Y-70710771D02*
X235859761Y-70758390D01*
X235859761Y-70758390D02*
X235764523Y-70806009D01*
X235764523Y-70806009D02*
X235431190Y-70806009D01*
X236193095Y-71425057D02*
X236954999Y-71425057D01*
X237526428Y-70806009D02*
X237669285Y-70853628D01*
X237669285Y-70853628D02*
X237716904Y-70901247D01*
X237716904Y-70901247D02*
X237764523Y-70996485D01*
X237764523Y-70996485D02*
X237764523Y-71139342D01*
X237764523Y-71139342D02*
X237716904Y-71234580D01*
X237716904Y-71234580D02*
X237669285Y-71282200D01*
X237669285Y-71282200D02*
X237574047Y-71329819D01*
X237574047Y-71329819D02*
X237193095Y-71329819D01*
X237193095Y-71329819D02*
X237193095Y-70329819D01*
X237193095Y-70329819D02*
X237526428Y-70329819D01*
X237526428Y-70329819D02*
X237621666Y-70377438D01*
X237621666Y-70377438D02*
X237669285Y-70425057D01*
X237669285Y-70425057D02*
X237716904Y-70520295D01*
X237716904Y-70520295D02*
X237716904Y-70615533D01*
X237716904Y-70615533D02*
X237669285Y-70710771D01*
X237669285Y-70710771D02*
X237621666Y-70758390D01*
X237621666Y-70758390D02*
X237526428Y-70806009D01*
X237526428Y-70806009D02*
X237193095Y-70806009D01*
X237955000Y-71425057D02*
X238716904Y-71425057D01*
X238955000Y-71329819D02*
X238955000Y-70329819D01*
X238955000Y-70329819D02*
X239288333Y-71044104D01*
X239288333Y-71044104D02*
X239621666Y-70329819D01*
X239621666Y-70329819D02*
X239621666Y-71329819D01*
X240097857Y-71329819D02*
X240097857Y-70663152D01*
X240097857Y-70329819D02*
X240050238Y-70377438D01*
X240050238Y-70377438D02*
X240097857Y-70425057D01*
X240097857Y-70425057D02*
X240145476Y-70377438D01*
X240145476Y-70377438D02*
X240097857Y-70329819D01*
X240097857Y-70329819D02*
X240097857Y-70425057D01*
X241002618Y-71282200D02*
X240907380Y-71329819D01*
X240907380Y-71329819D02*
X240716904Y-71329819D01*
X240716904Y-71329819D02*
X240621666Y-71282200D01*
X240621666Y-71282200D02*
X240574047Y-71234580D01*
X240574047Y-71234580D02*
X240526428Y-71139342D01*
X240526428Y-71139342D02*
X240526428Y-70853628D01*
X240526428Y-70853628D02*
X240574047Y-70758390D01*
X240574047Y-70758390D02*
X240621666Y-70710771D01*
X240621666Y-70710771D02*
X240716904Y-70663152D01*
X240716904Y-70663152D02*
X240907380Y-70663152D01*
X240907380Y-70663152D02*
X241002618Y-70710771D01*
X241431190Y-71329819D02*
X241431190Y-70663152D01*
X241431190Y-70853628D02*
X241478809Y-70758390D01*
X241478809Y-70758390D02*
X241526428Y-70710771D01*
X241526428Y-70710771D02*
X241621666Y-70663152D01*
X241621666Y-70663152D02*
X241716904Y-70663152D01*
X242193095Y-71329819D02*
X242097857Y-71282200D01*
X242097857Y-71282200D02*
X242050238Y-71234580D01*
X242050238Y-71234580D02*
X242002619Y-71139342D01*
X242002619Y-71139342D02*
X242002619Y-70853628D01*
X242002619Y-70853628D02*
X242050238Y-70758390D01*
X242050238Y-70758390D02*
X242097857Y-70710771D01*
X242097857Y-70710771D02*
X242193095Y-70663152D01*
X242193095Y-70663152D02*
X242335952Y-70663152D01*
X242335952Y-70663152D02*
X242431190Y-70710771D01*
X242431190Y-70710771D02*
X242478809Y-70758390D01*
X242478809Y-70758390D02*
X242526428Y-70853628D01*
X242526428Y-70853628D02*
X242526428Y-71139342D01*
X242526428Y-71139342D02*
X242478809Y-71234580D01*
X242478809Y-71234580D02*
X242431190Y-71282200D01*
X242431190Y-71282200D02*
X242335952Y-71329819D01*
X242335952Y-71329819D02*
X242193095Y-71329819D01*
X187948214Y-59150057D02*
X187995833Y-59102438D01*
X187995833Y-59102438D02*
X188091071Y-59054819D01*
X188091071Y-59054819D02*
X188329166Y-59054819D01*
X188329166Y-59054819D02*
X188424404Y-59102438D01*
X188424404Y-59102438D02*
X188472023Y-59150057D01*
X188472023Y-59150057D02*
X188519642Y-59245295D01*
X188519642Y-59245295D02*
X188519642Y-59340533D01*
X188519642Y-59340533D02*
X188472023Y-59483390D01*
X188472023Y-59483390D02*
X187900595Y-60054819D01*
X187900595Y-60054819D02*
X188519642Y-60054819D01*
X189424404Y-59054819D02*
X188948214Y-59054819D01*
X188948214Y-59054819D02*
X188900595Y-59531009D01*
X188900595Y-59531009D02*
X188948214Y-59483390D01*
X188948214Y-59483390D02*
X189043452Y-59435771D01*
X189043452Y-59435771D02*
X189281547Y-59435771D01*
X189281547Y-59435771D02*
X189376785Y-59483390D01*
X189376785Y-59483390D02*
X189424404Y-59531009D01*
X189424404Y-59531009D02*
X189472023Y-59626247D01*
X189472023Y-59626247D02*
X189472023Y-59864342D01*
X189472023Y-59864342D02*
X189424404Y-59959580D01*
X189424404Y-59959580D02*
X189376785Y-60007200D01*
X189376785Y-60007200D02*
X189281547Y-60054819D01*
X189281547Y-60054819D02*
X189043452Y-60054819D01*
X189043452Y-60054819D02*
X188948214Y-60007200D01*
X188948214Y-60007200D02*
X188900595Y-59959580D01*
X190424404Y-60054819D02*
X189852976Y-60054819D01*
X190138690Y-60054819D02*
X190138690Y-59054819D01*
X190138690Y-59054819D02*
X190043452Y-59197676D01*
X190043452Y-59197676D02*
X189948214Y-59292914D01*
X189948214Y-59292914D02*
X189852976Y-59340533D01*
X190805357Y-59150057D02*
X190852976Y-59102438D01*
X190852976Y-59102438D02*
X190948214Y-59054819D01*
X190948214Y-59054819D02*
X191186309Y-59054819D01*
X191186309Y-59054819D02*
X191281547Y-59102438D01*
X191281547Y-59102438D02*
X191329166Y-59150057D01*
X191329166Y-59150057D02*
X191376785Y-59245295D01*
X191376785Y-59245295D02*
X191376785Y-59340533D01*
X191376785Y-59340533D02*
X191329166Y-59483390D01*
X191329166Y-59483390D02*
X190757738Y-60054819D01*
X190757738Y-60054819D02*
X191376785Y-60054819D01*
X148578809Y-57724819D02*
X148674047Y-57724819D01*
X148674047Y-57724819D02*
X148769285Y-57772438D01*
X148769285Y-57772438D02*
X148816904Y-57820057D01*
X148816904Y-57820057D02*
X148864523Y-57915295D01*
X148864523Y-57915295D02*
X148912142Y-58105771D01*
X148912142Y-58105771D02*
X148912142Y-58343866D01*
X148912142Y-58343866D02*
X148864523Y-58534342D01*
X148864523Y-58534342D02*
X148816904Y-58629580D01*
X148816904Y-58629580D02*
X148769285Y-58677200D01*
X148769285Y-58677200D02*
X148674047Y-58724819D01*
X148674047Y-58724819D02*
X148578809Y-58724819D01*
X148578809Y-58724819D02*
X148483571Y-58677200D01*
X148483571Y-58677200D02*
X148435952Y-58629580D01*
X148435952Y-58629580D02*
X148388333Y-58534342D01*
X148388333Y-58534342D02*
X148340714Y-58343866D01*
X148340714Y-58343866D02*
X148340714Y-58105771D01*
X148340714Y-58105771D02*
X148388333Y-57915295D01*
X148388333Y-57915295D02*
X148435952Y-57820057D01*
X148435952Y-57820057D02*
X148483571Y-57772438D01*
X148483571Y-57772438D02*
X148578809Y-57724819D01*
X149769285Y-57724819D02*
X149578809Y-57724819D01*
X149578809Y-57724819D02*
X149483571Y-57772438D01*
X149483571Y-57772438D02*
X149435952Y-57820057D01*
X149435952Y-57820057D02*
X149340714Y-57962914D01*
X149340714Y-57962914D02*
X149293095Y-58153390D01*
X149293095Y-58153390D02*
X149293095Y-58534342D01*
X149293095Y-58534342D02*
X149340714Y-58629580D01*
X149340714Y-58629580D02*
X149388333Y-58677200D01*
X149388333Y-58677200D02*
X149483571Y-58724819D01*
X149483571Y-58724819D02*
X149674047Y-58724819D01*
X149674047Y-58724819D02*
X149769285Y-58677200D01*
X149769285Y-58677200D02*
X149816904Y-58629580D01*
X149816904Y-58629580D02*
X149864523Y-58534342D01*
X149864523Y-58534342D02*
X149864523Y-58296247D01*
X149864523Y-58296247D02*
X149816904Y-58201009D01*
X149816904Y-58201009D02*
X149769285Y-58153390D01*
X149769285Y-58153390D02*
X149674047Y-58105771D01*
X149674047Y-58105771D02*
X149483571Y-58105771D01*
X149483571Y-58105771D02*
X149388333Y-58153390D01*
X149388333Y-58153390D02*
X149340714Y-58201009D01*
X149340714Y-58201009D02*
X149293095Y-58296247D01*
X150483571Y-57724819D02*
X150578809Y-57724819D01*
X150578809Y-57724819D02*
X150674047Y-57772438D01*
X150674047Y-57772438D02*
X150721666Y-57820057D01*
X150721666Y-57820057D02*
X150769285Y-57915295D01*
X150769285Y-57915295D02*
X150816904Y-58105771D01*
X150816904Y-58105771D02*
X150816904Y-58343866D01*
X150816904Y-58343866D02*
X150769285Y-58534342D01*
X150769285Y-58534342D02*
X150721666Y-58629580D01*
X150721666Y-58629580D02*
X150674047Y-58677200D01*
X150674047Y-58677200D02*
X150578809Y-58724819D01*
X150578809Y-58724819D02*
X150483571Y-58724819D01*
X150483571Y-58724819D02*
X150388333Y-58677200D01*
X150388333Y-58677200D02*
X150340714Y-58629580D01*
X150340714Y-58629580D02*
X150293095Y-58534342D01*
X150293095Y-58534342D02*
X150245476Y-58343866D01*
X150245476Y-58343866D02*
X150245476Y-58105771D01*
X150245476Y-58105771D02*
X150293095Y-57915295D01*
X150293095Y-57915295D02*
X150340714Y-57820057D01*
X150340714Y-57820057D02*
X150388333Y-57772438D01*
X150388333Y-57772438D02*
X150483571Y-57724819D01*
X151150238Y-57724819D02*
X151769285Y-57724819D01*
X151769285Y-57724819D02*
X151435952Y-58105771D01*
X151435952Y-58105771D02*
X151578809Y-58105771D01*
X151578809Y-58105771D02*
X151674047Y-58153390D01*
X151674047Y-58153390D02*
X151721666Y-58201009D01*
X151721666Y-58201009D02*
X151769285Y-58296247D01*
X151769285Y-58296247D02*
X151769285Y-58534342D01*
X151769285Y-58534342D02*
X151721666Y-58629580D01*
X151721666Y-58629580D02*
X151674047Y-58677200D01*
X151674047Y-58677200D02*
X151578809Y-58724819D01*
X151578809Y-58724819D02*
X151293095Y-58724819D01*
X151293095Y-58724819D02*
X151197857Y-58677200D01*
X151197857Y-58677200D02*
X151150238Y-58629580D01*
X202352381Y-116657200D02*
X202495238Y-116704819D01*
X202495238Y-116704819D02*
X202733333Y-116704819D01*
X202733333Y-116704819D02*
X202828571Y-116657200D01*
X202828571Y-116657200D02*
X202876190Y-116609580D01*
X202876190Y-116609580D02*
X202923809Y-116514342D01*
X202923809Y-116514342D02*
X202923809Y-116419104D01*
X202923809Y-116419104D02*
X202876190Y-116323866D01*
X202876190Y-116323866D02*
X202828571Y-116276247D01*
X202828571Y-116276247D02*
X202733333Y-116228628D01*
X202733333Y-116228628D02*
X202542857Y-116181009D01*
X202542857Y-116181009D02*
X202447619Y-116133390D01*
X202447619Y-116133390D02*
X202400000Y-116085771D01*
X202400000Y-116085771D02*
X202352381Y-115990533D01*
X202352381Y-115990533D02*
X202352381Y-115895295D01*
X202352381Y-115895295D02*
X202400000Y-115800057D01*
X202400000Y-115800057D02*
X202447619Y-115752438D01*
X202447619Y-115752438D02*
X202542857Y-115704819D01*
X202542857Y-115704819D02*
X202780952Y-115704819D01*
X202780952Y-115704819D02*
X202923809Y-115752438D01*
X203257143Y-115704819D02*
X203495238Y-116704819D01*
X203495238Y-116704819D02*
X203685714Y-115990533D01*
X203685714Y-115990533D02*
X203876190Y-116704819D01*
X203876190Y-116704819D02*
X204114286Y-115704819D01*
X204257143Y-116800057D02*
X205019047Y-116800057D01*
X205257143Y-116704819D02*
X205257143Y-115704819D01*
X205257143Y-115704819D02*
X205638095Y-115704819D01*
X205638095Y-115704819D02*
X205733333Y-115752438D01*
X205733333Y-115752438D02*
X205780952Y-115800057D01*
X205780952Y-115800057D02*
X205828571Y-115895295D01*
X205828571Y-115895295D02*
X205828571Y-116038152D01*
X205828571Y-116038152D02*
X205780952Y-116133390D01*
X205780952Y-116133390D02*
X205733333Y-116181009D01*
X205733333Y-116181009D02*
X205638095Y-116228628D01*
X205638095Y-116228628D02*
X205257143Y-116228628D01*
X206685714Y-116038152D02*
X206685714Y-116704819D01*
X206257143Y-116038152D02*
X206257143Y-116561961D01*
X206257143Y-116561961D02*
X206304762Y-116657200D01*
X206304762Y-116657200D02*
X206400000Y-116704819D01*
X206400000Y-116704819D02*
X206542857Y-116704819D01*
X206542857Y-116704819D02*
X206638095Y-116657200D01*
X206638095Y-116657200D02*
X206685714Y-116609580D01*
X207114286Y-116657200D02*
X207209524Y-116704819D01*
X207209524Y-116704819D02*
X207400000Y-116704819D01*
X207400000Y-116704819D02*
X207495238Y-116657200D01*
X207495238Y-116657200D02*
X207542857Y-116561961D01*
X207542857Y-116561961D02*
X207542857Y-116514342D01*
X207542857Y-116514342D02*
X207495238Y-116419104D01*
X207495238Y-116419104D02*
X207400000Y-116371485D01*
X207400000Y-116371485D02*
X207257143Y-116371485D01*
X207257143Y-116371485D02*
X207161905Y-116323866D01*
X207161905Y-116323866D02*
X207114286Y-116228628D01*
X207114286Y-116228628D02*
X207114286Y-116181009D01*
X207114286Y-116181009D02*
X207161905Y-116085771D01*
X207161905Y-116085771D02*
X207257143Y-116038152D01*
X207257143Y-116038152D02*
X207400000Y-116038152D01*
X207400000Y-116038152D02*
X207495238Y-116085771D01*
X207971429Y-116704819D02*
X207971429Y-115704819D01*
X208400000Y-116704819D02*
X208400000Y-116181009D01*
X208400000Y-116181009D02*
X208352381Y-116085771D01*
X208352381Y-116085771D02*
X208257143Y-116038152D01*
X208257143Y-116038152D02*
X208114286Y-116038152D01*
X208114286Y-116038152D02*
X208019048Y-116085771D01*
X208019048Y-116085771D02*
X207971429Y-116133390D01*
X158161905Y-101579819D02*
X158828571Y-101579819D01*
X158828571Y-101579819D02*
X158400000Y-102579819D01*
X159638095Y-101913152D02*
X159638095Y-102579819D01*
X159400000Y-101532200D02*
X159161905Y-102246485D01*
X159161905Y-102246485D02*
X159780952Y-102246485D01*
X160161905Y-102579819D02*
X160161905Y-101579819D01*
X160161905Y-102056009D02*
X160733333Y-102056009D01*
X160733333Y-102579819D02*
X160733333Y-101579819D01*
X161780952Y-102484580D02*
X161733333Y-102532200D01*
X161733333Y-102532200D02*
X161590476Y-102579819D01*
X161590476Y-102579819D02*
X161495238Y-102579819D01*
X161495238Y-102579819D02*
X161352381Y-102532200D01*
X161352381Y-102532200D02*
X161257143Y-102436961D01*
X161257143Y-102436961D02*
X161209524Y-102341723D01*
X161209524Y-102341723D02*
X161161905Y-102151247D01*
X161161905Y-102151247D02*
X161161905Y-102008390D01*
X161161905Y-102008390D02*
X161209524Y-101817914D01*
X161209524Y-101817914D02*
X161257143Y-101722676D01*
X161257143Y-101722676D02*
X161352381Y-101627438D01*
X161352381Y-101627438D02*
X161495238Y-101579819D01*
X161495238Y-101579819D02*
X161590476Y-101579819D01*
X161590476Y-101579819D02*
X161733333Y-101627438D01*
X161733333Y-101627438D02*
X161780952Y-101675057D01*
X162638095Y-101913152D02*
X162638095Y-102579819D01*
X162400000Y-101532200D02*
X162161905Y-102246485D01*
X162161905Y-102246485D02*
X162780952Y-102246485D01*
X163352381Y-101579819D02*
X163447619Y-101579819D01*
X163447619Y-101579819D02*
X163542857Y-101627438D01*
X163542857Y-101627438D02*
X163590476Y-101675057D01*
X163590476Y-101675057D02*
X163638095Y-101770295D01*
X163638095Y-101770295D02*
X163685714Y-101960771D01*
X163685714Y-101960771D02*
X163685714Y-102198866D01*
X163685714Y-102198866D02*
X163638095Y-102389342D01*
X163638095Y-102389342D02*
X163590476Y-102484580D01*
X163590476Y-102484580D02*
X163542857Y-102532200D01*
X163542857Y-102532200D02*
X163447619Y-102579819D01*
X163447619Y-102579819D02*
X163352381Y-102579819D01*
X163352381Y-102579819D02*
X163257143Y-102532200D01*
X163257143Y-102532200D02*
X163209524Y-102484580D01*
X163209524Y-102484580D02*
X163161905Y-102389342D01*
X163161905Y-102389342D02*
X163114286Y-102198866D01*
X163114286Y-102198866D02*
X163114286Y-101960771D01*
X163114286Y-101960771D02*
X163161905Y-101770295D01*
X163161905Y-101770295D02*
X163209524Y-101675057D01*
X163209524Y-101675057D02*
X163257143Y-101627438D01*
X163257143Y-101627438D02*
X163352381Y-101579819D01*
X164066667Y-101675057D02*
X164114286Y-101627438D01*
X164114286Y-101627438D02*
X164209524Y-101579819D01*
X164209524Y-101579819D02*
X164447619Y-101579819D01*
X164447619Y-101579819D02*
X164542857Y-101627438D01*
X164542857Y-101627438D02*
X164590476Y-101675057D01*
X164590476Y-101675057D02*
X164638095Y-101770295D01*
X164638095Y-101770295D02*
X164638095Y-101865533D01*
X164638095Y-101865533D02*
X164590476Y-102008390D01*
X164590476Y-102008390D02*
X164019048Y-102579819D01*
X164019048Y-102579819D02*
X164638095Y-102579819D01*
X165495238Y-101913152D02*
X165495238Y-102579819D01*
X165257143Y-101532200D02*
X165019048Y-102246485D01*
X165019048Y-102246485D02*
X165638095Y-102246485D01*
X123348214Y-101404819D02*
X123919642Y-101404819D01*
X123633928Y-102404819D02*
X123633928Y-101404819D01*
X124252976Y-102404819D02*
X124252976Y-101404819D01*
X124252976Y-101404819D02*
X124633928Y-101404819D01*
X124633928Y-101404819D02*
X124729166Y-101452438D01*
X124729166Y-101452438D02*
X124776785Y-101500057D01*
X124776785Y-101500057D02*
X124824404Y-101595295D01*
X124824404Y-101595295D02*
X124824404Y-101738152D01*
X124824404Y-101738152D02*
X124776785Y-101833390D01*
X124776785Y-101833390D02*
X124729166Y-101881009D01*
X124729166Y-101881009D02*
X124633928Y-101928628D01*
X124633928Y-101928628D02*
X124252976Y-101928628D01*
X125205357Y-102357200D02*
X125348214Y-102404819D01*
X125348214Y-102404819D02*
X125586309Y-102404819D01*
X125586309Y-102404819D02*
X125681547Y-102357200D01*
X125681547Y-102357200D02*
X125729166Y-102309580D01*
X125729166Y-102309580D02*
X125776785Y-102214342D01*
X125776785Y-102214342D02*
X125776785Y-102119104D01*
X125776785Y-102119104D02*
X125729166Y-102023866D01*
X125729166Y-102023866D02*
X125681547Y-101976247D01*
X125681547Y-101976247D02*
X125586309Y-101928628D01*
X125586309Y-101928628D02*
X125395833Y-101881009D01*
X125395833Y-101881009D02*
X125300595Y-101833390D01*
X125300595Y-101833390D02*
X125252976Y-101785771D01*
X125252976Y-101785771D02*
X125205357Y-101690533D01*
X125205357Y-101690533D02*
X125205357Y-101595295D01*
X125205357Y-101595295D02*
X125252976Y-101500057D01*
X125252976Y-101500057D02*
X125300595Y-101452438D01*
X125300595Y-101452438D02*
X125395833Y-101404819D01*
X125395833Y-101404819D02*
X125633928Y-101404819D01*
X125633928Y-101404819D02*
X125776785Y-101452438D01*
X126633928Y-101404819D02*
X126443452Y-101404819D01*
X126443452Y-101404819D02*
X126348214Y-101452438D01*
X126348214Y-101452438D02*
X126300595Y-101500057D01*
X126300595Y-101500057D02*
X126205357Y-101642914D01*
X126205357Y-101642914D02*
X126157738Y-101833390D01*
X126157738Y-101833390D02*
X126157738Y-102214342D01*
X126157738Y-102214342D02*
X126205357Y-102309580D01*
X126205357Y-102309580D02*
X126252976Y-102357200D01*
X126252976Y-102357200D02*
X126348214Y-102404819D01*
X126348214Y-102404819D02*
X126538690Y-102404819D01*
X126538690Y-102404819D02*
X126633928Y-102357200D01*
X126633928Y-102357200D02*
X126681547Y-102309580D01*
X126681547Y-102309580D02*
X126729166Y-102214342D01*
X126729166Y-102214342D02*
X126729166Y-101976247D01*
X126729166Y-101976247D02*
X126681547Y-101881009D01*
X126681547Y-101881009D02*
X126633928Y-101833390D01*
X126633928Y-101833390D02*
X126538690Y-101785771D01*
X126538690Y-101785771D02*
X126348214Y-101785771D01*
X126348214Y-101785771D02*
X126252976Y-101833390D01*
X126252976Y-101833390D02*
X126205357Y-101881009D01*
X126205357Y-101881009D02*
X126157738Y-101976247D01*
X127681547Y-102404819D02*
X127110119Y-102404819D01*
X127395833Y-102404819D02*
X127395833Y-101404819D01*
X127395833Y-101404819D02*
X127300595Y-101547676D01*
X127300595Y-101547676D02*
X127205357Y-101642914D01*
X127205357Y-101642914D02*
X127110119Y-101690533D01*
X128300595Y-101404819D02*
X128395833Y-101404819D01*
X128395833Y-101404819D02*
X128491071Y-101452438D01*
X128491071Y-101452438D02*
X128538690Y-101500057D01*
X128538690Y-101500057D02*
X128586309Y-101595295D01*
X128586309Y-101595295D02*
X128633928Y-101785771D01*
X128633928Y-101785771D02*
X128633928Y-102023866D01*
X128633928Y-102023866D02*
X128586309Y-102214342D01*
X128586309Y-102214342D02*
X128538690Y-102309580D01*
X128538690Y-102309580D02*
X128491071Y-102357200D01*
X128491071Y-102357200D02*
X128395833Y-102404819D01*
X128395833Y-102404819D02*
X128300595Y-102404819D01*
X128300595Y-102404819D02*
X128205357Y-102357200D01*
X128205357Y-102357200D02*
X128157738Y-102309580D01*
X128157738Y-102309580D02*
X128110119Y-102214342D01*
X128110119Y-102214342D02*
X128062500Y-102023866D01*
X128062500Y-102023866D02*
X128062500Y-101785771D01*
X128062500Y-101785771D02*
X128110119Y-101595295D01*
X128110119Y-101595295D02*
X128157738Y-101500057D01*
X128157738Y-101500057D02*
X128205357Y-101452438D01*
X128205357Y-101452438D02*
X128300595Y-101404819D01*
X129205357Y-101833390D02*
X129110119Y-101785771D01*
X129110119Y-101785771D02*
X129062500Y-101738152D01*
X129062500Y-101738152D02*
X129014881Y-101642914D01*
X129014881Y-101642914D02*
X129014881Y-101595295D01*
X129014881Y-101595295D02*
X129062500Y-101500057D01*
X129062500Y-101500057D02*
X129110119Y-101452438D01*
X129110119Y-101452438D02*
X129205357Y-101404819D01*
X129205357Y-101404819D02*
X129395833Y-101404819D01*
X129395833Y-101404819D02*
X129491071Y-101452438D01*
X129491071Y-101452438D02*
X129538690Y-101500057D01*
X129538690Y-101500057D02*
X129586309Y-101595295D01*
X129586309Y-101595295D02*
X129586309Y-101642914D01*
X129586309Y-101642914D02*
X129538690Y-101738152D01*
X129538690Y-101738152D02*
X129491071Y-101785771D01*
X129491071Y-101785771D02*
X129395833Y-101833390D01*
X129395833Y-101833390D02*
X129205357Y-101833390D01*
X129205357Y-101833390D02*
X129110119Y-101881009D01*
X129110119Y-101881009D02*
X129062500Y-101928628D01*
X129062500Y-101928628D02*
X129014881Y-102023866D01*
X129014881Y-102023866D02*
X129014881Y-102214342D01*
X129014881Y-102214342D02*
X129062500Y-102309580D01*
X129062500Y-102309580D02*
X129110119Y-102357200D01*
X129110119Y-102357200D02*
X129205357Y-102404819D01*
X129205357Y-102404819D02*
X129395833Y-102404819D01*
X129395833Y-102404819D02*
X129491071Y-102357200D01*
X129491071Y-102357200D02*
X129538690Y-102309580D01*
X129538690Y-102309580D02*
X129586309Y-102214342D01*
X129586309Y-102214342D02*
X129586309Y-102023866D01*
X129586309Y-102023866D02*
X129538690Y-101928628D01*
X129538690Y-101928628D02*
X129491071Y-101881009D01*
X129491071Y-101881009D02*
X129395833Y-101833390D01*
X130491071Y-101404819D02*
X130014881Y-101404819D01*
X130014881Y-101404819D02*
X129967262Y-101881009D01*
X129967262Y-101881009D02*
X130014881Y-101833390D01*
X130014881Y-101833390D02*
X130110119Y-101785771D01*
X130110119Y-101785771D02*
X130348214Y-101785771D01*
X130348214Y-101785771D02*
X130443452Y-101833390D01*
X130443452Y-101833390D02*
X130491071Y-101881009D01*
X130491071Y-101881009D02*
X130538690Y-101976247D01*
X130538690Y-101976247D02*
X130538690Y-102214342D01*
X130538690Y-102214342D02*
X130491071Y-102309580D01*
X130491071Y-102309580D02*
X130443452Y-102357200D01*
X130443452Y-102357200D02*
X130348214Y-102404819D01*
X130348214Y-102404819D02*
X130110119Y-102404819D01*
X130110119Y-102404819D02*
X130014881Y-102357200D01*
X130014881Y-102357200D02*
X129967262Y-102309580D01*
X130967262Y-102404819D02*
X130967262Y-101404819D01*
X130967262Y-101404819D02*
X131348214Y-101404819D01*
X131348214Y-101404819D02*
X131443452Y-101452438D01*
X131443452Y-101452438D02*
X131491071Y-101500057D01*
X131491071Y-101500057D02*
X131538690Y-101595295D01*
X131538690Y-101595295D02*
X131538690Y-101738152D01*
X131538690Y-101738152D02*
X131491071Y-101833390D01*
X131491071Y-101833390D02*
X131443452Y-101881009D01*
X131443452Y-101881009D02*
X131348214Y-101928628D01*
X131348214Y-101928628D02*
X130967262Y-101928628D01*
X131872024Y-101404819D02*
X132110119Y-102404819D01*
X132110119Y-102404819D02*
X132300595Y-101690533D01*
X132300595Y-101690533D02*
X132491071Y-102404819D01*
X132491071Y-102404819D02*
X132729167Y-101404819D01*
X161428571Y-121556009D02*
X161761904Y-121556009D01*
X161904761Y-122079819D02*
X161428571Y-122079819D01*
X161428571Y-122079819D02*
X161428571Y-121079819D01*
X161428571Y-121079819D02*
X161904761Y-121079819D01*
X162666666Y-121556009D02*
X162333333Y-121556009D01*
X162333333Y-122079819D02*
X162333333Y-121079819D01*
X162333333Y-121079819D02*
X162809523Y-121079819D01*
X163190476Y-122079819D02*
X163190476Y-121079819D01*
X163190476Y-121079819D02*
X163523809Y-121794104D01*
X163523809Y-121794104D02*
X163857142Y-121079819D01*
X163857142Y-121079819D02*
X163857142Y-122079819D01*
X164476190Y-121508390D02*
X164380952Y-121460771D01*
X164380952Y-121460771D02*
X164333333Y-121413152D01*
X164333333Y-121413152D02*
X164285714Y-121317914D01*
X164285714Y-121317914D02*
X164285714Y-121270295D01*
X164285714Y-121270295D02*
X164333333Y-121175057D01*
X164333333Y-121175057D02*
X164380952Y-121127438D01*
X164380952Y-121127438D02*
X164476190Y-121079819D01*
X164476190Y-121079819D02*
X164666666Y-121079819D01*
X164666666Y-121079819D02*
X164761904Y-121127438D01*
X164761904Y-121127438D02*
X164809523Y-121175057D01*
X164809523Y-121175057D02*
X164857142Y-121270295D01*
X164857142Y-121270295D02*
X164857142Y-121317914D01*
X164857142Y-121317914D02*
X164809523Y-121413152D01*
X164809523Y-121413152D02*
X164761904Y-121460771D01*
X164761904Y-121460771D02*
X164666666Y-121508390D01*
X164666666Y-121508390D02*
X164476190Y-121508390D01*
X164476190Y-121508390D02*
X164380952Y-121556009D01*
X164380952Y-121556009D02*
X164333333Y-121603628D01*
X164333333Y-121603628D02*
X164285714Y-121698866D01*
X164285714Y-121698866D02*
X164285714Y-121889342D01*
X164285714Y-121889342D02*
X164333333Y-121984580D01*
X164333333Y-121984580D02*
X164380952Y-122032200D01*
X164380952Y-122032200D02*
X164476190Y-122079819D01*
X164476190Y-122079819D02*
X164666666Y-122079819D01*
X164666666Y-122079819D02*
X164761904Y-122032200D01*
X164761904Y-122032200D02*
X164809523Y-121984580D01*
X164809523Y-121984580D02*
X164857142Y-121889342D01*
X164857142Y-121889342D02*
X164857142Y-121698866D01*
X164857142Y-121698866D02*
X164809523Y-121603628D01*
X164809523Y-121603628D02*
X164761904Y-121556009D01*
X164761904Y-121556009D02*
X164666666Y-121508390D01*
X165619047Y-121556009D02*
X165761904Y-121603628D01*
X165761904Y-121603628D02*
X165809523Y-121651247D01*
X165809523Y-121651247D02*
X165857142Y-121746485D01*
X165857142Y-121746485D02*
X165857142Y-121889342D01*
X165857142Y-121889342D02*
X165809523Y-121984580D01*
X165809523Y-121984580D02*
X165761904Y-122032200D01*
X165761904Y-122032200D02*
X165666666Y-122079819D01*
X165666666Y-122079819D02*
X165285714Y-122079819D01*
X165285714Y-122079819D02*
X165285714Y-121079819D01*
X165285714Y-121079819D02*
X165619047Y-121079819D01*
X165619047Y-121079819D02*
X165714285Y-121127438D01*
X165714285Y-121127438D02*
X165761904Y-121175057D01*
X165761904Y-121175057D02*
X165809523Y-121270295D01*
X165809523Y-121270295D02*
X165809523Y-121365533D01*
X165809523Y-121365533D02*
X165761904Y-121460771D01*
X165761904Y-121460771D02*
X165714285Y-121508390D01*
X165714285Y-121508390D02*
X165619047Y-121556009D01*
X165619047Y-121556009D02*
X165285714Y-121556009D01*
X166619047Y-121556009D02*
X166761904Y-121603628D01*
X166761904Y-121603628D02*
X166809523Y-121651247D01*
X166809523Y-121651247D02*
X166857142Y-121746485D01*
X166857142Y-121746485D02*
X166857142Y-121889342D01*
X166857142Y-121889342D02*
X166809523Y-121984580D01*
X166809523Y-121984580D02*
X166761904Y-122032200D01*
X166761904Y-122032200D02*
X166666666Y-122079819D01*
X166666666Y-122079819D02*
X166285714Y-122079819D01*
X166285714Y-122079819D02*
X166285714Y-121079819D01*
X166285714Y-121079819D02*
X166619047Y-121079819D01*
X166619047Y-121079819D02*
X166714285Y-121127438D01*
X166714285Y-121127438D02*
X166761904Y-121175057D01*
X166761904Y-121175057D02*
X166809523Y-121270295D01*
X166809523Y-121270295D02*
X166809523Y-121365533D01*
X166809523Y-121365533D02*
X166761904Y-121460771D01*
X166761904Y-121460771D02*
X166714285Y-121508390D01*
X166714285Y-121508390D02*
X166619047Y-121556009D01*
X166619047Y-121556009D02*
X166285714Y-121556009D01*
X167809523Y-122079819D02*
X167238095Y-122079819D01*
X167523809Y-122079819D02*
X167523809Y-121079819D01*
X167523809Y-121079819D02*
X167428571Y-121222676D01*
X167428571Y-121222676D02*
X167333333Y-121317914D01*
X167333333Y-121317914D02*
X167238095Y-121365533D01*
X168428571Y-121079819D02*
X168523809Y-121079819D01*
X168523809Y-121079819D02*
X168619047Y-121127438D01*
X168619047Y-121127438D02*
X168666666Y-121175057D01*
X168666666Y-121175057D02*
X168714285Y-121270295D01*
X168714285Y-121270295D02*
X168761904Y-121460771D01*
X168761904Y-121460771D02*
X168761904Y-121698866D01*
X168761904Y-121698866D02*
X168714285Y-121889342D01*
X168714285Y-121889342D02*
X168666666Y-121984580D01*
X168666666Y-121984580D02*
X168619047Y-122032200D01*
X168619047Y-122032200D02*
X168523809Y-122079819D01*
X168523809Y-122079819D02*
X168428571Y-122079819D01*
X168428571Y-122079819D02*
X168333333Y-122032200D01*
X168333333Y-122032200D02*
X168285714Y-121984580D01*
X168285714Y-121984580D02*
X168238095Y-121889342D01*
X168238095Y-121889342D02*
X168190476Y-121698866D01*
X168190476Y-121698866D02*
X168190476Y-121460771D01*
X168190476Y-121460771D02*
X168238095Y-121270295D01*
X168238095Y-121270295D02*
X168285714Y-121175057D01*
X168285714Y-121175057D02*
X168333333Y-121127438D01*
X168333333Y-121127438D02*
X168428571Y-121079819D01*
X169523809Y-121556009D02*
X169190476Y-121556009D01*
X169190476Y-122079819D02*
X169190476Y-121079819D01*
X169190476Y-121079819D02*
X169666666Y-121079819D01*
X170000000Y-121175057D02*
X170047619Y-121127438D01*
X170047619Y-121127438D02*
X170142857Y-121079819D01*
X170142857Y-121079819D02*
X170380952Y-121079819D01*
X170380952Y-121079819D02*
X170476190Y-121127438D01*
X170476190Y-121127438D02*
X170523809Y-121175057D01*
X170523809Y-121175057D02*
X170571428Y-121270295D01*
X170571428Y-121270295D02*
X170571428Y-121365533D01*
X170571428Y-121365533D02*
X170523809Y-121508390D01*
X170523809Y-121508390D02*
X169952381Y-122079819D01*
X169952381Y-122079819D02*
X170571428Y-122079819D01*
X170952381Y-121794104D02*
X171428571Y-121794104D01*
X170857143Y-122079819D02*
X171190476Y-121079819D01*
X171190476Y-121079819D02*
X171523809Y-122079819D01*
X171857143Y-121698866D02*
X172619048Y-121698866D01*
X173047619Y-121794104D02*
X173523809Y-121794104D01*
X172952381Y-122079819D02*
X173285714Y-121079819D01*
X173285714Y-121079819D02*
X173619047Y-122079819D01*
X173952381Y-121698866D02*
X174714286Y-121698866D01*
X175857142Y-122175057D02*
X175761904Y-122127438D01*
X175761904Y-122127438D02*
X175666666Y-122032200D01*
X175666666Y-122032200D02*
X175523809Y-121889342D01*
X175523809Y-121889342D02*
X175428571Y-121841723D01*
X175428571Y-121841723D02*
X175333333Y-121841723D01*
X175380952Y-122079819D02*
X175285714Y-122032200D01*
X175285714Y-122032200D02*
X175190476Y-121936961D01*
X175190476Y-121936961D02*
X175142857Y-121746485D01*
X175142857Y-121746485D02*
X175142857Y-121413152D01*
X175142857Y-121413152D02*
X175190476Y-121222676D01*
X175190476Y-121222676D02*
X175285714Y-121127438D01*
X175285714Y-121127438D02*
X175380952Y-121079819D01*
X175380952Y-121079819D02*
X175571428Y-121079819D01*
X175571428Y-121079819D02*
X175666666Y-121127438D01*
X175666666Y-121127438D02*
X175761904Y-121222676D01*
X175761904Y-121222676D02*
X175809523Y-121413152D01*
X175809523Y-121413152D02*
X175809523Y-121746485D01*
X175809523Y-121746485D02*
X175761904Y-121936961D01*
X175761904Y-121936961D02*
X175666666Y-122032200D01*
X175666666Y-122032200D02*
X175571428Y-122079819D01*
X175571428Y-122079819D02*
X175380952Y-122079819D01*
X176571428Y-121556009D02*
X176238095Y-121556009D01*
X176238095Y-122079819D02*
X176238095Y-121079819D01*
X176238095Y-121079819D02*
X176714285Y-121079819D01*
X177095238Y-122079819D02*
X177095238Y-121079819D01*
X177095238Y-121079819D02*
X177666666Y-122079819D01*
X177666666Y-122079819D02*
X177666666Y-121079819D01*
X178095238Y-121175057D02*
X178142857Y-121127438D01*
X178142857Y-121127438D02*
X178238095Y-121079819D01*
X178238095Y-121079819D02*
X178476190Y-121079819D01*
X178476190Y-121079819D02*
X178571428Y-121127438D01*
X178571428Y-121127438D02*
X178619047Y-121175057D01*
X178619047Y-121175057D02*
X178666666Y-121270295D01*
X178666666Y-121270295D02*
X178666666Y-121365533D01*
X178666666Y-121365533D02*
X178619047Y-121508390D01*
X178619047Y-121508390D02*
X178047619Y-122079819D01*
X178047619Y-122079819D02*
X178666666Y-122079819D01*
X179285714Y-121079819D02*
X179380952Y-121079819D01*
X179380952Y-121079819D02*
X179476190Y-121127438D01*
X179476190Y-121127438D02*
X179523809Y-121175057D01*
X179523809Y-121175057D02*
X179571428Y-121270295D01*
X179571428Y-121270295D02*
X179619047Y-121460771D01*
X179619047Y-121460771D02*
X179619047Y-121698866D01*
X179619047Y-121698866D02*
X179571428Y-121889342D01*
X179571428Y-121889342D02*
X179523809Y-121984580D01*
X179523809Y-121984580D02*
X179476190Y-122032200D01*
X179476190Y-122032200D02*
X179380952Y-122079819D01*
X179380952Y-122079819D02*
X179285714Y-122079819D01*
X179285714Y-122079819D02*
X179190476Y-122032200D01*
X179190476Y-122032200D02*
X179142857Y-121984580D01*
X179142857Y-121984580D02*
X179095238Y-121889342D01*
X179095238Y-121889342D02*
X179047619Y-121698866D01*
X179047619Y-121698866D02*
X179047619Y-121460771D01*
X179047619Y-121460771D02*
X179095238Y-121270295D01*
X179095238Y-121270295D02*
X179142857Y-121175057D01*
X179142857Y-121175057D02*
X179190476Y-121127438D01*
X179190476Y-121127438D02*
X179285714Y-121079819D01*
X179798214Y-59000057D02*
X179845833Y-58952438D01*
X179845833Y-58952438D02*
X179941071Y-58904819D01*
X179941071Y-58904819D02*
X180179166Y-58904819D01*
X180179166Y-58904819D02*
X180274404Y-58952438D01*
X180274404Y-58952438D02*
X180322023Y-59000057D01*
X180322023Y-59000057D02*
X180369642Y-59095295D01*
X180369642Y-59095295D02*
X180369642Y-59190533D01*
X180369642Y-59190533D02*
X180322023Y-59333390D01*
X180322023Y-59333390D02*
X179750595Y-59904819D01*
X179750595Y-59904819D02*
X180369642Y-59904819D01*
X180988690Y-58904819D02*
X181083928Y-58904819D01*
X181083928Y-58904819D02*
X181179166Y-58952438D01*
X181179166Y-58952438D02*
X181226785Y-59000057D01*
X181226785Y-59000057D02*
X181274404Y-59095295D01*
X181274404Y-59095295D02*
X181322023Y-59285771D01*
X181322023Y-59285771D02*
X181322023Y-59523866D01*
X181322023Y-59523866D02*
X181274404Y-59714342D01*
X181274404Y-59714342D02*
X181226785Y-59809580D01*
X181226785Y-59809580D02*
X181179166Y-59857200D01*
X181179166Y-59857200D02*
X181083928Y-59904819D01*
X181083928Y-59904819D02*
X180988690Y-59904819D01*
X180988690Y-59904819D02*
X180893452Y-59857200D01*
X180893452Y-59857200D02*
X180845833Y-59809580D01*
X180845833Y-59809580D02*
X180798214Y-59714342D01*
X180798214Y-59714342D02*
X180750595Y-59523866D01*
X180750595Y-59523866D02*
X180750595Y-59285771D01*
X180750595Y-59285771D02*
X180798214Y-59095295D01*
X180798214Y-59095295D02*
X180845833Y-59000057D01*
X180845833Y-59000057D02*
X180893452Y-58952438D01*
X180893452Y-58952438D02*
X180988690Y-58904819D01*
X182274404Y-59904819D02*
X181702976Y-59904819D01*
X181988690Y-59904819D02*
X181988690Y-58904819D01*
X181988690Y-58904819D02*
X181893452Y-59047676D01*
X181893452Y-59047676D02*
X181798214Y-59142914D01*
X181798214Y-59142914D02*
X181702976Y-59190533D01*
X182893452Y-58904819D02*
X182988690Y-58904819D01*
X182988690Y-58904819D02*
X183083928Y-58952438D01*
X183083928Y-58952438D02*
X183131547Y-59000057D01*
X183131547Y-59000057D02*
X183179166Y-59095295D01*
X183179166Y-59095295D02*
X183226785Y-59285771D01*
X183226785Y-59285771D02*
X183226785Y-59523866D01*
X183226785Y-59523866D02*
X183179166Y-59714342D01*
X183179166Y-59714342D02*
X183131547Y-59809580D01*
X183131547Y-59809580D02*
X183083928Y-59857200D01*
X183083928Y-59857200D02*
X182988690Y-59904819D01*
X182988690Y-59904819D02*
X182893452Y-59904819D01*
X182893452Y-59904819D02*
X182798214Y-59857200D01*
X182798214Y-59857200D02*
X182750595Y-59809580D01*
X182750595Y-59809580D02*
X182702976Y-59714342D01*
X182702976Y-59714342D02*
X182655357Y-59523866D01*
X182655357Y-59523866D02*
X182655357Y-59285771D01*
X182655357Y-59285771D02*
X182702976Y-59095295D01*
X182702976Y-59095295D02*
X182750595Y-59000057D01*
X182750595Y-59000057D02*
X182798214Y-58952438D01*
X182798214Y-58952438D02*
X182893452Y-58904819D01*
X174809047Y-88629819D02*
X174332857Y-88629819D01*
X174332857Y-88629819D02*
X174332857Y-87629819D01*
X174999524Y-87629819D02*
X175570952Y-87629819D01*
X175285238Y-88629819D02*
X175285238Y-87629819D01*
X176475714Y-88534580D02*
X176428095Y-88582200D01*
X176428095Y-88582200D02*
X176285238Y-88629819D01*
X176285238Y-88629819D02*
X176190000Y-88629819D01*
X176190000Y-88629819D02*
X176047143Y-88582200D01*
X176047143Y-88582200D02*
X175951905Y-88486961D01*
X175951905Y-88486961D02*
X175904286Y-88391723D01*
X175904286Y-88391723D02*
X175856667Y-88201247D01*
X175856667Y-88201247D02*
X175856667Y-88058390D01*
X175856667Y-88058390D02*
X175904286Y-87867914D01*
X175904286Y-87867914D02*
X175951905Y-87772676D01*
X175951905Y-87772676D02*
X176047143Y-87677438D01*
X176047143Y-87677438D02*
X176190000Y-87629819D01*
X176190000Y-87629819D02*
X176285238Y-87629819D01*
X176285238Y-87629819D02*
X176428095Y-87677438D01*
X176428095Y-87677438D02*
X176475714Y-87725057D01*
X177428095Y-88629819D02*
X176856667Y-88629819D01*
X177142381Y-88629819D02*
X177142381Y-87629819D01*
X177142381Y-87629819D02*
X177047143Y-87772676D01*
X177047143Y-87772676D02*
X176951905Y-87867914D01*
X176951905Y-87867914D02*
X176856667Y-87915533D01*
X178380476Y-88629819D02*
X177809048Y-88629819D01*
X178094762Y-88629819D02*
X178094762Y-87629819D01*
X178094762Y-87629819D02*
X177999524Y-87772676D01*
X177999524Y-87772676D02*
X177904286Y-87867914D01*
X177904286Y-87867914D02*
X177809048Y-87915533D01*
X178999524Y-87629819D02*
X179094762Y-87629819D01*
X179094762Y-87629819D02*
X179190000Y-87677438D01*
X179190000Y-87677438D02*
X179237619Y-87725057D01*
X179237619Y-87725057D02*
X179285238Y-87820295D01*
X179285238Y-87820295D02*
X179332857Y-88010771D01*
X179332857Y-88010771D02*
X179332857Y-88248866D01*
X179332857Y-88248866D02*
X179285238Y-88439342D01*
X179285238Y-88439342D02*
X179237619Y-88534580D01*
X179237619Y-88534580D02*
X179190000Y-88582200D01*
X179190000Y-88582200D02*
X179094762Y-88629819D01*
X179094762Y-88629819D02*
X178999524Y-88629819D01*
X178999524Y-88629819D02*
X178904286Y-88582200D01*
X178904286Y-88582200D02*
X178856667Y-88534580D01*
X178856667Y-88534580D02*
X178809048Y-88439342D01*
X178809048Y-88439342D02*
X178761429Y-88248866D01*
X178761429Y-88248866D02*
X178761429Y-88010771D01*
X178761429Y-88010771D02*
X178809048Y-87820295D01*
X178809048Y-87820295D02*
X178856667Y-87725057D01*
X178856667Y-87725057D02*
X178904286Y-87677438D01*
X178904286Y-87677438D02*
X178999524Y-87629819D01*
X179951905Y-87629819D02*
X180047143Y-87629819D01*
X180047143Y-87629819D02*
X180142381Y-87677438D01*
X180142381Y-87677438D02*
X180190000Y-87725057D01*
X180190000Y-87725057D02*
X180237619Y-87820295D01*
X180237619Y-87820295D02*
X180285238Y-88010771D01*
X180285238Y-88010771D02*
X180285238Y-88248866D01*
X180285238Y-88248866D02*
X180237619Y-88439342D01*
X180237619Y-88439342D02*
X180190000Y-88534580D01*
X180190000Y-88534580D02*
X180142381Y-88582200D01*
X180142381Y-88582200D02*
X180047143Y-88629819D01*
X180047143Y-88629819D02*
X179951905Y-88629819D01*
X179951905Y-88629819D02*
X179856667Y-88582200D01*
X179856667Y-88582200D02*
X179809048Y-88534580D01*
X179809048Y-88534580D02*
X179761429Y-88439342D01*
X179761429Y-88439342D02*
X179713810Y-88248866D01*
X179713810Y-88248866D02*
X179713810Y-88010771D01*
X179713810Y-88010771D02*
X179761429Y-87820295D01*
X179761429Y-87820295D02*
X179809048Y-87725057D01*
X179809048Y-87725057D02*
X179856667Y-87677438D01*
X179856667Y-87677438D02*
X179951905Y-87629819D01*
X180618572Y-88629819D02*
X181142381Y-87963152D01*
X180618572Y-87963152D02*
X181142381Y-88629819D01*
X181523334Y-88629819D02*
X181523334Y-87629819D01*
X181523334Y-87629819D02*
X182094762Y-88629819D01*
X182094762Y-88629819D02*
X182094762Y-87629819D01*
X182713810Y-88058390D02*
X182618572Y-88010771D01*
X182618572Y-88010771D02*
X182570953Y-87963152D01*
X182570953Y-87963152D02*
X182523334Y-87867914D01*
X182523334Y-87867914D02*
X182523334Y-87820295D01*
X182523334Y-87820295D02*
X182570953Y-87725057D01*
X182570953Y-87725057D02*
X182618572Y-87677438D01*
X182618572Y-87677438D02*
X182713810Y-87629819D01*
X182713810Y-87629819D02*
X182904286Y-87629819D01*
X182904286Y-87629819D02*
X182999524Y-87677438D01*
X182999524Y-87677438D02*
X183047143Y-87725057D01*
X183047143Y-87725057D02*
X183094762Y-87820295D01*
X183094762Y-87820295D02*
X183094762Y-87867914D01*
X183094762Y-87867914D02*
X183047143Y-87963152D01*
X183047143Y-87963152D02*
X182999524Y-88010771D01*
X182999524Y-88010771D02*
X182904286Y-88058390D01*
X182904286Y-88058390D02*
X182713810Y-88058390D01*
X182713810Y-88058390D02*
X182618572Y-88106009D01*
X182618572Y-88106009D02*
X182570953Y-88153628D01*
X182570953Y-88153628D02*
X182523334Y-88248866D01*
X182523334Y-88248866D02*
X182523334Y-88439342D01*
X182523334Y-88439342D02*
X182570953Y-88534580D01*
X182570953Y-88534580D02*
X182618572Y-88582200D01*
X182618572Y-88582200D02*
X182713810Y-88629819D01*
X182713810Y-88629819D02*
X182904286Y-88629819D01*
X182904286Y-88629819D02*
X182999524Y-88582200D01*
X182999524Y-88582200D02*
X183047143Y-88534580D01*
X183047143Y-88534580D02*
X183094762Y-88439342D01*
X183094762Y-88439342D02*
X183094762Y-88248866D01*
X183094762Y-88248866D02*
X183047143Y-88153628D01*
X183047143Y-88153628D02*
X182999524Y-88106009D01*
X182999524Y-88106009D02*
X182904286Y-88058390D01*
X169706548Y-102804819D02*
X169706548Y-101804819D01*
X170182738Y-102804819D02*
X170182738Y-101804819D01*
X170182738Y-101804819D02*
X170754166Y-102804819D01*
X170754166Y-102804819D02*
X170754166Y-101804819D01*
X171182738Y-102519104D02*
X171658928Y-102519104D01*
X171087500Y-102804819D02*
X171420833Y-101804819D01*
X171420833Y-101804819D02*
X171754166Y-102804819D01*
X172039881Y-101900057D02*
X172087500Y-101852438D01*
X172087500Y-101852438D02*
X172182738Y-101804819D01*
X172182738Y-101804819D02*
X172420833Y-101804819D01*
X172420833Y-101804819D02*
X172516071Y-101852438D01*
X172516071Y-101852438D02*
X172563690Y-101900057D01*
X172563690Y-101900057D02*
X172611309Y-101995295D01*
X172611309Y-101995295D02*
X172611309Y-102090533D01*
X172611309Y-102090533D02*
X172563690Y-102233390D01*
X172563690Y-102233390D02*
X171992262Y-102804819D01*
X171992262Y-102804819D02*
X172611309Y-102804819D01*
X173516071Y-101804819D02*
X173039881Y-101804819D01*
X173039881Y-101804819D02*
X172992262Y-102281009D01*
X172992262Y-102281009D02*
X173039881Y-102233390D01*
X173039881Y-102233390D02*
X173135119Y-102185771D01*
X173135119Y-102185771D02*
X173373214Y-102185771D01*
X173373214Y-102185771D02*
X173468452Y-102233390D01*
X173468452Y-102233390D02*
X173516071Y-102281009D01*
X173516071Y-102281009D02*
X173563690Y-102376247D01*
X173563690Y-102376247D02*
X173563690Y-102614342D01*
X173563690Y-102614342D02*
X173516071Y-102709580D01*
X173516071Y-102709580D02*
X173468452Y-102757200D01*
X173468452Y-102757200D02*
X173373214Y-102804819D01*
X173373214Y-102804819D02*
X173135119Y-102804819D01*
X173135119Y-102804819D02*
X173039881Y-102757200D01*
X173039881Y-102757200D02*
X172992262Y-102709580D01*
X173897024Y-101804819D02*
X174516071Y-101804819D01*
X174516071Y-101804819D02*
X174182738Y-102185771D01*
X174182738Y-102185771D02*
X174325595Y-102185771D01*
X174325595Y-102185771D02*
X174420833Y-102233390D01*
X174420833Y-102233390D02*
X174468452Y-102281009D01*
X174468452Y-102281009D02*
X174516071Y-102376247D01*
X174516071Y-102376247D02*
X174516071Y-102614342D01*
X174516071Y-102614342D02*
X174468452Y-102709580D01*
X174468452Y-102709580D02*
X174420833Y-102757200D01*
X174420833Y-102757200D02*
X174325595Y-102804819D01*
X174325595Y-102804819D02*
X174039881Y-102804819D01*
X174039881Y-102804819D02*
X173944643Y-102757200D01*
X173944643Y-102757200D02*
X173897024Y-102709580D01*
X163975714Y-88704819D02*
X163499524Y-88704819D01*
X163499524Y-88704819D02*
X163499524Y-87704819D01*
X164309048Y-88704819D02*
X164309048Y-87704819D01*
X164309048Y-87704819D02*
X164642381Y-88419104D01*
X164642381Y-88419104D02*
X164975714Y-87704819D01*
X164975714Y-87704819D02*
X164975714Y-88704819D01*
X165356667Y-87704819D02*
X165975714Y-87704819D01*
X165975714Y-87704819D02*
X165642381Y-88085771D01*
X165642381Y-88085771D02*
X165785238Y-88085771D01*
X165785238Y-88085771D02*
X165880476Y-88133390D01*
X165880476Y-88133390D02*
X165928095Y-88181009D01*
X165928095Y-88181009D02*
X165975714Y-88276247D01*
X165975714Y-88276247D02*
X165975714Y-88514342D01*
X165975714Y-88514342D02*
X165928095Y-88609580D01*
X165928095Y-88609580D02*
X165880476Y-88657200D01*
X165880476Y-88657200D02*
X165785238Y-88704819D01*
X165785238Y-88704819D02*
X165499524Y-88704819D01*
X165499524Y-88704819D02*
X165404286Y-88657200D01*
X165404286Y-88657200D02*
X165356667Y-88609580D01*
X166547143Y-88133390D02*
X166451905Y-88085771D01*
X166451905Y-88085771D02*
X166404286Y-88038152D01*
X166404286Y-88038152D02*
X166356667Y-87942914D01*
X166356667Y-87942914D02*
X166356667Y-87895295D01*
X166356667Y-87895295D02*
X166404286Y-87800057D01*
X166404286Y-87800057D02*
X166451905Y-87752438D01*
X166451905Y-87752438D02*
X166547143Y-87704819D01*
X166547143Y-87704819D02*
X166737619Y-87704819D01*
X166737619Y-87704819D02*
X166832857Y-87752438D01*
X166832857Y-87752438D02*
X166880476Y-87800057D01*
X166880476Y-87800057D02*
X166928095Y-87895295D01*
X166928095Y-87895295D02*
X166928095Y-87942914D01*
X166928095Y-87942914D02*
X166880476Y-88038152D01*
X166880476Y-88038152D02*
X166832857Y-88085771D01*
X166832857Y-88085771D02*
X166737619Y-88133390D01*
X166737619Y-88133390D02*
X166547143Y-88133390D01*
X166547143Y-88133390D02*
X166451905Y-88181009D01*
X166451905Y-88181009D02*
X166404286Y-88228628D01*
X166404286Y-88228628D02*
X166356667Y-88323866D01*
X166356667Y-88323866D02*
X166356667Y-88514342D01*
X166356667Y-88514342D02*
X166404286Y-88609580D01*
X166404286Y-88609580D02*
X166451905Y-88657200D01*
X166451905Y-88657200D02*
X166547143Y-88704819D01*
X166547143Y-88704819D02*
X166737619Y-88704819D01*
X166737619Y-88704819D02*
X166832857Y-88657200D01*
X166832857Y-88657200D02*
X166880476Y-88609580D01*
X166880476Y-88609580D02*
X166928095Y-88514342D01*
X166928095Y-88514342D02*
X166928095Y-88323866D01*
X166928095Y-88323866D02*
X166880476Y-88228628D01*
X166880476Y-88228628D02*
X166832857Y-88181009D01*
X166832857Y-88181009D02*
X166737619Y-88133390D01*
X167547143Y-87704819D02*
X167642381Y-87704819D01*
X167642381Y-87704819D02*
X167737619Y-87752438D01*
X167737619Y-87752438D02*
X167785238Y-87800057D01*
X167785238Y-87800057D02*
X167832857Y-87895295D01*
X167832857Y-87895295D02*
X167880476Y-88085771D01*
X167880476Y-88085771D02*
X167880476Y-88323866D01*
X167880476Y-88323866D02*
X167832857Y-88514342D01*
X167832857Y-88514342D02*
X167785238Y-88609580D01*
X167785238Y-88609580D02*
X167737619Y-88657200D01*
X167737619Y-88657200D02*
X167642381Y-88704819D01*
X167642381Y-88704819D02*
X167547143Y-88704819D01*
X167547143Y-88704819D02*
X167451905Y-88657200D01*
X167451905Y-88657200D02*
X167404286Y-88609580D01*
X167404286Y-88609580D02*
X167356667Y-88514342D01*
X167356667Y-88514342D02*
X167309048Y-88323866D01*
X167309048Y-88323866D02*
X167309048Y-88085771D01*
X167309048Y-88085771D02*
X167356667Y-87895295D01*
X167356667Y-87895295D02*
X167404286Y-87800057D01*
X167404286Y-87800057D02*
X167451905Y-87752438D01*
X167451905Y-87752438D02*
X167547143Y-87704819D01*
X168309048Y-88704819D02*
X168309048Y-87704819D01*
X168309048Y-87704819D02*
X168880476Y-88704819D01*
X168880476Y-88704819D02*
X168880476Y-87704819D01*
X244571428Y-85029819D02*
X244095238Y-85029819D01*
X244095238Y-85029819D02*
X244095238Y-84029819D01*
X244904762Y-85029819D02*
X244904762Y-84029819D01*
X244904762Y-84029819D02*
X245238095Y-84744104D01*
X245238095Y-84744104D02*
X245571428Y-84029819D01*
X245571428Y-84029819D02*
X245571428Y-85029819D01*
X245952381Y-84029819D02*
X246571428Y-84029819D01*
X246571428Y-84029819D02*
X246238095Y-84410771D01*
X246238095Y-84410771D02*
X246380952Y-84410771D01*
X246380952Y-84410771D02*
X246476190Y-84458390D01*
X246476190Y-84458390D02*
X246523809Y-84506009D01*
X246523809Y-84506009D02*
X246571428Y-84601247D01*
X246571428Y-84601247D02*
X246571428Y-84839342D01*
X246571428Y-84839342D02*
X246523809Y-84934580D01*
X246523809Y-84934580D02*
X246476190Y-84982200D01*
X246476190Y-84982200D02*
X246380952Y-85029819D01*
X246380952Y-85029819D02*
X246095238Y-85029819D01*
X246095238Y-85029819D02*
X246000000Y-84982200D01*
X246000000Y-84982200D02*
X245952381Y-84934580D01*
X247523809Y-85029819D02*
X246952381Y-85029819D01*
X247238095Y-85029819D02*
X247238095Y-84029819D01*
X247238095Y-84029819D02*
X247142857Y-84172676D01*
X247142857Y-84172676D02*
X247047619Y-84267914D01*
X247047619Y-84267914D02*
X246952381Y-84315533D01*
X247857143Y-84029819D02*
X248523809Y-84029819D01*
X248523809Y-84029819D02*
X248095238Y-85029819D01*
X249380952Y-85029819D02*
X248904762Y-85029819D01*
X248904762Y-85029819D02*
X248904762Y-84029819D01*
X249476191Y-85125057D02*
X250238095Y-85125057D01*
X250428572Y-84982200D02*
X250571429Y-85029819D01*
X250571429Y-85029819D02*
X250809524Y-85029819D01*
X250809524Y-85029819D02*
X250904762Y-84982200D01*
X250904762Y-84982200D02*
X250952381Y-84934580D01*
X250952381Y-84934580D02*
X251000000Y-84839342D01*
X251000000Y-84839342D02*
X251000000Y-84744104D01*
X251000000Y-84744104D02*
X250952381Y-84648866D01*
X250952381Y-84648866D02*
X250904762Y-84601247D01*
X250904762Y-84601247D02*
X250809524Y-84553628D01*
X250809524Y-84553628D02*
X250619048Y-84506009D01*
X250619048Y-84506009D02*
X250523810Y-84458390D01*
X250523810Y-84458390D02*
X250476191Y-84410771D01*
X250476191Y-84410771D02*
X250428572Y-84315533D01*
X250428572Y-84315533D02*
X250428572Y-84220295D01*
X250428572Y-84220295D02*
X250476191Y-84125057D01*
X250476191Y-84125057D02*
X250523810Y-84077438D01*
X250523810Y-84077438D02*
X250619048Y-84029819D01*
X250619048Y-84029819D02*
X250857143Y-84029819D01*
X250857143Y-84029819D02*
X251000000Y-84077438D01*
X251619048Y-84029819D02*
X251809524Y-84029819D01*
X251809524Y-84029819D02*
X251904762Y-84077438D01*
X251904762Y-84077438D02*
X252000000Y-84172676D01*
X252000000Y-84172676D02*
X252047619Y-84363152D01*
X252047619Y-84363152D02*
X252047619Y-84696485D01*
X252047619Y-84696485D02*
X252000000Y-84886961D01*
X252000000Y-84886961D02*
X251904762Y-84982200D01*
X251904762Y-84982200D02*
X251809524Y-85029819D01*
X251809524Y-85029819D02*
X251619048Y-85029819D01*
X251619048Y-85029819D02*
X251523810Y-84982200D01*
X251523810Y-84982200D02*
X251428572Y-84886961D01*
X251428572Y-84886961D02*
X251380953Y-84696485D01*
X251380953Y-84696485D02*
X251380953Y-84363152D01*
X251380953Y-84363152D02*
X251428572Y-84172676D01*
X251428572Y-84172676D02*
X251523810Y-84077438D01*
X251523810Y-84077438D02*
X251619048Y-84029819D01*
X252333334Y-84029819D02*
X252904762Y-84029819D01*
X252619048Y-85029819D02*
X252619048Y-84029819D01*
X253238096Y-84648866D02*
X254000001Y-84648866D01*
X254619048Y-84458390D02*
X254523810Y-84410771D01*
X254523810Y-84410771D02*
X254476191Y-84363152D01*
X254476191Y-84363152D02*
X254428572Y-84267914D01*
X254428572Y-84267914D02*
X254428572Y-84220295D01*
X254428572Y-84220295D02*
X254476191Y-84125057D01*
X254476191Y-84125057D02*
X254523810Y-84077438D01*
X254523810Y-84077438D02*
X254619048Y-84029819D01*
X254619048Y-84029819D02*
X254809524Y-84029819D01*
X254809524Y-84029819D02*
X254904762Y-84077438D01*
X254904762Y-84077438D02*
X254952381Y-84125057D01*
X254952381Y-84125057D02*
X255000000Y-84220295D01*
X255000000Y-84220295D02*
X255000000Y-84267914D01*
X255000000Y-84267914D02*
X254952381Y-84363152D01*
X254952381Y-84363152D02*
X254904762Y-84410771D01*
X254904762Y-84410771D02*
X254809524Y-84458390D01*
X254809524Y-84458390D02*
X254619048Y-84458390D01*
X254619048Y-84458390D02*
X254523810Y-84506009D01*
X254523810Y-84506009D02*
X254476191Y-84553628D01*
X254476191Y-84553628D02*
X254428572Y-84648866D01*
X254428572Y-84648866D02*
X254428572Y-84839342D01*
X254428572Y-84839342D02*
X254476191Y-84934580D01*
X254476191Y-84934580D02*
X254523810Y-84982200D01*
X254523810Y-84982200D02*
X254619048Y-85029819D01*
X254619048Y-85029819D02*
X254809524Y-85029819D01*
X254809524Y-85029819D02*
X254904762Y-84982200D01*
X254904762Y-84982200D02*
X254952381Y-84934580D01*
X254952381Y-84934580D02*
X255000000Y-84839342D01*
X255000000Y-84839342D02*
X255000000Y-84648866D01*
X255000000Y-84648866D02*
X254952381Y-84553628D01*
X254952381Y-84553628D02*
X254904762Y-84506009D01*
X254904762Y-84506009D02*
X254809524Y-84458390D01*
X255476191Y-85029819D02*
X255666667Y-85029819D01*
X255666667Y-85029819D02*
X255761905Y-84982200D01*
X255761905Y-84982200D02*
X255809524Y-84934580D01*
X255809524Y-84934580D02*
X255904762Y-84791723D01*
X255904762Y-84791723D02*
X255952381Y-84601247D01*
X255952381Y-84601247D02*
X255952381Y-84220295D01*
X255952381Y-84220295D02*
X255904762Y-84125057D01*
X255904762Y-84125057D02*
X255857143Y-84077438D01*
X255857143Y-84077438D02*
X255761905Y-84029819D01*
X255761905Y-84029819D02*
X255571429Y-84029819D01*
X255571429Y-84029819D02*
X255476191Y-84077438D01*
X255476191Y-84077438D02*
X255428572Y-84125057D01*
X255428572Y-84125057D02*
X255380953Y-84220295D01*
X255380953Y-84220295D02*
X255380953Y-84458390D01*
X255380953Y-84458390D02*
X255428572Y-84553628D01*
X255428572Y-84553628D02*
X255476191Y-84601247D01*
X255476191Y-84601247D02*
X255571429Y-84648866D01*
X255571429Y-84648866D02*
X255761905Y-84648866D01*
X255761905Y-84648866D02*
X255857143Y-84601247D01*
X255857143Y-84601247D02*
X255904762Y-84553628D01*
X255904762Y-84553628D02*
X255952381Y-84458390D01*
X246011905Y-96629819D02*
X246011905Y-95629819D01*
X246011905Y-95629819D02*
X246250000Y-95629819D01*
X246250000Y-95629819D02*
X246392857Y-95677438D01*
X246392857Y-95677438D02*
X246488095Y-95772676D01*
X246488095Y-95772676D02*
X246535714Y-95867914D01*
X246535714Y-95867914D02*
X246583333Y-96058390D01*
X246583333Y-96058390D02*
X246583333Y-96201247D01*
X246583333Y-96201247D02*
X246535714Y-96391723D01*
X246535714Y-96391723D02*
X246488095Y-96486961D01*
X246488095Y-96486961D02*
X246392857Y-96582200D01*
X246392857Y-96582200D02*
X246250000Y-96629819D01*
X246250000Y-96629819D02*
X246011905Y-96629819D01*
X246964286Y-95725057D02*
X247011905Y-95677438D01*
X247011905Y-95677438D02*
X247107143Y-95629819D01*
X247107143Y-95629819D02*
X247345238Y-95629819D01*
X247345238Y-95629819D02*
X247440476Y-95677438D01*
X247440476Y-95677438D02*
X247488095Y-95725057D01*
X247488095Y-95725057D02*
X247535714Y-95820295D01*
X247535714Y-95820295D02*
X247535714Y-95915533D01*
X247535714Y-95915533D02*
X247488095Y-96058390D01*
X247488095Y-96058390D02*
X246916667Y-96629819D01*
X246916667Y-96629819D02*
X247535714Y-96629819D01*
X243845238Y-101881009D02*
X243988095Y-101928628D01*
X243988095Y-101928628D02*
X244035714Y-101976247D01*
X244035714Y-101976247D02*
X244083333Y-102071485D01*
X244083333Y-102071485D02*
X244083333Y-102214342D01*
X244083333Y-102214342D02*
X244035714Y-102309580D01*
X244035714Y-102309580D02*
X243988095Y-102357200D01*
X243988095Y-102357200D02*
X243892857Y-102404819D01*
X243892857Y-102404819D02*
X243511905Y-102404819D01*
X243511905Y-102404819D02*
X243511905Y-101404819D01*
X243511905Y-101404819D02*
X243845238Y-101404819D01*
X243845238Y-101404819D02*
X243940476Y-101452438D01*
X243940476Y-101452438D02*
X243988095Y-101500057D01*
X243988095Y-101500057D02*
X244035714Y-101595295D01*
X244035714Y-101595295D02*
X244035714Y-101690533D01*
X244035714Y-101690533D02*
X243988095Y-101785771D01*
X243988095Y-101785771D02*
X243940476Y-101833390D01*
X243940476Y-101833390D02*
X243845238Y-101881009D01*
X243845238Y-101881009D02*
X243511905Y-101881009D01*
X245035714Y-102404819D02*
X244464286Y-102404819D01*
X244750000Y-102404819D02*
X244750000Y-101404819D01*
X244750000Y-101404819D02*
X244654762Y-101547676D01*
X244654762Y-101547676D02*
X244559524Y-101642914D01*
X244559524Y-101642914D02*
X244464286Y-101690533D01*
X245416667Y-101500057D02*
X245464286Y-101452438D01*
X245464286Y-101452438D02*
X245559524Y-101404819D01*
X245559524Y-101404819D02*
X245797619Y-101404819D01*
X245797619Y-101404819D02*
X245892857Y-101452438D01*
X245892857Y-101452438D02*
X245940476Y-101500057D01*
X245940476Y-101500057D02*
X245988095Y-101595295D01*
X245988095Y-101595295D02*
X245988095Y-101690533D01*
X245988095Y-101690533D02*
X245940476Y-101833390D01*
X245940476Y-101833390D02*
X245369048Y-102404819D01*
X245369048Y-102404819D02*
X245988095Y-102404819D01*
X246607143Y-101404819D02*
X246702381Y-101404819D01*
X246702381Y-101404819D02*
X246797619Y-101452438D01*
X246797619Y-101452438D02*
X246845238Y-101500057D01*
X246845238Y-101500057D02*
X246892857Y-101595295D01*
X246892857Y-101595295D02*
X246940476Y-101785771D01*
X246940476Y-101785771D02*
X246940476Y-102023866D01*
X246940476Y-102023866D02*
X246892857Y-102214342D01*
X246892857Y-102214342D02*
X246845238Y-102309580D01*
X246845238Y-102309580D02*
X246797619Y-102357200D01*
X246797619Y-102357200D02*
X246702381Y-102404819D01*
X246702381Y-102404819D02*
X246607143Y-102404819D01*
X246607143Y-102404819D02*
X246511905Y-102357200D01*
X246511905Y-102357200D02*
X246464286Y-102309580D01*
X246464286Y-102309580D02*
X246416667Y-102214342D01*
X246416667Y-102214342D02*
X246369048Y-102023866D01*
X246369048Y-102023866D02*
X246369048Y-101785771D01*
X246369048Y-101785771D02*
X246416667Y-101595295D01*
X246416667Y-101595295D02*
X246464286Y-101500057D01*
X246464286Y-101500057D02*
X246511905Y-101452438D01*
X246511905Y-101452438D02*
X246607143Y-101404819D01*
X247369048Y-102023866D02*
X248130953Y-102023866D01*
X248607143Y-101881009D02*
X248940476Y-101881009D01*
X249083333Y-102404819D02*
X248607143Y-102404819D01*
X248607143Y-102404819D02*
X248607143Y-101404819D01*
X248607143Y-101404819D02*
X249083333Y-101404819D01*
X249416667Y-101404819D02*
X250035714Y-101404819D01*
X250035714Y-101404819D02*
X249702381Y-101785771D01*
X249702381Y-101785771D02*
X249845238Y-101785771D01*
X249845238Y-101785771D02*
X249940476Y-101833390D01*
X249940476Y-101833390D02*
X249988095Y-101881009D01*
X249988095Y-101881009D02*
X250035714Y-101976247D01*
X250035714Y-101976247D02*
X250035714Y-102214342D01*
X250035714Y-102214342D02*
X249988095Y-102309580D01*
X249988095Y-102309580D02*
X249940476Y-102357200D01*
X249940476Y-102357200D02*
X249845238Y-102404819D01*
X249845238Y-102404819D02*
X249559524Y-102404819D01*
X249559524Y-102404819D02*
X249464286Y-102357200D01*
X249464286Y-102357200D02*
X249416667Y-102309580D01*
D13*
%TO.C,Y3*%
X201160000Y-54840000D02*
X195290000Y-54840000D01*
X195290000Y-58560000D02*
X201160000Y-58560000D01*
X195290000Y-54840000D02*
X195290000Y-58560000D01*
%TO.C,U3*%
X136650000Y-95525000D02*
X136410000Y-95195000D01*
X136890000Y-95195000D01*
X136650000Y-95525000D01*
G36*
X136650000Y-95525000D02*
G01*
X136410000Y-95195000D01*
X136890000Y-95195000D01*
X136650000Y-95525000D01*
G37*
X141310000Y-100555000D02*
X137190000Y-100555000D01*
X141310000Y-100460000D02*
X141310000Y-100555000D01*
X141310000Y-95435000D02*
X141310000Y-95530000D01*
X137190000Y-100555000D02*
X137190000Y-100460000D01*
X137190000Y-95530000D02*
X137190000Y-95435000D01*
X137190000Y-95435000D02*
X141310000Y-95435000D01*
%TO.C,U7*%
X147862500Y-95515000D02*
X147522500Y-95045000D01*
X148202500Y-95045000D01*
X147862500Y-95515000D01*
G36*
X147862500Y-95515000D02*
G01*
X147522500Y-95045000D01*
X148202500Y-95045000D01*
X147862500Y-95515000D01*
G37*
X153122500Y-100535000D02*
X148502500Y-100535000D01*
X153122500Y-100335000D02*
X153122500Y-100535000D01*
X153122500Y-95315000D02*
X153122500Y-95515000D01*
X148502500Y-100535000D02*
X148502500Y-100335000D01*
X148502500Y-95515000D02*
X148502500Y-95315000D01*
X148502500Y-95315000D02*
X153122500Y-95315000D01*
%TO.C,SW5*%
X214090000Y-108390000D02*
X214090000Y-108800000D01*
X214090000Y-110400000D02*
X214090000Y-112800000D01*
X214090000Y-114400000D02*
X214090000Y-114810000D01*
X214090000Y-114810000D02*
X220510000Y-114810000D01*
X220510000Y-108390000D02*
X214090000Y-108390000D01*
X220510000Y-108800000D02*
X220510000Y-108390000D01*
X220510000Y-112800000D02*
X220510000Y-110400000D01*
X220510000Y-114810000D02*
X220510000Y-114530000D01*
%TO.C,Y1*%
X197045000Y-96250000D02*
X196984999Y-96250000D01*
X197915000Y-96250000D02*
X197045000Y-96250000D01*
X197045000Y-91350000D02*
X196985000Y-91350000D01*
X197915000Y-91350000D02*
X197045000Y-91350000D01*
X197915000Y-99860000D02*
X197795000Y-99859999D01*
X197795000Y-87740000D01*
X197915000Y-87740000D01*
X197915000Y-99860000D01*
X211435000Y-99510001D02*
X197915000Y-99510000D01*
X197915000Y-88090000D01*
X211435000Y-88090000D01*
X211435000Y-99510001D01*
%TO.C,U14*%
X236937500Y-80015000D02*
X236697500Y-79685000D01*
X237177500Y-79685000D01*
X236937500Y-80015000D01*
G36*
X236937500Y-80015000D02*
G01*
X236697500Y-79685000D01*
X237177500Y-79685000D01*
X236937500Y-80015000D01*
G37*
X239297500Y-83085000D02*
X237477500Y-83085000D01*
X239297500Y-83035000D02*
X239297500Y-83085000D01*
X239297500Y-81135000D02*
X239297500Y-81915000D01*
X239297500Y-79965000D02*
X239297500Y-80015000D01*
X237477500Y-83085000D02*
X237477500Y-83035000D01*
X237477500Y-80015000D02*
X237477500Y-79965000D01*
X237477500Y-79965000D02*
X239297500Y-79965000D01*
%TO.C,U1*%
X149552500Y-113740000D02*
X150202500Y-113740000D01*
X149552500Y-114390000D02*
X149552500Y-113740000D01*
X149552500Y-120960000D02*
X149552500Y-120310000D01*
X150202500Y-120960000D02*
X149552500Y-120960000D01*
X156122500Y-113740000D02*
X156772500Y-113740000D01*
X156772500Y-113740000D02*
X156772500Y-114390000D01*
X156772500Y-120310000D02*
X156772500Y-120960000D01*
X156772500Y-120960000D02*
X156122500Y-120960000D01*
X149022500Y-114750000D02*
X148692500Y-114990000D01*
X148692500Y-114510000D01*
X149022500Y-114750000D01*
G36*
X149022500Y-114750000D02*
G01*
X148692500Y-114990000D01*
X148692500Y-114510000D01*
X149022500Y-114750000D01*
G37*
%TO.C,Q1*%
X187355000Y-86600000D02*
X190955000Y-86600000D01*
X187316522Y-86588478D02*
G75*
G02*
X189155000Y-82149999I1838478J1838478D01*
G01*
X189155000Y-82150000D02*
G75*
G02*
X190993478Y-86588478I0J-2600000D01*
G01*
%TO.C,R6*%
X174201263Y-55345000D02*
X175648737Y-55345000D01*
X174201263Y-58055000D02*
X175648737Y-58055000D01*
%TO.C,U13*%
X130260000Y-50860000D02*
X130260000Y-86540000D01*
X130260000Y-86540000D02*
X143180000Y-86540000D01*
X135720000Y-50860000D02*
X130260000Y-50860000D01*
X143180000Y-50860000D02*
X137720000Y-50860000D01*
X143180000Y-86540000D02*
X143180000Y-50860000D01*
X137720000Y-50860000D02*
G75*
G02*
X135720000Y-50860000I-1000000J0D01*
G01*
%TO.C,Y2*%
X221425000Y-91482500D02*
X227825000Y-91482500D01*
X227825000Y-96352500D02*
X221425000Y-96352500D01*
X221425000Y-96352500D02*
G75*
G02*
X221425000Y-91482500I0J2435000D01*
G01*
X227825000Y-91482500D02*
G75*
G02*
X227825000Y-96352500I0J-2435000D01*
G01*
%TO.C,J1*%
X205800000Y-57550000D02*
X205800000Y-58750000D01*
X206090000Y-55540000D02*
X206090000Y-56150000D01*
X206090000Y-55540000D02*
X220110000Y-55540000D01*
X206090000Y-64800000D02*
X206090000Y-58650000D01*
X220110000Y-55540000D02*
X220110000Y-56150000D01*
X220110000Y-64800000D02*
X220110000Y-58650000D01*
%TO.C,D3*%
X243230000Y-90125000D02*
X244250000Y-90125000D01*
X245030000Y-88655000D02*
X245030000Y-91595000D01*
X245150000Y-88655000D02*
X245150000Y-91595000D01*
X245270000Y-88655000D02*
X245270000Y-91595000D01*
X250710000Y-90125000D02*
X249690000Y-90125000D01*
X244250000Y-88655000D02*
X249690000Y-88655000D01*
X249690000Y-91595000D01*
X244250000Y-91595000D01*
X244250000Y-88655000D01*
%TO.C,U6*%
X180590000Y-90870000D02*
X184710000Y-90870000D01*
X180590000Y-90925000D02*
X180590000Y-90870000D01*
X180590000Y-100990000D02*
X180590000Y-100935000D01*
X184710000Y-90870000D02*
X184710000Y-90925000D01*
X184710000Y-100935000D02*
X184710000Y-100990000D01*
X184710000Y-100990000D02*
X180590000Y-100990000D01*
X180050000Y-90920000D02*
X179810000Y-90590000D01*
X180290000Y-90590000D01*
X180050000Y-90920000D01*
G36*
X180050000Y-90920000D02*
G01*
X179810000Y-90590000D01*
X180290000Y-90590000D01*
X180050000Y-90920000D01*
G37*
%TO.C,R4*%
X163647936Y-55965000D02*
X164102064Y-55965000D01*
X163647936Y-57435000D02*
X164102064Y-57435000D01*
%TO.C,U2*%
X122930000Y-107125000D02*
X141170000Y-107125000D01*
X122930000Y-125945000D02*
X122930000Y-126565000D01*
X122930000Y-126565000D02*
X123930000Y-126565000D01*
X141170000Y-107125000D02*
X141170000Y-107545000D01*
X141170000Y-125945000D02*
X141170000Y-126565000D01*
X141170000Y-126565000D02*
X140170000Y-126565000D01*
X122925000Y-107870000D02*
X122425000Y-107870000D01*
X122925000Y-107370000D01*
X122925000Y-107870000D01*
G36*
X122925000Y-107870000D02*
G01*
X122425000Y-107870000D01*
X122925000Y-107370000D01*
X122925000Y-107870000D01*
G37*
%TO.C,SW1*%
X180925000Y-111375000D02*
X180925000Y-111275000D01*
X180925000Y-112875000D02*
X185325000Y-112875000D01*
X185325000Y-109775000D02*
X180925000Y-109775000D01*
X185325000Y-111375000D02*
X185325000Y-111275000D01*
%TO.C,D1*%
X228247500Y-80705000D02*
X228107500Y-80515000D01*
X228387500Y-80515000D01*
X228247500Y-80705000D01*
G36*
X228247500Y-80705000D02*
G01*
X228107500Y-80515000D01*
X228387500Y-80515000D01*
X228247500Y-80705000D01*
G37*
X229922500Y-83035000D02*
X228452500Y-83035000D01*
X229922500Y-82385000D02*
X229922500Y-83035000D01*
X229922500Y-80715000D02*
X229922500Y-81365000D01*
X228538248Y-80715000D02*
X229922500Y-80715000D01*
X228452500Y-82015000D02*
X228452500Y-81735000D01*
%TO.C,R1*%
X159331359Y-56220000D02*
X159638641Y-56220000D01*
X159331359Y-56980000D02*
X159638641Y-56980000D01*
%TO.C,U12*%
X151040000Y-65930000D02*
X151040000Y-86370000D01*
X151040000Y-86370000D02*
X156340000Y-86370000D01*
X152690000Y-65930000D02*
X151040000Y-65930000D01*
X156340000Y-65930000D02*
X154690000Y-65930000D01*
X156340000Y-86370000D02*
X156340000Y-65930000D01*
X154690000Y-65930000D02*
G75*
G02*
X152690000Y-65930000I-1000000J0D01*
G01*
%TO.C,SW4*%
X189990000Y-108240000D02*
X189990000Y-108650000D01*
X189990000Y-110250000D02*
X189990000Y-112650000D01*
X189990000Y-114250000D02*
X189990000Y-114660000D01*
X189990000Y-114660000D02*
X196410000Y-114660000D01*
X196410000Y-108240000D02*
X189990000Y-108240000D01*
X196410000Y-108650000D02*
X196410000Y-108240000D01*
X196410000Y-112650000D02*
X196410000Y-110250000D01*
X196410000Y-114660000D02*
X196410000Y-114380000D01*
%TO.C,R5*%
X168472936Y-55790000D02*
X169927064Y-55790000D01*
X168472936Y-57610000D02*
X169927064Y-57610000D01*
%TO.C,J2*%
X230905000Y-56290000D02*
X245005000Y-56290000D01*
X230905000Y-61090000D02*
X230905000Y-56290000D01*
X230905000Y-69390000D02*
X230905000Y-64590000D01*
X238705000Y-55590000D02*
X239205000Y-56090000D01*
X239205000Y-56090000D02*
X239705000Y-55590000D01*
X239705000Y-55590000D02*
X238705000Y-55590000D01*
X245005000Y-56290000D02*
X245005000Y-61090000D01*
X245005000Y-64590000D02*
X245005000Y-69390000D01*
X245005000Y-69390000D02*
X230905000Y-69390000D01*
%TO.C,R8*%
X187485436Y-54990000D02*
X191839564Y-54990000D01*
X187485436Y-58410000D02*
X191839564Y-58410000D01*
%TO.C,SW3*%
X202190000Y-108290000D02*
X202190000Y-108725000D01*
X202190000Y-110325000D02*
X202190000Y-112725000D01*
X202190000Y-114325000D02*
X202190000Y-114760000D01*
X202190000Y-114760000D02*
X208610000Y-114760000D01*
X208610000Y-108290000D02*
X202190000Y-108290000D01*
X208610000Y-108725000D02*
X208610000Y-108290000D01*
X208610000Y-112725000D02*
X208610000Y-110325000D01*
X208610000Y-114760000D02*
X208610000Y-114455000D01*
%TO.C,U4*%
X159840000Y-91755000D02*
X163960000Y-91755000D01*
X159840000Y-91820000D02*
X159840000Y-91755000D01*
X159840000Y-100625000D02*
X159840000Y-100560000D01*
X163960000Y-91755000D02*
X163960000Y-91820000D01*
X163960000Y-100560000D02*
X163960000Y-100625000D01*
X163960000Y-100625000D02*
X159840000Y-100625000D01*
X159300000Y-91820000D02*
X159060000Y-91490000D01*
X159540000Y-91490000D01*
X159300000Y-91820000D01*
G36*
X159300000Y-91820000D02*
G01*
X159060000Y-91490000D01*
X159540000Y-91490000D01*
X159300000Y-91820000D01*
G37*
%TO.C,U5*%
X125752500Y-97215000D02*
X130372500Y-97215000D01*
X125752500Y-97390000D02*
X125752500Y-97215000D01*
X125752500Y-100435000D02*
X125752500Y-100260000D01*
X130372500Y-97215000D02*
X130372500Y-97390000D01*
X130372500Y-100260000D02*
X130372500Y-100435000D01*
X130372500Y-100435000D02*
X125752500Y-100435000D01*
X125192500Y-97385000D02*
X124952500Y-97055000D01*
X125432500Y-97055000D01*
X125192500Y-97385000D01*
G36*
X125192500Y-97385000D02*
G01*
X124952500Y-97055000D01*
X125432500Y-97055000D01*
X125192500Y-97385000D01*
G37*
%TO.C,U9*%
X168840000Y-116640000D02*
X168840000Y-116390000D01*
X168840000Y-119460000D02*
X168840000Y-118960000D01*
X169340000Y-116140000D02*
X169140000Y-116140000D01*
X169340000Y-119460000D02*
X168840000Y-119460000D01*
X171660000Y-116140000D02*
X172160000Y-116140000D01*
X171660000Y-119460000D02*
X172160000Y-119460000D01*
X172160000Y-116140000D02*
X172160000Y-116640000D01*
X172160000Y-119460000D02*
X172160000Y-118960000D01*
X168840000Y-116140000D02*
X168600000Y-115810000D01*
X169080000Y-115810000D01*
X168840000Y-116140000D01*
G36*
X168840000Y-116140000D02*
G01*
X168600000Y-115810000D01*
X169080000Y-115810000D01*
X168840000Y-116140000D01*
G37*
%TO.C,SW2*%
X227715000Y-108090000D02*
X227715000Y-108525000D01*
X227715000Y-110125000D02*
X227715000Y-112525000D01*
X227715000Y-114125000D02*
X227715000Y-114560000D01*
X227715000Y-114560000D02*
X234135000Y-114560000D01*
X234135000Y-108090000D02*
X227715000Y-108090000D01*
X234135000Y-108525000D02*
X234135000Y-108090000D01*
X234135000Y-112525000D02*
X234135000Y-110125000D01*
X234135000Y-114560000D02*
X234135000Y-114255000D01*
%TO.C,R7*%
X179985436Y-55340000D02*
X183039564Y-55340000D01*
X179985436Y-58060000D02*
X183039564Y-58060000D01*
%TO.C,U10*%
X176040000Y-76170000D02*
X176040000Y-86450000D01*
X176040000Y-86450000D02*
X181340000Y-86450000D01*
X177690000Y-76170000D02*
X176040000Y-76170000D01*
X181340000Y-76170000D02*
X179690000Y-76170000D01*
X181340000Y-86450000D02*
X181340000Y-76170000D01*
X179690000Y-76170000D02*
G75*
G02*
X177690000Y-76170000I-1000000J0D01*
G01*
%TO.C,U8*%
X169777500Y-94065000D02*
X174397500Y-94065000D01*
X174397500Y-100835000D02*
X169777500Y-100835000D01*
X168227500Y-94520000D02*
X167897500Y-94760000D01*
X167897500Y-94280000D01*
X168227500Y-94520000D01*
G36*
X168227500Y-94520000D02*
G01*
X167897500Y-94760000D01*
X167897500Y-94280000D01*
X168227500Y-94520000D01*
G37*
%TO.C,U11*%
X163540000Y-68430000D02*
X163540000Y-86330000D01*
X163540000Y-86330000D02*
X168840000Y-86330000D01*
X165190000Y-68430000D02*
X163540000Y-68430000D01*
X168840000Y-68430000D02*
X167190000Y-68430000D01*
X168840000Y-86330000D02*
X168840000Y-68430000D01*
X167190000Y-68430000D02*
G75*
G02*
X165190000Y-68430000I-1000000J0D01*
G01*
%TO.C,U15*%
X248780000Y-78190000D02*
X251360000Y-78190000D01*
X251360000Y-79170000D02*
X251360000Y-78190000D01*
X251360000Y-81930000D02*
X251360000Y-82910000D01*
X251360000Y-82910000D02*
X248640000Y-82910000D01*
X248230000Y-78340000D02*
X247990000Y-78010000D01*
X248470000Y-78010000D01*
X248230000Y-78340000D01*
G36*
X248230000Y-78340000D02*
G01*
X247990000Y-78010000D01*
X248470000Y-78010000D01*
X248230000Y-78340000D01*
G37*
%TO.C,D2*%
X243240000Y-97025000D02*
X243240000Y-100325000D01*
X243240000Y-97025000D02*
X248750000Y-97025000D01*
X243240000Y-100325000D02*
X248750000Y-100325000D01*
%TD*%
M02*
