%TF.GenerationSoftware,KiCad,Pcbnew,9.0.7*%
%TF.CreationDate,2026-04-17T18:02:25-07:00*%
%TF.ProjectId,Footprint Cheat Sheet,466f6f74-7072-4696-9e74-204368656174,rev?*%
%TF.SameCoordinates,Original*%
%TF.FileFunction,Paste,Top*%
%TF.FilePolarity,Positive*%
%FSLAX46Y46*%
G04 Gerber Fmt 4.6, Leading zero omitted, Abs format (unit mm)*
G04 Created by KiCad (PCBNEW 9.0.7) date 2026-04-17 18:02:25*
%MOMM*%
%LPD*%
G01*
G04 APERTURE LIST*
G04 Aperture macros list*
%AMRoundRect*
0 Rectangle with rounded corners*
0 $1 Rounding radius*
0 $2 $3 $4 $5 $6 $7 $8 $9 X,Y pos of 4 corners*
0 Add a 4 corners polygon primitive as box body*
4,1,4,$2,$3,$4,$5,$6,$7,$8,$9,$2,$3,0*
0 Add four circle primitives for the rounded corners*
1,1,$1+$1,$2,$3*
1,1,$1+$1,$4,$5*
1,1,$1+$1,$6,$7*
1,1,$1+$1,$8,$9*
0 Add four rect primitives between the rounded corners*
20,1,$1+$1,$2,$3,$4,$5,0*
20,1,$1+$1,$4,$5,$6,$7,0*
20,1,$1+$1,$6,$7,$8,$9,0*
20,1,$1+$1,$8,$9,$2,$3,0*%
%AMFreePoly0*
4,1,9,3.862500,-0.866500,0.737500,-0.866500,0.737500,-0.450000,-0.737500,-0.450000,-0.737500,0.450000,0.737500,0.450000,0.737500,0.866500,3.862500,0.866500,3.862500,-0.866500,3.862500,-0.866500,$1*%
G04 Aperture macros list end*
%ADD10RoundRect,0.250000X-0.750000X-0.950000X0.750000X-0.950000X0.750000X0.950000X-0.750000X0.950000X0*%
%ADD11RoundRect,0.150000X-0.825000X-0.150000X0.825000X-0.150000X0.825000X0.150000X-0.825000X0.150000X0*%
%ADD12RoundRect,0.100000X-0.637500X-0.100000X0.637500X-0.100000X0.637500X0.100000X-0.637500X0.100000X0*%
%ADD13RoundRect,0.250000X-1.150000X-0.250000X1.150000X-0.250000X1.150000X0.250000X-1.150000X0.250000X0*%
%ADD14RoundRect,0.150000X-0.512500X-0.150000X0.512500X-0.150000X0.512500X0.150000X-0.512500X0.150000X0*%
%ADD15RoundRect,0.249999X-0.395001X-0.395001X0.395001X-0.395001X0.395001X0.395001X-0.395001X0.395001X0*%
%ADD16RoundRect,0.050000X-0.387500X-0.050000X0.387500X-0.050000X0.387500X0.050000X-0.387500X0.050000X0*%
%ADD17RoundRect,0.050000X-0.050000X-0.387500X0.050000X-0.387500X0.050000X0.387500X-0.050000X0.387500X0*%
%ADD18RoundRect,0.250000X-0.400000X-1.075000X0.400000X-1.075000X0.400000X1.075000X-0.400000X1.075000X0*%
%ADD19R,0.380000X1.000000*%
%ADD20R,0.700000X1.150000*%
%ADD21RoundRect,0.079500X-0.079500X-0.100500X0.079500X-0.100500X0.079500X0.100500X-0.079500X0.100500X0*%
%ADD22RoundRect,0.250000X-0.350000X-0.450000X0.350000X-0.450000X0.350000X0.450000X-0.350000X0.450000X0*%
%ADD23R,1.500000X0.900000*%
%ADD24R,0.900000X1.500000*%
%ADD25R,0.900000X0.900000*%
%ADD26R,0.900000X1.000000*%
%ADD27RoundRect,0.125000X-0.487500X-0.125000X0.487500X-0.125000X0.487500X0.125000X-0.487500X0.125000X0*%
%ADD28RoundRect,0.135000X-0.135000X-0.185000X0.135000X-0.185000X0.135000X0.185000X-0.135000X0.185000X0*%
%ADD29RoundRect,0.250000X-0.400000X-0.625000X0.400000X-0.625000X0.400000X0.625000X-0.400000X0.625000X0*%
%ADD30RoundRect,0.250000X-0.362500X-1.425000X0.362500X-1.425000X0.362500X1.425000X-0.362500X1.425000X0*%
%ADD31R,0.540000X0.540000*%
%ADD32R,0.300000X0.300000*%
%ADD33R,0.900000X0.300000*%
%ADD34R,0.300000X0.900000*%
%ADD35RoundRect,0.250000X-1.300000X-0.250000X1.300000X-0.250000X1.300000X0.250000X-1.300000X0.250000X0*%
%ADD36RoundRect,0.250000X-0.362500X-1.075000X0.362500X-1.075000X0.362500X1.075000X-0.362500X1.075000X0*%
%ADD37RoundRect,0.225000X-0.425000X-0.225000X0.425000X-0.225000X0.425000X0.225000X-0.425000X0.225000X0*%
%ADD38FreePoly0,0.000000*%
%ADD39RoundRect,0.250000X-1.000000X-0.650000X1.000000X-0.650000X1.000000X0.650000X-1.000000X0.650000X0*%
G04 APERTURE END LIST*
D10*
%TO.C,Y3*%
X200250000Y-56700000D03*
X196550000Y-56700000D03*
%TD*%
D11*
%TO.C,U3*%
X141725000Y-96090000D03*
X141725000Y-97360000D03*
X141725000Y-98630000D03*
X141725000Y-99900000D03*
X136775000Y-99900000D03*
X136775000Y-98630000D03*
X136775000Y-97360000D03*
X136775000Y-96090000D03*
%TD*%
D12*
%TO.C,U7*%
X153675000Y-95975000D03*
X153675000Y-96625000D03*
X153675000Y-97275000D03*
X153675000Y-97925000D03*
X153675000Y-98575000D03*
X153675000Y-99225000D03*
X153675000Y-99875000D03*
X147950000Y-99875000D03*
X147950000Y-99225000D03*
X147950000Y-98575000D03*
X147950000Y-97925000D03*
X147950000Y-97275000D03*
X147950000Y-96625000D03*
X147950000Y-95975000D03*
%TD*%
D13*
%TO.C,SW5*%
X214400000Y-109600000D03*
X220200000Y-109600000D03*
X214400000Y-113600000D03*
X220200000Y-113600000D03*
%TD*%
D14*
%TO.C,U14*%
X239525000Y-80575000D03*
X239525000Y-82475000D03*
X237250000Y-82475000D03*
X237250000Y-81525000D03*
X237250000Y-80575000D03*
%TD*%
D15*
%TO.C,U1*%
X152362500Y-116550000D03*
X152362500Y-118150000D03*
X153962500Y-116550000D03*
X153962500Y-118150000D03*
D16*
X149725000Y-114750000D03*
X149725000Y-115150000D03*
X149725000Y-115550000D03*
X149725000Y-115950000D03*
X149725000Y-116350000D03*
X149725000Y-116750000D03*
X149725000Y-117150000D03*
X149725000Y-117550000D03*
X149725000Y-117950000D03*
X149725000Y-118350000D03*
X149725000Y-118750000D03*
X149725000Y-119150000D03*
X149725000Y-119550000D03*
X149725000Y-119950000D03*
D17*
X150562500Y-120787500D03*
X150962500Y-120787500D03*
X151362500Y-120787500D03*
X151762500Y-120787500D03*
X152162500Y-120787500D03*
X152562500Y-120787500D03*
X152962500Y-120787500D03*
X153362500Y-120787500D03*
X153762500Y-120787500D03*
X154162500Y-120787500D03*
X154562500Y-120787500D03*
X154962500Y-120787500D03*
X155362500Y-120787500D03*
X155762500Y-120787500D03*
D16*
X156600000Y-119950000D03*
X156600000Y-119550000D03*
X156600000Y-119150000D03*
X156600000Y-118750000D03*
X156600000Y-118350000D03*
X156600000Y-117950000D03*
X156600000Y-117550000D03*
X156600000Y-117150000D03*
X156600000Y-116750000D03*
X156600000Y-116350000D03*
X156600000Y-115950000D03*
X156600000Y-115550000D03*
X156600000Y-115150000D03*
X156600000Y-114750000D03*
D17*
X155762500Y-113912500D03*
X155362500Y-113912500D03*
X154962500Y-113912500D03*
X154562500Y-113912500D03*
X154162500Y-113912500D03*
X153762500Y-113912500D03*
X153362500Y-113912500D03*
X152962500Y-113912500D03*
X152562500Y-113912500D03*
X152162500Y-113912500D03*
X151762500Y-113912500D03*
X151362500Y-113912500D03*
X150962500Y-113912500D03*
X150562500Y-113912500D03*
%TD*%
D18*
%TO.C,R6*%
X173375000Y-56700000D03*
X176475000Y-56700000D03*
%TD*%
D19*
%TO.C,P1*%
X210855000Y-77475000D03*
X211355000Y-77475000D03*
X211855000Y-77475000D03*
X212355000Y-77475000D03*
X212855000Y-77475000D03*
X213355000Y-77475000D03*
X213855000Y-77475000D03*
X214355000Y-77475000D03*
X214855000Y-77475000D03*
X215355000Y-77475000D03*
X215855000Y-77475000D03*
X216355000Y-77475000D03*
D20*
X210185000Y-78315000D03*
%TD*%
D21*
%TO.C,R2*%
X154360000Y-56700000D03*
X155050000Y-56700000D03*
%TD*%
D11*
%TO.C,U6*%
X180175000Y-91485000D03*
X180175000Y-92755000D03*
X180175000Y-94025000D03*
X180175000Y-95295000D03*
X180175000Y-96565000D03*
X180175000Y-97835000D03*
X180175000Y-99105000D03*
X180175000Y-100375000D03*
X185125000Y-100375000D03*
X185125000Y-99105000D03*
X185125000Y-97835000D03*
X185125000Y-96565000D03*
X185125000Y-95295000D03*
X185125000Y-94025000D03*
X185125000Y-92755000D03*
X185125000Y-91485000D03*
%TD*%
D22*
%TO.C,R4*%
X162875000Y-56700000D03*
X164875000Y-56700000D03*
%TD*%
D23*
%TO.C,U2*%
X123300000Y-108590000D03*
X123300000Y-109860000D03*
X123300000Y-111130000D03*
X123300000Y-112400000D03*
X123300000Y-113670000D03*
X123300000Y-114940000D03*
X123300000Y-116210000D03*
X123300000Y-117480000D03*
X123300000Y-118750000D03*
X123300000Y-120020000D03*
X123300000Y-121290000D03*
X123300000Y-122560000D03*
X123300000Y-123830000D03*
X123300000Y-125100000D03*
D24*
X126335000Y-126195000D03*
X127605000Y-126195000D03*
X128875000Y-126195000D03*
X130145000Y-126195000D03*
X131415000Y-126195000D03*
X132685000Y-126195000D03*
X133955000Y-126195000D03*
X135225000Y-126195000D03*
X136495000Y-126195000D03*
X137765000Y-126195000D03*
D23*
X140800000Y-125100000D03*
X140800000Y-123830000D03*
X140800000Y-122560000D03*
X140800000Y-121290000D03*
X140800000Y-120020000D03*
X140800000Y-118750000D03*
X140800000Y-117480000D03*
X140800000Y-116210000D03*
X140800000Y-114940000D03*
X140800000Y-113670000D03*
X140800000Y-112400000D03*
X140800000Y-111130000D03*
X140800000Y-109860000D03*
X140800000Y-108590000D03*
D25*
X129150000Y-114755000D03*
X129150000Y-116155000D03*
X129150000Y-117555000D03*
X130550000Y-114755000D03*
X130550000Y-116155000D03*
X130550000Y-117555000D03*
X131950000Y-114755000D03*
X131950000Y-116155000D03*
X131950000Y-117555000D03*
%TD*%
D26*
%TO.C,SW1*%
X181075000Y-110525000D03*
X185175000Y-110525000D03*
X181075000Y-112125000D03*
X185175000Y-112125000D03*
%TD*%
D27*
%TO.C,D1*%
X230125000Y-81875000D03*
X228250000Y-82525000D03*
X228250000Y-81225000D03*
%TD*%
D28*
%TO.C,R1*%
X158975000Y-56600000D03*
X159995000Y-56600000D03*
%TD*%
D13*
%TO.C,SW4*%
X190300000Y-109450000D03*
X196100000Y-109450000D03*
X190300000Y-113450000D03*
X196100000Y-113450000D03*
%TD*%
D29*
%TO.C,R5*%
X167650000Y-56700000D03*
X170750000Y-56700000D03*
%TD*%
D30*
%TO.C,R8*%
X186700000Y-56700000D03*
X192625000Y-56700000D03*
%TD*%
D21*
%TO.C,R3*%
X150400000Y-56750000D03*
X149710000Y-56750000D03*
%TD*%
D13*
%TO.C,SW3*%
X202500000Y-109525000D03*
X208300000Y-109525000D03*
X202500000Y-113525000D03*
X208300000Y-113525000D03*
%TD*%
D11*
%TO.C,U4*%
X159425000Y-92380000D03*
X159425000Y-93650000D03*
X159425000Y-94920000D03*
X159425000Y-96190000D03*
X159425000Y-97460000D03*
X159425000Y-98730000D03*
X159425000Y-100000000D03*
X164375000Y-100000000D03*
X164375000Y-98730000D03*
X164375000Y-97460000D03*
X164375000Y-96190000D03*
X164375000Y-94920000D03*
X164375000Y-93650000D03*
X164375000Y-92380000D03*
%TD*%
D12*
%TO.C,U5*%
X125200000Y-97850000D03*
X125200000Y-98500000D03*
X125200000Y-99150000D03*
X125200000Y-99800000D03*
X130925000Y-99800000D03*
X130925000Y-99150000D03*
X130925000Y-98500000D03*
X130925000Y-97850000D03*
%TD*%
D31*
%TO.C,U9*%
X170050000Y-117350000D03*
X170050000Y-118250000D03*
X170950000Y-117350000D03*
X170950000Y-118250000D03*
D32*
X169250000Y-116550000D03*
D33*
X168950000Y-117050000D03*
X168950000Y-117550000D03*
X168950000Y-118050000D03*
X168950000Y-118550000D03*
D32*
X169250000Y-119050000D03*
D34*
X169750000Y-119350000D03*
X170250000Y-119350000D03*
X170750000Y-119350000D03*
X171250000Y-119350000D03*
D32*
X171750000Y-119050000D03*
D33*
X172050000Y-118550000D03*
X172050000Y-118050000D03*
X172050000Y-117550000D03*
X172050000Y-117050000D03*
D32*
X171750000Y-116550000D03*
D34*
X171250000Y-116250000D03*
X170750000Y-116250000D03*
X170250000Y-116250000D03*
X169750000Y-116250000D03*
%TD*%
D35*
%TO.C,SW2*%
X226475000Y-109325000D03*
X235375000Y-109325000D03*
X226475000Y-113325000D03*
X235375000Y-113325000D03*
%TD*%
D36*
%TO.C,R7*%
X179200000Y-56700000D03*
X183825000Y-56700000D03*
%TD*%
D12*
%TO.C,U8*%
X169225000Y-94525000D03*
X169225000Y-95175000D03*
X169225000Y-95825000D03*
X169225000Y-96475000D03*
X169225000Y-97125000D03*
X169225000Y-97775000D03*
X169225000Y-98425000D03*
X169225000Y-99075000D03*
X169225000Y-99725000D03*
X169225000Y-100375000D03*
X174950000Y-100375000D03*
X174950000Y-99725000D03*
X174950000Y-99075000D03*
X174950000Y-98425000D03*
X174950000Y-97775000D03*
X174950000Y-97125000D03*
X174950000Y-96475000D03*
X174950000Y-95825000D03*
X174950000Y-95175000D03*
X174950000Y-94525000D03*
%TD*%
D37*
%TO.C,U15*%
X248050000Y-79050000D03*
D38*
X248137500Y-80550000D03*
D37*
X248050000Y-82050000D03*
%TD*%
D39*
%TO.C,D2*%
X244750000Y-98675000D03*
X248750000Y-98675000D03*
%TD*%
M02*
